<svg width="300" height="300" viewBox="0 0 300 300" fill="none" xmlns="http://www.w3.org/2000/svg">
<path fill-rule="evenodd" clip-rule="evenodd" d="M59.8223 0H240.178C260.985 0 268.518 2.16318 276.128 6.23202C283.737 10.3009 289.699 16.2625 293.768 23.8722C297.837 31.482 300 39.0274 300 59.8223V240.178C300 260.985 297.837 268.518 293.768 276.128C289.699 283.737 283.737 289.699 276.128 293.768C268.518 297.837 260.972 300 240.178 300H59.8223C39.0145 300 31.4819 297.837 23.8722 293.768C16.2624 289.699 10.3008 283.737 6.23198 276.128C2.16314 268.518 0 260.973 0 240.178V59.8223C0 39.0145 2.16314 31.482 6.23198 23.8722C10.3008 16.2625 16.2624 10.3009 23.8722 6.23202C31.4819 2.16318 39.0274 0 59.8223 0Z" fill="#031219"/>
<path d="M165.381 154.281C173.724 154.281 177.806 164.299 172.063 170.235L117.533 224.765C113.825 228.473 107.889 228.473 104.18 224.765L31.1086 151.32C27.4003 147.611 27.4003 141.676 31.1086 137.967L92.5019 76.5741C97.5107 71.5653 105.854 71.5653 110.863 76.5741C115.872 81.5829 115.872 89.9266 110.863 94.9354L67.8313 138.148C64.1229 141.856 64.1229 147.792 67.8313 151.5L104.374 188.042C108.082 191.751 114.018 191.751 117.726 188.042L122.555 183.214C124.409 181.36 125.336 179.132 125.336 176.531V167.067C125.336 165.767 125.336 164.466 125.516 163.179C125.89 158.17 129.971 154.462 134.98 154.462H165.393V154.281H165.381Z" fill="#00E7E7"/>
<path d="M269.059 162.071L207.485 223.645C202.477 228.654 194.133 228.654 189.124 223.645C184.115 218.636 184.115 210.292 189.124 205.283L232.336 162.071C236.045 158.363 236.045 152.427 232.336 148.719L195.614 112.176C191.905 108.468 185.969 108.468 182.261 112.176L177.433 117.005C175.759 118.679 174.651 121.087 174.651 123.688V133.152C174.651 134.452 174.651 135.753 174.471 137.04C174.098 142.049 170.016 145.757 165.007 145.757H134.594C126.25 145.757 122.168 135.74 127.911 129.804L169.269 88.4459L174.651 82.8834L182.261 75.2736C185.969 71.5653 191.905 71.5653 195.614 75.2736L268.879 148.539C272.587 152.427 272.587 158.363 269.059 162.071Z" fill="#00BFFF"/>
</svg>
