<svg width="80" height="80" viewBox="0 0 80 80" fill="none" xmlns="http://www.w3.org/2000/svg">
    <path
        d="M72.0345 71.8777H24.5087L28.7745 70.7474C38.4939 68.1843 47.4665 63.3516 54.955 56.6464V56.6464C64.1383 48.3954 65.2357 34.542 57.4303 25.8454C53.8334 21.9132 48.9897 19.3427 43.7171 18.568C38.5553 20.8955 33.7759 23.9918 29.5419 27.7514C29.3933 27.8834 29.3108 28.0484 29.1706 28.1804C32.534 25.4285 36.8221 24.0665 41.1571 24.3733C45.492 24.68 49.5456 26.6324 52.4879 29.8306C58.0903 36.0519 57.1992 46.0356 50.4912 52.1083C43.7853 58.1085 35.7516 62.4322 27.0501 64.7241L12.1982 68.6764L17.6687 53.8245L13.3369 46.7122L2.3383 77.0181C2.16281 77.2593 2.05977 77.5455 2.04126 77.8432H78V11.4391L72.018 27.9412L72.0345 71.8777Z"
        fill="url(#paint0_linear_1302_171)"/>
    <path
        d="M7.98198 7.98198H55.5078L51.2337 9.11236C41.5188 11.6718 32.5493 16.4987 25.0616 23.1968V23.1968C15.8699 31.4478 14.7726 45.3013 22.5863 53.9978C26.1844 57.9342 31.0313 60.5078 36.3077 61.2835C41.4669 58.9558 46.2435 55.8595 50.4746 52.1001V52.1001C50.6149 51.9681 50.6974 51.7948 50.8377 51.6628C47.4756 54.4142 43.1888 55.776 38.8553 55.4692C34.5217 55.1624 30.4695 53.2102 27.5286 50.0126C21.9179 43.7831 22.8173 33.7994 29.5171 27.7349C36.2185 21.7311 44.2497 17.4044 52.95 15.1108L67.8018 11.1669L62.3396 26.0187L66.6631 33.131L77.67 2.8251C77.8417 2.5826 77.9418 2.29667 77.9588 2H2V68.4453L7.98198 51.9433V7.98198Z"
        fill="url(#paint1_linear_1302_171)"/>
    <path d="M39.443 30.2597L32.4709 49.6248H40.5734L47.5373 30.2597H39.443Z" fill="url(#paint2_linear_1302_171)"/>
    <defs>
        <linearGradient id="paint0_linear_1302_171" x1="30.763" y1="22.2975" x2="48.6594" y2="65.6647"
                        gradientUnits="userSpaceOnUse">
            <stop stop-color="#08FFC0"/>
            <stop offset="1" stop-color="#0883F7"/>
        </linearGradient>
        <linearGradient id="paint1_linear_1302_171" x1="49.2535" y1="57.587" x2="31.3571" y2="14.2197"
                        gradientUnits="userSpaceOnUse">
            <stop stop-color="#08FFC0"/>
            <stop offset="1" stop-color="#0883F7"/>
        </linearGradient>
        <linearGradient id="paint2_linear_1302_171" x1="40.0041" y1="49.6248" x2="40.0041" y2="30.2597"
                        gradientUnits="userSpaceOnUse">
            <stop stop-color="#08FFC0"/>
            <stop offset="1" stop-color="#0883F7"/>
        </linearGradient>
    </defs>
</svg>
