<svg width="40" height="40" viewBox="0 0 1024 1024" fill="none" xmlns="http://www.w3.org/2000/svg">

    <path d="M927.38 180.326c-39.454-20.449-240.84-114.524-412.866-6.42-172.032-108.104-373.412-14.029-412.867 6.415a44.544 44.544 0 0 0-24.14 39.711v476.503a44.867 44.867 0 0 0 63.16 40.904c49.152-21.945 181.11-65.73 343.767 1.536a44.964 44.964 0 0 0 30.075 1.536 44.954 44.954 0 0 0 30.085-1.536c162.642-67.226 294.594-23.46 343.772-1.51a44.877 44.877 0 0 0 63.16-40.91V220.033a44.544 44.544 0 0 0-24.146-39.706zM141.553 668.262V231.844c50.524-24.136 209.05-87.184 340.935-2.673v440.592a516.275 516.275 0 0 0-173.834-30.557 491.786 491.786 0 0 0-167.101 29.036z m745.917 0c-66.212-24.064-191.242-51.712-340.936 1.536V229.176c131.892-84.52 290.412-21.468 340.936 2.673v436.393z"
          fill="url(#paint0_linear)"/>
    <path d="M930.493 911.677a32.01 32.01 0 0 1-18.432-5.836c-121.031-84.992-295.818-44.232-362.496-3.492a44.846 44.846 0 0 1-50.237-2.401c-172.032-127.15-374.687 1.024-383.232 6.553a32.159 32.159 0 0 1-44.288-9.282 31.744 31.744 0 0 1 9.257-44.032c9.876-6.426 240.543-153.365 446.29-11.618 96.025-52.157 286.797-82.468 421.657 12.252a31.831 31.831 0 0 1-18.519 57.856z"
          fill="url(#paint1_linear)"/>
    <defs>
        <linearGradient id="paint0_linear" gradientUnits="userSpaceOnUse">
            <stop offset="0.15937" stop-color="#3BEA62"/>
            <stop offset="0.5404" stop-color="#3C99CC"/>
            <stop offset="0.93739" stop-color="#6B57FF"/>
        </linearGradient>

        <linearGradient id="paint1_linear" gradientUnits="userSpaceOnUse">
            <stop offset="0.15937" stop-color="#6B57FF"/>
            <stop offset="0.5404" stop-color="#3C99CC"/>
            <stop offset="0.93739" stop-color="#3BEA62"/>
        </linearGradient>
    </defs>
</svg>