<?xml version="1.0" encoding="UTF-8" standalone="no"?><!DOCTYPE svg PUBLIC "-//W3C//DTD SVG 1.1//EN" "http://www.w3.org/Graphics/SVG/1.1/DTD/svg11.dtd"><svg width="100%" height="100%" viewBox="0 0 432 432" version="1.1" xmlns="http://www.w3.org/2000/svg" xmlns:xlink="http://www.w3.org/1999/xlink" xml:space="preserve" xmlns:serif="http://www.serif.com/" style="fill-rule:evenodd;clip-rule:evenodd;stroke-miterlimit:10;"><g id="Layer-6" serif:id="Layer 6"><path d="M220.234,6.213c-0.49,0.07 -0.644,0.011 -1.617,-0.043c-0.537,-0.029 -1.053,-0.034 -2.085,-0.043l-5.553,0.086c-8.911,0.222 -17.426,1.149 -17.426,1.149c-8.174,0.891 -14.399,2.069 -16.851,2.553c-3.777,0.745 -6.552,1.412 -9.702,2.17c-4.842,1.165 -9.174,2.215 -14.617,3.958c-3.253,1.041 -5.481,1.874 -9,3.191c-4.746,1.776 -9.453,3.537 -15.51,6.319c-6.856,3.15 -11.798,5.933 -13.149,6.702c-3.227,1.837 -5.768,3.435 -8.426,5.107c-2.644,1.662 -5.845,3.681 -9.83,6.446c-2.36,1.638 -6.808,4.798 -12.192,9.128c-6.174,4.966 -10.563,9.047 -11.808,10.212c-1.388,1.301 -4.383,4.144 -8.042,7.98c-1.23,1.288 -4.28,4.519 -8.043,8.936c-5.897,6.921 -10.065,12.677 -11.809,15.127c-4.75,6.682 -8.204,12.351 -10.276,15.894c-1.932,3.304 -5.06,8.683 -8.49,16.085c-1.738,3.753 -2.904,6.651 -5.233,12.447c-0.7,1.742 -3.128,7.813 -4.788,13.021c-1.626,5.104 -1.794,7.115 -2.17,8.043c-0.036,0.09 -0.222,0.535 -0.128,0.595c0.078,0.05 0.302,-0.176 0.384,-0.254c0.549,-0.534 1.063,-0.697 1.851,-1.193c0.923,-0.58 1.468,-1.141 3.361,-2.658c0.347,-0.278 1.659,-1.326 3.256,-2.491c1.264,-0.921 2.117,-1.486 2.744,-1.914c2.646,-1.804 2.891,-2.271 6.49,-4.979c2.746,-2.066 2.806,-1.938 6.148,-4.467c1.364,-1.033 1.756,-1.357 3.596,-2.745c1.895,-1.43 2.433,-1.803 4.937,-3.66l13.978,-10.469c4.75,-3.551 7.215,-5.347 12.341,-9.148c0.653,-0.484 3.067,-2.276 6.234,-4.639c5.139,-3.835 6.58,-4.939 11.127,-8.318c3.766,-2.799 3.11,-2.289 5.255,-3.894c4.421,-3.308 5.734,-4.373 9.916,-7.469c2.032,-1.504 2.025,-1.477 3.957,-2.914c3.13,-2.329 4.924,-3.749 6.468,-4.893c4.409,-3.267 5.082,-3.627 9.149,-6.597c6.768,-4.941 6.728,-5.276 13.128,-9.893c1.447,-1.044 3.423,-2.451 6.297,-4.617c2.206,-1.662 3.422,-2.627 4.894,-3.766c3.755,-2.906 5.027,-3.736 10.531,-7.788c4.71,-3.464 3.782,-2.86 10.618,-7.936c4.458,-3.31 4.455,-3.269 10.979,-8.106c5.277,-3.912 7.613,-5.67 8.532,-6.361c1.968,-1.483 2.206,-1.673 5.936,-4.489c3.893,-2.941 5.864,-4.429 7.17,-5.384c2.933,-2.146 2.963,-2.089 6.468,-4.66c2.533,-1.857 3.829,-2.81 5.298,-3.978c0.645,-0.513 1.432,-1.153 2.66,-2.085c1.341,-1.018 2.01,-1.526 2.021,-1.532c0.156,-0.088 0.854,-0.471 1.532,-1.192c0.41,-0.437 0.419,-0.579 0.383,-0.638c-0.024,-0.04 -0.075,-0.055 -0.147,-0.055c-0.159,0 -0.424,0.073 -0.747,0.119Z" style="fill:url(#_Linear1);fill-rule:nonzero;"/></g><g id="Layer-7" serif:id="Layer 7"><path d="M221.085,6.234l7.936,0.298l6.149,0.404l10.447,1.149l5.298,0.766l8.085,1.574l9.361,2.128l8.107,2.192l7.787,2.574l5.851,2.192l4.681,1.616l5.17,2.213l7.086,3.256l6.446,3.191l7.639,4.192l5.042,2.83l5.724,3.744l7.574,5.171l3.149,2.255l8.085,6.425l4.192,3.681l4.532,3.894l3.723,3.446l6.894,7.192l2.808,3.043l3.638,4.255l3.915,4.425l7.17,9.533l5.213,7.574l2.022,3.447l4.361,6.936l3.617,6.617l1.362,2.851l2.745,5.404l1.957,4.192l2.575,5.915l1.617,4.659l4.723,13.149l2.149,7.83l1.234,4.744l2.149,9.66l2.213,14.17l0.34,4.085l0.596,5.958l0.234,3.511l0.276,7.383l0.106,4.51l0,3.511l-0.595,11.382l-0.468,6.49l-0.766,5.766l-1.766,12.149l-1.085,4.234l-1.702,7.83l-1.128,4.617l-0.957,3.298l-2.085,6.34l-2.894,8.362l-2.893,7.659l-4.979,10.724l-3.617,7l-3.065,5.511l-4.169,7.042l-3.596,5.511l-4.064,5.957l-4.128,5.255l-2.489,3.298l-4.958,6.128l-8.808,9.383l-4.894,4.915l-6.318,5.787l-3.49,3.064l-6.298,5.043l-5.808,4.297l-6.192,4.32l-6.106,4l-4.894,3.063l-5.979,3.192l-6.489,3.574l-5.128,2.256l-4.723,2.404l-7.958,3.127l-8.127,2.852l-6.936,2.276l-3.915,1.17l-9.022,2.213l-6,1.383l-8.702,1.532l-7.489,1.276l-9.809,0.873l-7.468,0.362l-10.872,0.361l-5.489,-0.276l-9.469,-0.703l-4.574,-0.233l-9.766,-1.277l-5.978,-1.042l-11.341,-2.15l-6.83,-1.893l-13.702,-4.192l-8.319,-3.426l4.468,-0.318l10.234,-1.724l6.107,-1.276l6.765,-1.83l7.064,-2.468l7.894,-3.298l5.319,-2.681l9.021,-5.234l5.745,-4l4.957,-3.915l5.49,-4.808l3.489,-3.426l6.851,-8.106l3.064,-4.532l3.617,-5.106l5.681,-9.915l2.277,-4.426l2.638,-5.553l2.659,-6.83l1.873,-5.787l1.851,-6.489l1.276,-5.128l1.235,-6.468l0.722,-5.702l0.554,-7.319l0.085,-5.107l0.213,-6.787l-0.447,-6.256l-0.553,-6.425l-1.021,-6.425l-2.235,-9.83l-1.638,-6l-1.574,-4.809l-3.341,-8.851l-3.34,-7.595l-2.787,-5.788l-4.66,-7.724l-3,-4.638l-6.149,-8.276l-4.745,-5.34l-4.361,-4.767l-7.128,-7.489l-5.404,-5.893l-2.936,-3.448l-3.32,-4.063l-4.744,-6.979l-3.362,-5.638l-3.17,-6l-3.425,-7.66l-3.064,-9.17l-1.638,-5.319l-1.724,-8.128l-1.553,-9.894l-0.469,-7.319l-0.212,-6.681l0.191,-5.68l0.426,-4.703l1.128,-7.063l0.851,-3.915l1.744,-6.681l2.49,-7.192l1.979,-4.574l2.297,-4.681l2.426,-4.681l3.404,-5.382l3.255,-4.831l5.128,-6.808l3.298,-3.915l2.936,-3.021l5.298,-5l5.213,-4.383l8.425,-6.191l2.681,-2.49Z" style="fill:url(#_Linear2);fill-rule:nonzero;"/></g><g id="Layer-8" serif:id="Layer 8"><path d="M197.83,26.064l-4.724,5.17l-4.531,6.064l-4.022,6.064l-3.893,6.702l-3.384,6.702l-2.744,6.192l-2.17,5.808l-3,12.255l-1.213,7.66l-0.383,9.894l0.383,7.276l1.021,10.276l1.277,6.894l1.532,6.447l1.915,7.021l2.744,7.277l3.064,7.34l3.83,7.021l2.808,4.915l4.085,6l5.362,6.767l11.681,12.574l5.107,5.362l4.723,5.553l3.383,3.829l3.447,4.277l4.213,6.766l4.276,7.149l2.234,4.213l5.873,13.405l2.233,6.446l1.66,5.617l2.298,8.809l1.468,8.361l0.893,6.575l0.511,5.553l0.064,11.489l-0.702,11.107l-1.788,11.297l-1.914,8.426l-2.808,8.872l-4.852,11.745l-3.446,6.383l-2.554,5.042l-6.702,10.086l-5.617,7.404l-4.532,5.106l-5.681,5.617l-9,7.213l-11.042,6.958l-8.362,4.596l-9.064,3.574l-7.276,2.17l-10.851,2.745l-10.979,1.659l-5.043,0.383l-11.298,-5.233l-6.127,-3.065l-6.255,-3.255l-9.32,-5.489l-4.596,-3.191l-10.531,-7.596l-7.277,-5.617l-8.617,-7.596l-9.447,-9.191l-9.574,-10.724l-6.638,-8.362l-5.298,-7.212l-5.554,-8.554l-7.276,-12.957l-3.894,-7.979l-3.447,-7.532l-4.34,-11.043l-2.936,-9.127l-3.192,-11.553l-2.425,-10.213l-1.979,-13.915l-1.149,-13.021l-0.383,-14.107l-0.127,-7.021l1.148,-13.596l1.085,-10.851l2.426,-11.745l2.681,-11.106l4.404,-3.192l27,-20.042l39.256,-29.17l31.851,-23.553l22.404,-16.66l18.447,-13.851l16.467,-12.447l11.362,-8.298l7.149,-5.553l9.064,-6.574l-2.872,4.085Z" style="fill:url(#_Linear3);fill-rule:nonzero;"/></g><g id="Layer-2" serif:id="Layer 2"><path d="M426.976,216.612c-0,116.249 -94.238,210.487 -210.488,210.487c-116.249,0 -210.488,-94.238 -210.488,-210.487c-0,-116.25 94.239,-210.488 210.488,-210.488c116.25,0 210.488,94.238 210.488,210.488Z" style="fill:none;fill-rule:nonzero;stroke:#231f20;stroke-width:1px;"/></g><g id="Layer-3" serif:id="Layer 3"><path d="M221.426,6.404l-208,154.979" style="fill:none;fill-rule:nonzero;stroke:#231f20;stroke-width:1px;stroke-linecap:round;"/></g><g id="Layer-5" serif:id="Layer 5"><path d="M221.681,6.191c-7.763,5.594 -17.616,13.505 -21.976,17.851c-8.677,8.649 -13.25,16.357 -14.718,18.585c-4.283,6.499 -7.029,12.209 -8.673,15.999c-3.093,7.134 -4.817,13.315 -5.803,17.56c-2.121,9.123 -2.468,16.318 -2.55,18.519c-0.251,6.675 0.268,11.718 0.715,15.913c0.546,5.112 1.403,12.797 4.334,22.691c3.511,11.853 8.096,20.461 9.458,22.953c5.243,9.597 10.671,16.333 12.442,18.48c3.245,3.935 4.79,5.276 10.882,11.776c8.375,8.933 12.485,13.453 14.891,16.526c6.185,7.896 9.873,14.603 12.011,18.532c1.156,2.125 4.683,8.738 8.085,17.73c0.941,2.487 3.21,8.692 5.214,16.884c2.202,8.994 2.972,15.838 3.154,17.524c0.759,7.07 0.711,12.415 0.667,16.079c-0.034,2.776 -0.118,8.424 -0.959,15.24c-0.352,2.846 -1.698,12.895 -6.069,25.511c-5.256,15.172 -12.059,25.895 -14.945,30.209c-3.927,5.87 -8.947,13.375 -18.03,21.625c-5.287,4.802 -19.719,16.916 -42.754,24.325c-1.727,0.555 -3.637,1.045 -3.637,1.045c-10.585,2.881 -18.62,3.859 -25.015,4.358" style="fill:none;fill-rule:nonzero;stroke:#231f20;stroke-width:1px;stroke-linecap:round;"/></g><defs><linearGradient id="_Linear1" x1="0" y1="0" x2="1" y2="0" gradientUnits="userSpaceOnUse" gradientTransform="matrix(209.671,-152.335,152.335,209.671,1.30049,141.614)"><stop offset="0" style="stop-color:#c0c0c0;stop-opacity:1"/><stop offset="0.33" style="stop-color:#dbdbdb;stop-opacity:1"/><stop offset="0.66" style="stop-color:#dbdbdb;stop-opacity:1"/><stop offset="0.99" style="stop-color:#eaeaea;stop-opacity:1"/><stop offset="1" style="stop-color:#eaeaea;stop-opacity:1"/></linearGradient><linearGradient id="_Linear2" x1="0" y1="0" x2="1" y2="0" gradientUnits="userSpaceOnUse" gradientTransform="matrix(0,421.021,-421.021,0,282.915,6.23404)"><stop offset="0" style="stop-color:#c57d42;stop-opacity:1"/><stop offset="0.14" style="stop-color:#d7ab54;stop-opacity:1"/><stop offset="0.29" style="stop-color:#d7ab54;stop-opacity:1"/><stop offset="0.32" style="stop-color:#cc5450;stop-opacity:1"/><stop offset="0.43" style="stop-color:#cc5450;stop-opacity:1"/><stop offset="0.48" style="stop-color:#a64270;stop-opacity:1"/><stop offset="0.57" style="stop-color:#a64270;stop-opacity:1"/><stop offset="0.64" style="stop-color:#71983b;stop-opacity:1"/><stop offset="0.72" style="stop-color:#71983b;stop-opacity:1"/><stop offset="0.82" style="stop-color:#307878;stop-opacity:1"/><stop offset="0.86" style="stop-color:#307878;stop-opacity:1"/><stop offset="1" style="stop-color:#376388;stop-opacity:1"/></linearGradient><linearGradient id="_Linear3" x1="0" y1="0" x2="1" y2="0" gradientUnits="userSpaceOnUse" gradientTransform="matrix(0,390.191,-390.191,0,127.904,21.9787)"><stop offset="0" style="stop-color:#1c1c1c;stop-opacity:1"/><stop offset="0" style="stop-color:#1c1c1c;stop-opacity:1"/><stop offset="0.34" style="stop-color:#232323;stop-opacity:1"/><stop offset="0.63" style="stop-color:#232323;stop-opacity:1"/><stop offset="1" style="stop-color:#3f3f3f;stop-opacity:1"/></linearGradient></defs></svg>