<svg width="897" height="659" viewBox="0 0 897 659" fill="none" xmlns="http://www.w3.org/2000/svg">
<path d="M321.374 80.2188C357.181 80.2188 391.152 87.7941 421.924 101.392C353.746 140.069 306.176 227.679 306.176 329.593C306.176 431.507 353.793 519.118 421.924 557.794C391.152 571.392 357.181 578.968 321.374 578.968C183.654 578.968 71.9997 467.314 71.9997 329.593C71.9997 191.873 183.654 80.2188 321.374 80.2188Z" fill="#05E5AD"/>
<path d="M321.374 80.2188C357.181 80.2188 391.152 87.7941 421.924 101.392C353.746 140.069 306.176 227.679 306.176 329.593C306.176 431.507 353.793 519.118 421.924 557.794C391.152 571.392 357.181 578.968 321.374 578.968C183.654 578.968 71.9997 467.314 71.9997 329.593C71.9997 191.873 183.654 80.2188 321.374 80.2188Z" fill="url(#paint0_radial_1522_4324)"/>
<path d="M518.033 176.346C492.813 144.068 459.877 118.142 421.906 101.392C445.855 87.7941 472.298 80.2188 500.106 80.2188C526.361 80.2188 551.44 86.9942 574.26 99.1336C551.957 115.743 532.619 142.562 517.986 176.346H518.033Z" fill="url(#paint1_radial_1522_4324)"/>
<path d="M517.986 482.844C532.619 516.627 551.957 543.399 574.26 560.056C551.393 572.242 526.361 578.971 500.106 578.971C472.252 578.971 445.808 571.395 421.906 557.797C459.83 541.047 492.813 515.121 518.033 482.844H517.986Z" fill="url(#paint2_radial_1522_4324)"/>
<path d="M306.167 329.576C306.167 227.662 353.783 140.052 421.914 101.375C459.838 118.125 492.821 144.051 518.041 176.329C499.691 218.628 488.775 271.797 488.775 329.576C488.775 387.356 499.738 440.524 518.041 482.824C492.821 515.101 459.885 541.027 421.914 557.777C353.736 519.101 306.167 431.49 306.167 329.576Z" fill="#684BFE"/>
<path d="M669.094 451.891C676.152 489.485 686.362 521.01 698.689 543.265C677.846 565.897 653.426 578.93 627.265 578.93C608.491 578.93 590.611 572.202 574.285 560.016C614.514 538.607 647.874 500.26 669.094 451.938V451.891Z" fill="url(#paint3_radial_1522_4324)"/>
<path d="M574.285 99.1336C590.611 86.9472 608.491 80.2188 627.265 80.2188C653.379 80.2188 677.798 93.2521 698.689 115.884C686.409 138.14 676.199 169.664 669.094 207.259C647.874 158.936 614.514 120.589 574.285 99.1806V99.1336Z" fill="url(#paint4_radial_1522_4324)"/>
<path d="M518.036 482.832C551.019 440.533 570.734 387.364 570.734 329.585C570.734 271.805 551.019 218.637 518.036 176.337C532.669 142.601 552.007 115.781 574.31 99.125C614.539 120.534 647.899 158.881 669.119 207.203C662.297 243.339 658.438 285.074 658.438 329.538C658.438 374.002 662.344 415.736 669.119 451.872C647.899 500.194 614.539 538.542 574.31 559.95C552.007 543.341 532.669 516.521 518.036 482.738V482.832Z" fill="#684BFE"/>
<path d="M518.023 482.855C499.672 440.555 488.756 387.387 488.756 329.607C488.756 271.827 499.719 218.659 518.023 176.359C551.006 218.659 570.721 271.827 570.721 329.607C570.721 387.387 551.006 440.555 518.023 482.855Z" fill="#321BB2"/>
<path d="M698.685 115.884C711.2 93.2521 725.834 80.2188 741.549 80.2188C787.471 80.2188 824.689 191.873 824.689 329.593C824.689 467.314 787.471 578.968 741.549 578.968C725.881 578.968 711.2 565.934 698.685 543.302C738.914 499.638 765.828 420.309 765.828 329.593C765.828 238.877 738.914 159.501 698.685 115.884V115.884Z" fill="#05E6AD"/>
<path d="M698.685 115.884C711.2 93.2521 725.834 80.2188 741.549 80.2188C787.471 80.2188 824.689 191.873 824.689 329.593C824.689 467.314 787.471 578.968 741.549 578.968C725.881 578.968 711.2 565.934 698.685 543.302C738.914 499.638 765.828 420.309 765.828 329.593C765.828 238.877 738.914 159.501 698.685 115.884V115.884Z" fill="url(#paint5_radial_1522_4324)"/>
<path d="M694.092 329.615C694.092 285.152 685.011 243.417 669.107 207.281C676.165 169.686 686.375 138.162 698.703 115.906C738.932 159.523 765.846 238.947 765.846 329.615C765.846 420.284 738.932 499.708 698.703 543.325C686.422 521.069 676.212 489.544 669.107 451.95C684.964 415.814 694.092 374.079 694.092 329.615V329.615Z" fill="#684BFE"/>
<path d="M669.096 451.919C662.273 415.784 658.415 374.049 658.415 329.585C658.415 285.121 662.32 243.386 669.096 207.25C684.952 243.386 694.08 285.121 694.08 329.585C694.08 374.049 684.999 415.784 669.096 451.919Z" fill="#321BB2"/>
<defs>
<radialGradient id="paint0_radial_1522_4324" cx="0" cy="0" r="1" gradientUnits="userSpaceOnUse" gradientTransform="translate(422.09 330.282) rotate(-179.2) scale(276.257 402.952)">
<stop stop-color="#6447FF"/>
<stop offset="0.0666667" stop-color="#6348FE"/>
<stop offset="0.133333" stop-color="#614DFC"/>
<stop offset="0.2" stop-color="#5C54F8"/>
<stop offset="0.266667" stop-color="#565EF3"/>
<stop offset="0.333333" stop-color="#4E6CEC"/>
<stop offset="0.4" stop-color="#447BE4"/>
<stop offset="0.466667" stop-color="#3A8DDB"/>
<stop offset="0.533333" stop-color="#2F9FD1"/>
<stop offset="0.6" stop-color="#25B1C8"/>
<stop offset="0.666667" stop-color="#1BC0C0"/>
<stop offset="0.733333" stop-color="#13CEB9"/>
<stop offset="0.8" stop-color="#0DD8B4"/>
<stop offset="0.866667" stop-color="#08DFB0"/>
<stop offset="0.933333" stop-color="#06E4AE"/>
<stop offset="1" stop-color="#05E5AD"/>
</radialGradient>
<radialGradient id="paint1_radial_1522_4324" cx="0" cy="0" r="1" gradientUnits="userSpaceOnUse" gradientTransform="translate(603.099 147.047) rotate(-164.055) scale(153.637 157.948)">
<stop stop-color="#6447FF"/>
<stop offset="0.0666667" stop-color="#6348FE"/>
<stop offset="0.133333" stop-color="#614DFC"/>
<stop offset="0.2" stop-color="#5C54F8"/>
<stop offset="0.266667" stop-color="#565EF3"/>
<stop offset="0.333333" stop-color="#4E6CEC"/>
<stop offset="0.4" stop-color="#447BE4"/>
<stop offset="0.466667" stop-color="#3A8DDB"/>
<stop offset="0.533333" stop-color="#2F9FD1"/>
<stop offset="0.6" stop-color="#25B1C8"/>
<stop offset="0.666667" stop-color="#1BC0C0"/>
<stop offset="0.733333" stop-color="#13CEB9"/>
<stop offset="0.8" stop-color="#0DD8B4"/>
<stop offset="0.866667" stop-color="#08DFB0"/>
<stop offset="0.933333" stop-color="#06E4AE"/>
<stop offset="1" stop-color="#05E5AD"/>
</radialGradient>
<radialGradient id="paint2_radial_1522_4324" cx="0" cy="0" r="1" gradientUnits="userSpaceOnUse" gradientTransform="translate(603.099 549.672) rotate(-164.055) scale(153.637 157.948)">
<stop stop-color="#6447FF"/>
<stop offset="0.0666667" stop-color="#6348FE"/>
<stop offset="0.133333" stop-color="#614DFC"/>
<stop offset="0.2" stop-color="#5C54F8"/>
<stop offset="0.266667" stop-color="#565EF3"/>
<stop offset="0.333333" stop-color="#4E6CEC"/>
<stop offset="0.4" stop-color="#447BE4"/>
<stop offset="0.466667" stop-color="#3A8DDB"/>
<stop offset="0.533333" stop-color="#2F9FD1"/>
<stop offset="0.6" stop-color="#25B1C8"/>
<stop offset="0.666667" stop-color="#1BC0C0"/>
<stop offset="0.733333" stop-color="#13CEB9"/>
<stop offset="0.8" stop-color="#0DD8B4"/>
<stop offset="0.866667" stop-color="#08DFB0"/>
<stop offset="0.933333" stop-color="#06E4AE"/>
<stop offset="1" stop-color="#05E5AD"/>
</radialGradient>
<radialGradient id="paint3_radial_1522_4324" cx="0" cy="0" r="1" gradientUnits="userSpaceOnUse" gradientTransform="translate(736.761 543.34) rotate(-156.448) scale(147.43 218.592)">
<stop stop-color="#6447FF"/>
<stop offset="0.0666667" stop-color="#6348FE"/>
<stop offset="0.133333" stop-color="#614DFC"/>
<stop offset="0.2" stop-color="#5C54F8"/>
<stop offset="0.266667" stop-color="#565EF3"/>
<stop offset="0.333333" stop-color="#4E6CEC"/>
<stop offset="0.4" stop-color="#447BE4"/>
<stop offset="0.466667" stop-color="#3A8DDB"/>
<stop offset="0.533333" stop-color="#2F9FD1"/>
<stop offset="0.6" stop-color="#25B1C8"/>
<stop offset="0.666667" stop-color="#1BC0C0"/>
<stop offset="0.733333" stop-color="#13CEB9"/>
<stop offset="0.8" stop-color="#0DD8B4"/>
<stop offset="0.866667" stop-color="#08DFB0"/>
<stop offset="0.933333" stop-color="#06E4AE"/>
<stop offset="1" stop-color="#05E5AD"/>
</radialGradient>
<radialGradient id="paint4_radial_1522_4324" cx="0" cy="0" r="1" gradientUnits="userSpaceOnUse" gradientTransform="translate(736.761 171.668) rotate(-156.448) scale(147.43 218.592)">
<stop stop-color="#6447FF"/>
<stop offset="0.0666667" stop-color="#6348FE"/>
<stop offset="0.133333" stop-color="#614DFC"/>
<stop offset="0.2" stop-color="#5C54F8"/>
<stop offset="0.266667" stop-color="#565EF3"/>
<stop offset="0.333333" stop-color="#4E6CEC"/>
<stop offset="0.4" stop-color="#447BE4"/>
<stop offset="0.466667" stop-color="#3A8DDB"/>
<stop offset="0.533333" stop-color="#2F9FD1"/>
<stop offset="0.6" stop-color="#25B1C8"/>
<stop offset="0.666667" stop-color="#1BC0C0"/>
<stop offset="0.733333" stop-color="#13CEB9"/>
<stop offset="0.8" stop-color="#0DD8B4"/>
<stop offset="0.866667" stop-color="#08DFB0"/>
<stop offset="0.933333" stop-color="#06E4AE"/>
<stop offset="1" stop-color="#05E5AD"/>
</radialGradient>
<radialGradient id="paint5_radial_1522_4324" cx="0" cy="0" r="1" gradientUnits="userSpaceOnUse" gradientTransform="translate(747.31 326.428) scale(87.9317 433.757)">
<stop stop-color="#05E5AD"/>
<stop offset="0.32" stop-color="#05E5AD" stop-opacity="0"/>
<stop offset="0.902778" stop-color="#6447FF"/>
</radialGradient>
</defs>
</svg>
