<?xml version="1.0" encoding="utf-8"?>
<!-- Generator: Adobe Illustrator 26.0.0, SVG Export Plug-In . SVG Version: 6.00 Build 0)  -->
<svg version="1.1" id="Layer_1" xmlns="http://www.w3.org/2000/svg" xmlns:xlink="http://www.w3.org/1999/xlink" x="0px" y="0px"
	 viewBox="0 0 256 256" style="enable-background:new 0 0 256 256;" xml:space="preserve">
<style type="text/css">
	.st0{fill:url(#SVGID_1_);}
	.st1{fill:#8B6FA3;}
	.st2{fill:#8D70A3;}
	.st3{fill:#776B9E;}
	.st4{fill:#866DA1;}
	.st5{fill:#7C6B9F;}
	.st6{fill:#70699C;}
	.st7{fill:#806CA1;}
	.st8{fill:#FFFFFF;}
	.st9{fill:url(#SVGID_00000000211223361046370090000004209206726968962462_);}
	.st10{fill:url(#SVGID_00000093139257652365426600000008125188559705938834_);}
	.st11{fill:url(#SVGID_00000150093850906212966050000003550292653667923384_);}
</style>
<g>
	<linearGradient id="SVGID_1_" gradientUnits="userSpaceOnUse" x1="58.5907" y1="58.5907" x2="197.4093" y2="197.4093">
		<stop  offset="0.0991" style="stop-color:#783C8C"/>
		<stop  offset="0.2784" style="stop-color:#6F3C8B"/>
		<stop  offset="0.5653" style="stop-color:#583A87"/>
		<stop  offset="0.9222" style="stop-color:#323881"/>
		<stop  offset="1" style="stop-color:#29387F"/>
	</linearGradient>
	<polygon class="st0" points="216.01,178.81 216.01,77.19 128,26.38 39.99,77.19 39.99,178.81 128,229.62 	"/>
	<g>
		<path class="st1" d="M89.75,127.42c1.26-0.6,2.56-1.1,3.88-1.55l0.01,0.02l1.72-0.53c0.58-0.17,1.16-0.32,1.75-0.46
			c2.08-0.49,4.2-0.79,6.32-0.9v-13.38l-13.71,16.82C89.73,127.42,89.74,127.42,89.75,127.42z"/>
		<path class="st1" d="M151.31,91.46L151.31,91.46c0-0.05-0.01-0.1-0.01-0.15C151.29,91.36,151.31,91.41,151.31,91.46z"/>
		<path class="st1" d="M102.85,98.42h9.84v21.02c1.54-2.95,3.82-5.6,6.83-7.96c1.73-1.29,4.95-3.39,9.67-6.26
			c4.76-2.73,7.82-4.71,9.18-5.94c2.24-2.19,3.37-4.63,3.37-7.32c0-2.47-1-4.35-2.99-5.64c-1.99-1.29-4.79-1.94-8.38-1.94
			c-6.05,0-11.61,2.08-17.69,6.09v-9.24c5.54-3.66,11.71-5.52,18.53-5.52c1.45,0,2.83,0.09,4.15,0.25l-0.63-0.23
			c-3.46-1.21-7.01-2.18-10.59-2.95l0.01-0.04c-0.59-0.13-1.18-0.23-1.77-0.34l0.02,0.01l-0.52-0.1c-0.24-0.05-0.48-0.1-0.72-0.14
			l-0.53-0.1c-0.4-0.07-0.81-0.11-1.21-0.17c-0.86-0.14-1.72-0.29-2.59-0.41l-0.75-0.1l-0.75-0.08l-1.44-0.16l-0.4-0.04l-1.72-0.14
			l-2.16-0.13l-0.78-0.03v0.01l-1.25-0.04l-0.92-0.02l-0.94-0.01l-0.49,0v-0.01c-0.15,0-0.3,0.01-0.45,0.01l-0.61,0l-0.28,0
			c-0.15,0-0.3,0.02-0.45,0.02c0,0-0.01,0-0.01,0l0,0c-0.02,0-0.04,0-0.07,0l-1.72,0.03c-0.79,0.03-1.57,0.12-2.36,0.17
			c-0.57,0.04-1.14,0.07-1.71,0.12c-1.58,0.13-3.15,0.32-4.72,0.54c-0.19,0.03-0.39,0.05-0.58,0.08c-0.62,0.09-1.24,0.15-1.86,0.25
			l-0.25,0.04l-1.56,0.28l-0.9,0.17l-0.92,0.19l-1.51,0.33l-0.28,0.06c-7.46,1.74-14.66,4.43-21.44,8h0l-4.45,2.51l0.01,0.01
			l23.71,39.37L102.85,98.42z"/>
	</g>
	<path class="st2" d="M72.38,143.95v-8.17l8.06-9.88L56.1,85.51l-3.76,2.59c-1.5,1.11-2.97,2.28-4.41,3.49
		c-1.36,1.04-2.69,2.11-3.99,3.23l-0.19,0.16l-1.18,1.05l-0.68,0.61l-0.68,0.64l-1.12,1.07l-0.09,0.09v61.67h29.02l0.09-1.8l0.1-1.8
		c0.43-4.41,1.76-8.64,3.73-12.57H72.38z"/>
	<path class="st3" d="M169,129.33v10.59c-4.04-2.88-8.82-4.32-14.37-4.32c-0.83,0-1.61,0.1-2.4,0.17l-12.68,12.68
		c0.88,2.62,1.47,5.32,1.76,8.07h53.26l-0.03-0.79l-0.09-1.43l-0.05-0.72l-0.14-1.68l-0.04-0.44l-0.2-1.88l-0.02-0.15l-0.01-0.07
		l-0.27-2.03c0-0.02,0-0.04-0.01-0.06c-0.61-4.25-1.53-8.45-2.75-12.56l-0.03-0.08l-0.59-1.92l-0.08-0.25l-0.58-1.72l-0.16-0.47
		l-0.54-1.48l-0.27-0.7l-0.48-1.22l-0.39-0.96l-0.4-0.95l-0.53-1.21l-0.31-0.68l-0.67-1.44l-0.21-0.44l-0.81-1.63l-0.12-0.23
		l-0.94-1.8c-0.01-0.02-0.02-0.04-0.04-0.06c-1.55-2.85-3.25-5.6-5.09-8.25l-17.1,17.1C164.33,127,166.77,128,169,129.33z"/>
	<path class="st4" d="M53.92,186.85l18.63-11.24c-1.79-3.78-2.91-7.81-3.33-11.89h0H39.99v15.1L53.92,186.85z"/>
	<path class="st5" d="M142.19,221.43l-18.24-30.26l-1.57,0.88l-1.62,0.81c-4.86,2.31-10.17,3.51-15.55,3.52
		c-3.5,0-6.99-0.51-10.35-1.51l-1.12-0.39c-4.72-1.57-9.11-4.05-12.83-7.42c-0.44-0.38-0.84-0.84-1.27-1.26l0.01-0.01l-1.23-1.32
		l-0.02-0.02l-1.17-1.38l-0.97-1.26l-1.04-1.47l-0.97-1.52l-16.76,10.1L128,229.62L142.19,221.43z"/>
	<polygon class="st6" points="128.2,188.16 126.95,189.13 127.04,189.29 145.32,219.62 154.42,214.37 128.35,188.31 	"/>
	<path class="st6" d="M141.52,160.12L141.52,160.12l-0.09,1.8l-0.1,1.8c-0.04,0.42-0.16,0.82-0.21,1.24
		c0.14,0.13,0.24,0.28,0.39,0.4c3.56,2.92,7.87,4.38,12.91,4.38c5.47,0,10.52-1.33,15.13-4v10.7c-4.97,2.37-10.7,3.56-17.18,3.56
		c-5.46,0-10.38-1.23-14.79-3.65c-1.18,2.35-2.53,4.63-4.25,6.72c-0.36,0.46-0.81,0.89-1.21,1.34c-0.41,0.45-0.78,0.91-1.21,1.34
		l26.75,26.75l29.76-17.18c4.32-10.09,6.74-20.8,7.17-31.6l0.05-1.8l0.03-1.8H141.52z"/>
	<path class="st7" d="M124.38,153.1c0-8.12,2.44-14.41,7.06-19.07h-18.74v21.61h-9.26v-11.7H86.38c-8.39,9.78-7.97,24.51,1.29,33.78
		c9.72,9.72,25.48,9.72,35.21,0c2.68-2.68,4.57-5.84,5.77-9.18C125.81,164.41,124.38,159.27,124.38,153.1z"/>
	<path class="st7" d="M176.12,54.16c-0.3,0.27-0.6,0.52-0.89,0.8c-7.76,7.75-9.3,19.35-4.68,28.65l-41.8,41.8
		c7.54-0.03,18.39-0.07,22.55-0.08l30.49-30.49c9.31,4.62,20.9,3.07,28.65-4.68c2.51-2.51,4.36-5.43,5.58-8.54v-4.43L176.12,54.16z"
		/>
	<path class="st8" d="M154.42,169.75c-5.05,0-9.35-1.46-12.91-4.38c-3.57-2.92-5.35-7.15-5.35-12.7c0-5.69,1.8-9.96,5.4-12.81
		c3.61-2.85,7.96-4.27,13.08-4.27c5.55,0,10.33,1.45,14.37,4.32v-10.59c-4.47-2.67-9.8-4-15.99-4c-0.47,0-32.05,0.12-32.05,0.12
		c0-0.57,0.08-1.15,0.24-1.72c0.17-0.57,0.35-1.09,0.55-1.55c0.19-0.46,0.51-0.96,0.96-1.5c0.45-0.54,0.84-1,1.17-1.37
		c0.33-0.38,0.84-0.83,1.54-1.38c0.69-0.55,1.26-0.95,1.69-1.22c0.43-0.27,1.09-0.67,1.98-1.22c0.89-0.54,1.55-0.94,1.98-1.21
		c0.44-0.27,1.16-0.71,2.2-1.35c1.03-0.63,1.73-1.07,2.12-1.3c4.92-2.89,8.8-5.85,11.66-8.88c2.85-3.03,4.28-6.69,4.28-10.97
		c0-5.16-1.85-9.13-5.55-11.91c-3.71-2.78-8.56-4.17-14.56-4.17c-6.82,0-12.99,1.86-18.53,5.52v9.24
		c6.08-4.01,11.63-6.09,17.69-6.09c3.59,0,6.39,0.64,8.38,1.94c1.99,1.29,2.99,3.17,2.99,5.64c0,2.69-1.12,5.13-3.37,7.32
		c-1.36,1.23-4.42,3.21-9.18,5.94c-4.72,2.88-7.95,4.97-9.67,6.26c-3.01,2.36-5.29,5.02-6.83,7.96V98.42h-9.84l-30.47,37.37v8.17
		h31.05v11.7h9.26v-21.61h18.74c-4.62,4.66-7.06,10.96-7.06,19.07c0,8.64,2.77,15.29,8.32,19.94c5.55,4.65,12.1,6.97,19.67,6.97
		c6.48,0,12.21-1.19,17.18-3.56v-10.7C164.94,168.41,159.89,169.75,154.42,169.75z M103.44,135.62H83.05l20.38-25V135.62z"/>
</g>
</svg>
