<?xml version="1.0" encoding="UTF-8" standalone="no"?>
<svg
   xmlns:dc="http://purl.org/dc/elements/1.1/"
   xmlns:cc="http://creativecommons.org/ns#"
   xmlns:rdf="http://www.w3.org/1999/02/22-rdf-syntax-ns#"
   xmlns:svg="http://www.w3.org/2000/svg"
   xmlns="http://www.w3.org/2000/svg"
   xmlns:sodipodi="http://sodipodi.sourceforge.net/DTD/sodipodi-0.dtd"
   xmlns:inkscape="http://www.inkscape.org/namespaces/inkscape"
   id="artwork"
   viewBox="0 0 460 460"
   version="1.1"
   sodipodi:docname="pluginIcon.svg"
   width="460"
   height="460"
   inkscape:version="1.0.2 (e86c8708, 2021-01-15)">
  <metadata
     id="metadata846">
    <rdf:RDF>
      <cc:Work
         rdf:about="">
        <dc:format>image/svg+xml</dc:format>
        <dc:type
           rdf:resource="http://purl.org/dc/dcmitype/StillImage" />
        <dc:title></dc:title>
      </cc:Work>
    </rdf:RDF>
  </metadata>
  <sodipodi:namedview
     pagecolor="#ffffff"
     bordercolor="#666666"
     borderopacity="1"
     objecttolerance="10"
     gridtolerance="10"
     guidetolerance="10"
     inkscape:pageopacity="0"
     inkscape:pageshadow="2"
     inkscape:window-width="1605"
     inkscape:window-height="1002"
     id="namedview844"
     showgrid="false"
     fit-margin-top="0"
     fit-margin-left="21"
     fit-margin-right="21"
     fit-margin-bottom="0"
     lock-margins="false"
     units="px"
     viewbox-width="422.39999"
     borderlayer="false"
     showborder="true"
     inkscape:showpageshadow="true"
     inkscape:pagecheckerboard="false"
     inkscape:zoom="1.4948119"
     inkscape:cx="230"
     inkscape:cy="230"
     inkscape:window-x="0"
     inkscape:window-y="25"
     inkscape:window-maximized="0"
     inkscape:current-layer="artwork" />
  <defs
     id="defs835">
    <style
       id="style833">.cls-1{fill:#1e416b;}.cls-1,.cls-2{fill-rule:evenodd;}.cls-2{fill:#185faa;}</style>
  </defs>
  <path
     class="cls-1"
     d="m 60.870036,316.33979 a 63.420058,63.419923 0 0 0 8.930009,0.56 c 24.090021,-0.21 36.940035,-13.37999 36.940035,-13.37999 v 13.59999 h 27.81003 V 182.42995 h -29.46003 v 79.7099 c 0,29.13997 -27.320029,29.45997 -27.320029,29.45997 -26.650024,-1 -26.650024,-35.08996 -26.650024,-35.08996 V 182.42995 H 21 v 77.05991 c 0,26.15997 10.070009,52.86993 39.870036,56.84993 z"
     id="path837" />
  <path
     class="cls-1"
     d="m 253.28021,142 v 51.85994 a 67.310061,67.309918 0 1 0 0,112.51986 v 10.73999 h 30.47003 V 142 Z m -36.94004,146.39982 a 38.290035,38.289953 0 1 1 38.28004,-38.27995 38.290035,38.289953 0 0 1 -38.28004,38.27995 z"
     id="path839" />
  <path
     class="cls-2"
     d="m 390.76034,185.19995 0.16,-9.19999 -26.15003,23.57997 25.31003,25.73997 0.15,-9.20999 a 38.340035,38.339953 0 1 1 -28.67003,-2.86 l -6.00001,-28.49996 a 67.640061,67.639918 0 0 0 -20.15001,8.99999 V 142 h -30.43003 v 109.15987 a 2.0900019,2.0899975 0 0 1 0,0.25 v 65.70992 h 30.46003 V 306.4198 a 67.400061,67.399918 0 1 0 55.32005,-121.21985 z"
     id="path841" />
</svg>
