<?xml version="1.0" encoding="utf-8"?>
<svg viewBox="0.205 -0.521 688.485 695.8" xmlns="http://www.w3.org/2000/svg">
  <defs>
    <linearGradient gradientUnits="userSpaceOnUse" x1="305.427" y1="-165.209" x2="305.427" y2="165.654" id="gradient-0" gradientTransform="matrix(0.674314, 0.738445, -0.858599, 0.784034, 70.907878, -218.812112)">
      <stop offset="0" style="stop-color: rgb(254, 251, 210);"/>
      <stop offset="1" style="stop-color: rgb(198, 151, 133);"/>
    </linearGradient>
    <linearGradient gradientUnits="userSpaceOnUse" x1="193.437" y1="135.009" x2="193.437" y2="243.579" id="gradient-1" gradientTransform="matrix(0.858621, 0.512611, -0.520712, 0.872189, 126.943559, -76.249042)">
      <stop offset="0" style="stop-color: rgb(201, 122, 39);"/>
      <stop offset="1" style="stop-color: rgb(151, 87, 9);"/>
    </linearGradient>
    <linearGradient gradientUnits="userSpaceOnUse" x1="171.873" y1="149.733" x2="171.873" y2="406.103" id="gradient-2" gradientTransform="matrix(0.786886, 0.617099, -0.79289, 1.011043, 257.836133, -113.378301)">
      <stop offset="0" style="stop-color: rgb(213, 159, 151);"/>
      <stop offset="1" style="stop-color: rgb(189, 132, 147);"/>
    </linearGradient>
    <linearGradient gradientUnits="userSpaceOnUse" x1="268.569" y1="136.286" x2="268.569" y2="458.056" id="gradient-3" gradientTransform="matrix(0.904518, 0.426434, -0.497997, 1.056312, 180.711114, -131.827096)">
      <stop offset="0" style="stop-color: rgb(189, 223, 202);"/>
      <stop offset="1" style="stop-color: rgb(60, 199, 204);"/>
    </linearGradient>
    <linearGradient gradientUnits="userSpaceOnUse" x1="370.883" y1="127.271" x2="370.883" y2="283.096" id="gradient-4">
      <stop offset="0" style="stop-color: rgb(196, 233, 222);"/>
      <stop offset="1" style="stop-color: rgb(255, 255, 252);"/>
    </linearGradient>
    <linearGradient gradientUnits="userSpaceOnUse" x1="403.197" y1="133.394" x2="403.197" y2="235.111" id="gradient-5">
      <stop offset="0" style="stop-color: rgb(192, 139, 83);"/>
      <stop offset="1" style="stop-color: rgb(172, 109, 18);"/>
    </linearGradient>
  </defs>
  <g style="pointer-events: none;" transform="matrix(1.008622, 0, 0, 1.008622, 81.209359, 196.948093)">
    <title>Mątwa</title>
    <path stroke="rgb(254,0,0)" stroke-width="0" d="M 299.485 -165.206 C 303.945 -165.442 387.596 -150.387 392.87 -148.068 C 396.21 -146.6 450.656 -107.37 451.908 -105.442 C 452.958 -103.827 489.582 -34.319 489.379 -32.389 C 489.124 -29.974 507.858 61.93 505.718 63.683 C 503.603 65.415 405.843 129.522 402.311 129.765 C 397.777 130.076 274.126 145.009 269.421 143.417 C 265.225 141.998 196.337 127.76 194.407 124.9 C 192.733 122.417 237.113 85.697 237.687 83.073 C 238.248 80.505 117.636 166.992 119.248 165.638 C 119.47 165.452 99.244 89.325 106.563 29.371 C 112.442 -18.791 146.398 -50.952 145.102 -66.996 C 143.533 -86.415 189.184 -97.818 197.578 -113.792 C 219.88 -156.232 298.474 -165.153 299.485 -165.206 Z" style="stroke: rgb(129, 151, 57); stroke-width: 2px; fill: url(#gradient-0);">
      <title>Głowa tło</title>
    </path>
    <path stroke="rgb(254,0,0)" stroke-width="0" d="M 313.137 -38.562 C 314.914 -39.031 317.686 -39.215 319.672 -38.562 C 321.685 -37.901 323.938 -36.69 325.119 -34.568 C 326.589 -31.923 327.276 -25.929 326.571 -22.949 C 326.005 -20.558 324.513 -18.665 322.577 -17.503 C 320.422 -16.209 316.389 -15.437 313.863 -16.051 C 311.463 -16.633 308.981 -18.509 307.69 -20.771 C 306.248 -23.299 305.734 -28.2 306.238 -30.937 C 306.654 -33.196 308.236 -35.087 309.506 -36.383 C 310.586 -37.485 311.643 -38.167 313.137 -38.562 Z M 433.972 -67.754 C 437.199 -67.422 442.656 -64.528 444.501 -61.582 C 446.266 -58.764 446.122 -53.514 445.227 -50.689 C 444.47 -48.296 442.489 -46.393 440.507 -45.243 C 438.504 -44.079 435.554 -43.307 433.246 -43.79 C 430.823 -44.298 427.976 -46.337 426.347 -48.51 C 424.656 -50.768 423.395 -54.443 423.442 -57.225 C 423.487 -59.878 424.592 -63.094 426.347 -64.849 C 428.102 -66.604 431.225 -68.036 433.972 -67.754 Z M 405.796 -49.019 C 408.309 -48.852 413.472 -48.227 416.326 -44.299 C 420.959 -37.92 426.1 -13.146 425.04 -6.538 C 424.499 -3.166 422.301 -2.242 420.32 -1.091 C 418.316 0.072 415.447 0.81 413.058 0.361 C 410.479 -0.124 407.607 -1.732 405.433 -4.359 C 402.653 -7.719 400.255 -13.797 398.898 -19.609 C 397.363 -26.181 396.113 -37.456 397.445 -42.12 C 398.289 -45.075 400.608 -46.422 402.165 -47.566 C 403.385 -48.462 404.166 -49.127 405.796 -49.019 Z" style="stroke: rgb(129, 151, 57); stroke-width: 2px; fill: rgb(224, 236, 218);">
      <title>białka</title>
    </path>
    <path opacity="1.000000" stroke="none" d="M 331.223 -40.792 C 342.48 -25.18 342.886 -7.948 340.214 9.733 C 338.217 22.945 333.94 35.19 324.502 45.221 C 313.347 57.076 295.995 63.182 279.973 49.927 C 264.688 37.282 259.354 20.761 261.597 1.353 C 263.005 -10.825 266.874 -22.033 274.381 -31.749 C 282.345 -42.056 292.196 -49.605 305.605 -51.432 C 316.083 -52.86 324.602 -49.608 331.223 -40.792 M 317.235 -20.433 C 320.055 -21.763 321.388 -24.26 321.858 -27.092 C 322.497 -30.949 320.209 -33.445 316.996 -34.876 C 314.119 -36.157 311.727 -34.623 310.255 -32.216 C 307.145 -27.128 310.424 -21.037 317.235 -20.433 Z" style="fill: rgb(63, 13, 6);">
      <title>Oko lewe</title>
    </path>
    <path opacity="1.000000" stroke="none" d="M 423.648 27.366 C 411.472 25.206 404.957 16.648 400.055 7.1 C 390.028 -12.43 388.24 -33.35 393.183 -54.495 C 396.738 -69.703 407.248 -79.145 422.42 -82.724 C 429.912 -84.492 436.046 -80.853 441.065 -75.5 C 451.446 -64.428 455.124 -50.5 457.438 -36.07 C 459.951 -20.401 458.546 -5.107 451.17 9.075 C 445.577 19.828 437.921 28.396 423.648 27.366 M 430.909 -50.324 C 432.469 -48.666 434.326 -47.829 436.06 -49.754 C 438.592 -52.566 438.474 -55.84 436.69 -59.013 C 435.646 -60.871 434.573 -63.023 431.85 -62.546 C 429.949 -62.213 429.185 -60.565 428.84 -58.93 C 428.236 -56.069 428.542 -53.295 430.909 -50.324 M 408.879 -13.481 C 406.415 -22.996 405.754 -32.703 406.016 -42.508 C 405.414 -31.113 404.992 -19.736 409.656 -8.718 C 410.297 -10.377 409.124 -11.465 408.879 -13.481 Z" style="fill: rgb(60, 11, 5);">
      <title>Oko prawe</title>
    </path>
    <path fill="#000000" opacity="1.000000" stroke="none" d="M 417.421 64.176 C 392.414 84.794 349.936 76.397 334.722 60.385 C 341.976 60.545 348.742 61.266 355.498 62.193 C 373.218 64.625 390.62 64.453 407.072 56.065 C 416.352 51.334 422.953 43.592 429.878 36.18 C 431.84 34.081 433.352 31.236 437.833 31.012 C 434.823 44.688 428.015 55.348 417.421 64.176 Z">
      <title>Usta</title>
    </path>
    <g>
      <title>Nogi</title>
      <path stroke="rgb(254,0,0)" stroke-width="0" d="M 215.326 135.442 C 217.607 134.86 219.893 134.869 222.2 135.442 C 224.718 136.068 227.939 137.651 229.81 139.37 C 231.497 140.919 232.508 142.909 233.247 145.016 C 234.021 147.224 234.835 148.959 234.229 152.381 C 233.192 158.23 225.403 170.823 222.936 178.404 C 220.947 184.516 222.201 188.599 219.499 194.606 C 215.956 202.484 203.844 218.192 200.842 221.365 C 199.799 222.467 199.349 222.225 198.878 222.593 C 198.535 222.86 198.51 223.02 198.141 223.329 C 197.554 223.822 196.013 224.64 195.441 225.293 C 195.009 225.785 195.421 225.971 194.704 226.766 C 192.657 229.035 182.125 238.356 177.029 241.005 C 173.339 242.922 101.229 267.585 97.827 267.101 C 93.982 266.554 80.997 265.729 78.603 262.528 C 76.331 259.492 78.392 256.616 79.231 252.8 C 80.141 248.658 157.409 217.208 161.317 213.018 C 166.171 207.813 175.605 202.209 180.711 196.57 C 185.196 191.617 188.498 187.024 191.022 181.349 C 193.645 175.452 193.327 168.379 195.932 161.71 C 198.782 154.41 204.061 143.523 207.961 139.37 C 210.461 136.708 212.86 136.071 215.326 135.442 Z" style="stroke: rgb(129, 151, 57); stroke-width: 2px; fill: url(#gradient-1);">
        <title>1</title>
      </path>
      <path stroke="rgb(254,0,0)" stroke-width="0" d="M 248.803 149.771 C 254.833 149.35 276.039 152.499 283.172 154.681 C 287.371 155.965 289.499 157.442 291.274 159.1 C 292.645 160.38 293.219 161.536 293.729 163.273 C 294.348 165.382 294.934 168.531 294.22 171.129 C 293.425 174.019 290.052 178.049 288.573 179.721 C 287.694 180.715 287.308 180.194 286.364 181.44 C 284.273 184.197 279.234 192.91 277.035 199.606 C 274.693 206.736 276.347 215.513 273.107 223.174 C 269.547 231.593 259.089 240.972 255.431 247.723 C 252.818 252.545 252.756 256.865 251.012 259.998 C 249.628 262.484 248.616 263.41 246.348 265.644 C 243.039 268.904 235.173 274.414 231.864 277.673 C 229.596 279.908 229.636 280.91 227.2 283.32 C 223.234 287.241 214.265 293.339 208.296 299.277 C 202.132 305.409 196.287 314.286 190.866 319.653 C 186.433 324.043 179.95 328.383 178.346 329.964 C 177.775 330.527 178.143 330.369 177.61 330.946 C 176.175 332.497 169.681 338.144 167.053 341.011 C 165.076 343.169 163.836 345.533 162.634 346.657 C 161.87 347.373 161.142 347.517 160.671 347.885 C 160.328 348.152 160.201 348.279 159.934 348.621 C 159.566 349.093 159.238 350.053 158.707 350.585 C 158.175 351.117 157.214 351.445 156.743 351.813 C 156.4 352.08 156.538 352.071 156.006 352.549 C 154.391 354.002 147.455 360.628 143.24 363.351 C 139.526 365.751 135.36 366.017 132.193 368.506 C 128.952 371.054 126.871 375.665 124.092 378.572 C 121.54 381.241 119.84 382.974 116.236 385.446 C 111.249 388.865 103.857 393.502 95.614 396.738 C 85.78 400.6 67.537 406.625 60.263 406.067 C 56.048 405.744 54.005 403.609 52.162 401.403 C 50.359 399.244 49.03 395.926 49.216 393.056 C 49.416 389.966 50.362 386.285 53.88 383.482 C 59.385 379.095 76.708 376.6 84.813 373.171 C 91.014 370.547 95.483 368.11 99.542 365.315 C 103.037 362.909 104.964 361.139 108.135 357.705 C 112.341 353.148 120.443 341.347 122.373 339.293 C 122.968 338.659 122.765 339.309 123.355 338.556 C 125.676 335.596 136.318 315.404 142.504 306.151 C 147.804 298.222 152.458 291.409 157.97 285.775 C 162.993 280.64 169.629 277.871 173.927 273.255 C 177.915 268.971 181.758 260.991 183.256 259.261 C 183.782 258.654 183.642 259.089 184.238 258.525 C 185.972 256.884 192.793 248.893 196.267 245.514 C 198.963 242.891 201.053 241.902 203.387 239.376 C 206.057 236.486 209.902 230.259 211.242 228.82 C 211.761 228.263 211.705 228.683 212.224 228.084 C 213.674 226.413 218.63 220.145 221.062 214.827 C 223.879 208.668 224.519 200.271 227.445 192.732 C 230.605 184.589 238.812 173.123 239.72 167.692 C 240.228 164.649 237.837 163.64 238.247 161.309 C 238.753 158.429 241.827 153.601 243.893 151.735 C 245.428 150.348 245.962 149.969 248.803 149.771 Z" style="stroke: rgb(129, 151, 57); stroke-width: 2px; fill: url(#gradient-2);">
        <title>2</title>
      </path>
      <path stroke="rgb(254,0,0)" stroke-width="0" d="M 327.852 136.809 C 331.618 135.835 334.539 136.349 337.181 137.3 C 339.628 138.18 341.963 139.749 343.318 141.964 C 344.084 143.214 344.711 144.967 345.076 146.777 C 347.112 147.527 348.834 148.114 350.585 150.9 C 353.836 156.075 357.936 171.497 359.423 180.85 C 360.752 189.209 360.589 196.742 359.914 204.418 C 359.25 211.956 357.918 217.133 355.495 226.512 C 352.033 239.913 345.43 265.364 339.292 279.048 C 334.504 289.725 328.545 297.767 323.581 304.089 C 319.734 308.987 314.74 313.146 312.533 315.136 C 311.424 316.136 311.202 316.027 310.324 316.854 C 309.061 318.045 307.34 320.557 305.66 322.01 C 304.055 323.397 302.172 323.541 300.504 325.447 C 298.197 328.083 297.004 335.396 293.876 337.721 C 291.034 339.834 286.163 340.279 283.074 339.685 C 281.679 339.417 280.299 338.872 279.068 338.084 C 277.597 340.864 276.356 343.232 275.807 344.006 C 275.379 344.61 275.599 344.24 275.071 344.743 C 273.419 346.316 266.657 351.941 261.814 357.017 C 255.832 363.288 247.951 374.95 241.929 380.339 C 237.415 384.38 233.344 384.753 229.409 388.441 C 224.925 392.642 218.842 402.955 216.889 404.889 C 216.217 405.553 216.232 404.846 215.661 405.625 C 213.85 408.099 207.646 421.539 205.351 429.193 C 203.238 436.237 203.671 445.347 201.914 449.814 C 200.778 452.702 199.863 454.124 197.74 455.461 C 195.193 457.064 190.144 458.524 186.938 457.915 C 183.877 457.335 180.502 454.647 178.837 452.269 C 177.299 450.073 177.146 447.27 176.873 444.413 C 176.573 441.265 176.67 438.18 177.364 434.102 C 178.267 428.802 179.952 421.943 182.765 414.954 C 186.137 406.577 193.482 392.129 197.249 387.213 C 199.274 384.57 200.334 385.268 202.405 383.04 C 205.691 379.503 210.453 370.205 214.925 366.101 C 218.72 362.617 225.213 360.484 226.954 358.981 C 227.716 358.324 227.121 358.515 227.936 357.508 C 230.711 354.08 250.237 331.992 253.222 329.276 C 254.027 328.544 254.122 328.867 254.449 328.54 C 254.777 328.213 254.764 327.791 255.186 327.312 C 255.834 326.577 257.32 326.142 258.377 324.612 C 260.03 322.221 261.258 316.234 263.287 312.828 C 265.162 309.682 268.177 306.33 269.916 304.727 C 270.998 303.729 271.807 304.247 272.616 303.008 C 274.044 300.824 273.698 294.733 276.053 290.243 C 278.994 284.635 288.796 274.321 290.537 272.322 C 291.042 271.742 290.827 272.149 291.274 271.585 C 292.647 269.851 298.285 263.42 301.093 257.346 C 304.601 249.761 307.542 240.153 309.44 228.378 C 311.864 213.34 314.839 183.655 312.386 172.896 C 311.011 166.865 306.235 165.479 305.021 162.095 C 304.031 159.332 304.074 156.626 304.53 154.239 C 304.961 151.987 305.291 150.244 307.476 148.101 C 311.05 144.597 322.424 138.211 327.852 136.809 Z" style="stroke: rgb(129, 151, 57); stroke-width: 2px; fill: url(#gradient-3);">
        <title>3</title>
      </path>
      <path stroke="rgb(254,0,0)" stroke-width="0" d="M 366.64 127.284 C 369.741 127.454 374.212 128.063 377.197 131.948 C 382.04 138.251 385.362 155.954 387.507 169.263 C 389.801 183.489 390.57 200.573 389.962 214.925 C 389.397 228.279 386.812 242.753 384.561 252.731 C 382.856 260.294 380.939 266.017 378.67 270.898 C 376.825 274.865 375.379 278.469 372.532 280.472 C 369.716 282.454 364.936 283.535 361.73 282.927 C 358.669 282.346 355.294 279.658 353.629 277.281 C 352.091 275.085 351.384 273.071 351.665 269.425 C 352.124 263.481 358.329 253.155 360.503 243.402 C 362.967 232.349 365.007 216.195 364.922 206.087 C 364.857 198.332 362.443 192.905 361.976 186.939 C 361.552 181.521 362.84 177.597 361.976 171.718 C 360.889 164.319 355.541 151.649 354.611 145.696 C 354.044 142.065 353.85 140.398 354.611 137.84 C 355.436 135.068 357.606 131.496 359.767 129.738 C 361.703 128.163 364.059 127.142 366.64 127.284 Z" style="stroke: rgb(129, 151, 57); stroke-width: 2px; fill: url(#gradient-4);">
        <title>4</title>
      </path>
      <path stroke="rgb(254,0,0)" stroke-width="0" d="M 396.432 133.552 C 398.718 133.174 401.557 133.486 403.721 134.34 C 405.849 135.179 407.844 136.826 409.336 138.575 C 410.836 140.335 411.56 141.537 412.685 144.879 C 414.693 150.844 417.512 167.112 418.792 174.627 C 419.684 179.865 420.072 181.912 420.368 186.842 C 420.751 193.219 420.543 203.562 420.368 210.285 C 420.224 215.818 420.104 221.621 419.58 224.667 C 419.275 226.443 419.052 227.031 418.398 228.213 C 417.652 229.56 416.449 231.183 415.147 232.252 C 413.853 233.314 412.204 234.157 410.616 234.616 C 409.05 235.068 407.369 235.238 405.691 235.01 C 403.894 234.765 401.654 233.927 400.175 233.04 C 398.882 232.264 397.989 231.4 397.121 230.183 C 396.143 228.812 395.201 227.014 394.757 225.061 C 394.26 222.874 394.56 221.232 394.56 217.575 C 394.561 211.257 395.86 197.628 395.151 188.221 C 394.472 179.206 392.344 169.134 390.62 162.216 C 389.301 156.923 386.98 152.549 386.286 149.411 C 385.83 147.346 385.709 146.263 385.892 144.682 C 386.081 143.046 386.714 141.157 387.468 139.757 C 388.161 138.469 388.868 137.465 390.128 136.507 C 391.67 135.334 394.192 133.922 396.432 133.552 Z" style="stroke: rgb(129, 151, 57); stroke-width: 2px; fill: url(#gradient-5);">
        <title>5</title>
      </path>
    </g>
    <path opacity="1.000000" stroke="none" d="M 438.649 183.049 C 438.665 217.245 425.065 245.752 405.249 272.017 C 392.645 288.723 376.83 302.432 363.128 318.1 C 355.753 326.534 348.586 335.074 346.174 346.484 C 344.112 356.24 347.113 363.43 355.459 368.454 C 345.228 377.019 327.45 371.168 322.604 357.538 C 319.704 349.381 319.487 340.915 320.356 332.393 C 320.653 329.481 321.095 326.584 321.63 322.453 C 295.43 352.136 264.95 375.427 236.027 400.462 C 222.255 412.383 210.451 425.797 207.229 444.77 C 205.687 453.85 207.404 462.266 211.161 470.453 C 211.784 471.811 212.41 473.169 212.977 474.55 C 213.084 474.811 212.921 475.182 212.817 476.045 C 204.464 476.687 195.893 477.455 188.031 473.8 C 168.966 464.938 158.076 446.103 160.427 424.269 C 163.502 395.715 179.534 374.925 198.166 355.132 C 218.127 333.927 240.137 314.686 258.289 291.741 C 272.338 273.982 282.542 254.39 288.209 232.469 C 289.201 228.635 289.786 224.695 290.41 220.741 C 284.19 235.254 276.133 248.718 266.928 261.45 C 254.884 278.109 240.407 292.672 225.82 307.04 C 202.093 330.413 178.449 353.921 152.796 375.211 C 136.481 388.751 119.263 401.323 98.774 407.831 C 77.506 414.585 55.827 416.768 34.1 409.265 C 24.818 406.06 17.513 400.011 11.545 392.489 C 5.316 384.637 7.184 372.257 14.953 365.945 C 16.674 364.547 18.1 364.07 19.421 366.31 C 23.485 373.205 30.547 375.484 37.548 376.426 C 50.348 378.149 62.573 375.922 74.082 369.299 C 91.308 359.387 103.255 344.82 112.878 327.902 C 126.825 303.382 142.885 280.366 161.8 259.186 C 152.863 261.97 143.908 264.89 134.875 267.548 C 117 272.806 99.172 278.208 80.477 280.033 C 57.632 282.262 35.354 281.034 15.476 268.191 C 3.896 260.709 -6.078 251.413 -9.435 237.004 C -11.377 228.671 -8.419 216.952 -2.454 212.008 C -0.262 215.091 1.858 218.212 4.117 221.228 C 16.471 237.724 32.675 244.186 53.355 242.248 C 82.27 239.539 109.169 230.785 133.963 216.348 C 161.137 200.526 181.63 178.594 189.309 146.855 C 189.696 145.257 190.449 143.7 189.22 141.727 C 185.096 143.397 181.568 146.114 177.906 148.556 C 164.497 157.498 150.322 164.577 134.367 167.878 C 125.476 169.717 116.436 168.872 107.545 170.151 C 104.381 170.606 104.029 168.533 103.774 166.24 C 102.343 153.366 100.144 140.608 98.141 127.816 C 94.843 106.768 93.377 85.503 93.339 64.251 C 93.274 27.879 98.188 -7.754 113.468 -41.244 C 119.783 -55.084 128.419 -67.504 137.772 -79.526 C 158.058 -105.598 183.23 -125.594 211.917 -141.628 C 234.576 -154.292 258.189 -164.428 283.413 -170.627 C 305.179 -175.976 327.345 -178.862 349.689 -177.084 C 380.145 -174.661 407.925 -164.659 432.635 -146.008 C 457.876 -126.957 476.513 -102.966 489.339 -74.336 C 499.4 -51.877 504.831 -28.383 503.812 -3.567 C 503.567 2.398 504.362 8.401 504.502 14.391 C 504.563 17.017 506.013 18.641 507.675 20.344 C 522.287 35.322 525.716 56.126 516.062 74.644 C 510.639 85.047 501.829 92.214 490.957 96.507 C 483.211 99.565 475.201 101.937 466.678 101.413 C 463.964 101.246 461.864 101.756 460.798 104.75 C 456.218 117.605 446.792 126.428 435.855 133.796 C 432.124 136.309 430.645 138.276 432.218 143.33 C 436.167 156.028 438.741 169.115 438.649 183.049 M 250.304 -138.445 C 230.79 -130.454 212.733 -119.816 195.416 -107.902 C 160.473 -83.863 135.977 -51.891 123.301 -11.285 C 115.375 14.103 113.817 40.303 114.384 66.744 C 114.991 95.049 119.213 123.114 119.684 151.42 C 119.751 155.469 122.209 155.182 124.809 153.951 C 130.832 151.101 136.858 148.243 142.759 145.152 C 153.545 139.5 164.062 133.411 173.164 125.174 C 174.521 123.946 175.941 123.145 175.141 120.697 C 172.092 111.371 169.166 101.998 166.464 92.565 C 160.361 71.264 156.16 49.586 155.041 27.431 C 153.886 4.576 157.644 -17.653 164.731 -39.349 C 165.057 -40.347 164.392 -42.199 166.81 -42.238 C 154.271 12.723 166.046 65.958 176.362 119.639 C 180.795 118.818 182.683 116.344 184.474 114.076 C 188.189 109.374 191.991 104.664 195.042 99.532 C 199.987 91.214 207.108 85.389 215.123 80.462 C 218.17 78.589 221.515 77.2 224.564 75.671 C 219.833 68.619 214.676 62.186 210.865 55.036 C 192.717 20.986 184.266 -14.988 193.293 -53.265 C 198.453 -75.146 208.573 -94.822 226.336 -109.654 C 227.343 -110.495 228.238 -111.931 230.319 -111.113 C 222.698 -99.505 218.353 -86.839 214.814 -73.77 C 205.764 -40.351 206.476 -7.324 218.159 25.348 C 228.06 53.036 243.847 77.143 263.229 99.045 C 264.352 100.313 265.999 101.405 265.489 104.241 C 256.419 98.839 250.809 90.239 242.737 84.249 C 226.062 95.043 214.802 110.592 203.633 126.319 C 210.075 126.603 215.756 124.471 221.866 125.183 C 233.44 126.532 244.372 129.818 254.646 135.124 C 270.116 143.114 285.072 141.342 300.029 133.74 C 311.326 127.998 322.693 122.28 332.834 114.71 C 339.253 109.918 344.462 110.296 351.391 113.605 C 371.496 123.207 392.802 126.456 414.52 120.555 C 427.105 117.135 436.739 108.737 440.698 95.927 C 442.365 90.534 444.891 88.123 449.932 86.542 C 461.959 82.772 474.68 81.413 486.108 75.503 C 500.472 68.074 505.054 53.838 497.015 39.834 C 494.245 35.009 490.588 30.917 485.658 28.176 C 483.831 27.16 482.866 25.991 483.353 23.794 C 486.058 11.595 485.188 -0.671 484.081 -12.96 C 482.27 -33.066 476.82 -52.115 467.934 -70.217 C 459.094 -88.225 446.721 -103.474 432.357 -117.388 C 407.403 -141.56 377.381 -153.712 343.096 -155.541 C 311.152 -157.245 280.579 -150.543 250.304 -138.445 M 281.211 332.414 C 294.163 319.448 306.073 305.638 317.166 291 C 329.32 274.963 341.188 258.416 347.451 239.516 C 353.517 221.209 358.278 201.796 353.7 181.997 C 350.548 168.366 344.451 155.662 340.02 142.421 C 339.403 140.574 338.379 138.86 336.019 139.983 C 326.292 144.611 316.278 148.547 306.251 152.006 C 306.223 154.607 307.945 155.68 309.012 157.082 C 313.314 162.735 316.484 168.908 317.746 175.93 C 322.345 201.531 319.32 226.421 309.268 250.213 C 294.611 284.904 271.617 313.937 245.963 341.084 C 232.921 354.885 218.188 366.993 205.805 381.429 C 190.205 399.615 180.301 419.909 182.586 444.712 C 183.083 450.108 185.566 454.208 189.208 458.298 C 189.638 457.377 189.904 457.08 189.878 456.811 C 189.8 455.993 189.685 455.163 189.451 454.378 C 186.675 445.048 188.353 436.087 191.047 426.987 C 196.281 409.313 208.572 396.828 221.896 385.492 C 241.94 368.439 261.584 350.976 281.211 332.414 M 264.79 158.314 C 258.058 156.682 251.325 155.05 244.945 153.504 C 243.356 155.052 243.615 156.46 243.673 157.742 C 244.556 177.255 238.094 194.704 228.642 211.305 C 220.019 226.452 208.847 239.773 197.352 252.667 C 173.16 279.804 150.219 307.778 131.006 338.77 C 112.87 368.025 88.127 388.951 53.582 396.585 C 58.969 396.096 64.631 396.272 69.571 394.467 C 73.849 392.904 77.558 391.916 82.254 392.135 C 86.435 392.329 90.777 389.791 94.99 388.197 C 115.365 380.488 132.697 367.835 147.901 352.925 C 148.513 352.325 182.689 320.3 213.5 288.523 C 242.763 258.342 267.149 224.527 267.947 223.131 C 276.148 208.78 278.462 192.338 281.949 176.423 C 282.921 171.987 283.776 167.602 288.661 165.947 C 287.61 161.209 287.606 161.25 283.377 160.872 C 277.422 160.339 271.395 160.315 264.79 158.314 M 209.223 200.46 C 219.798 186.442 225.235 170.388 227.878 153.242 C 228.493 149.252 227.488 146.28 222.736 145.954 C 220.92 145.829 219.085 145.631 217.316 145.22 C 212.134 144.018 210.439 146.413 209.466 151.288 C 205.834 169.486 198.637 186.107 186.52 200.428 C 180.814 207.172 174.014 213.841 166.893 219.117 C 162.912 222.066 146.53 231.767 142.934 233.901 C 141.72 234.621 83.675 260.012 84.971 260.798 C 88.105 262.698 166.369 238.307 170.792 235.694 C 185.919 226.756 198.756 215.467 209.223 200.46 M 393.893 144.282 C 393.228 144.288 392.563 144.282 391.898 144.302 C 385.396 144.497 384.556 145.922 387.284 151.859 C 388.81 155.179 390.383 158.497 391.605 161.933 C 398.621 181.665 401.929 202.015 401.684 222.967 C 401.656 225.372 400.631 228.191 403.253 230.643 C 407.159 226.12 408.762 220.97 409.955 215.665 C 414.386 195.96 414.062 176.171 411.081 156.305 C 409.117 143.219 408.987 142.987 396.293 144.231 C 395.798 144.279 395.296 144.259 393.893 144.282 M 359.433 275.222 C 360.136 276.426 360.176 278.14 362.097 278.617 C 365.13 275.007 367.106 270.815 368.956 266.546 C 377.505 246.819 380.392 226.018 380.235 204.741 C 380.072 182.838 378.142 161.279 367.118 141.508 C 364.805 137.36 362.353 136.668 358.441 137.708 C 357.904 139.882 359.014 141.408 359.791 143.031 C 371.913 168.353 377.768 194.82 373.545 222.889 C 371.258 238.084 366.76 252.736 359.555 266.363 C 357.947 269.406 357.405 271.743 359.433 275.222 Z" style="fill-rule: evenodd; paint-order: fill;">
      <title>Kontury</title>
    </path>
  </g>
</svg>