<?xml version="1.0" encoding="utf-8"?>
<!-- Generator: Adobe Illustrator 23.0.1, SVG Export Plug-In . SVG Version: 6.00 Build 0)  -->
<svg version="1.1" id="Camada_1" xmlns:serif="http://www.serif.com/"
	 xmlns="http://www.w3.org/2000/svg" xmlns:xlink="http://www.w3.org/1999/xlink" x="0px" y="0px" viewBox="0 0 759.4 759.4"
	 style="enable-background:new 0 0 759.4 759.4;" xml:space="preserve">
<style type="text/css">
	.st0{fill:#282C34;}
	.st1{display:none;}
	.st2{display:inline;}
	.st3{fill:#CB81DA;}
	.st4{fill:#528BFF;}
</style>
<circle class="st0" cx="378.9" cy="378.1" r="379.7"/>
<g id="Inner_Logo" class="st1">
	<g class="st2">
		<path class="st3" d="M380.8,407.5c-16.8,0.1-29.4-12.6-29.5-29.8c-0.1-16,12.9-30.1,30.7-29.3c15.7,0.7,29.1,13.9,29,29.9
			C410.9,394.4,397.3,407.6,380.8,407.5z"/>
		<path class="st3" d="M633.5,383.3c-1.2-20-13.9-33.3-28-45.4c-8.7-7.4-18.6-13.3-28.6-18.8c-2.1,0-3.6-1.3-5.3-2.1
			c-11.2-5.6-22.6-10.8-34.5-14.9c-36.7-12.8-74.5-20.1-112.9-24.6c-21-2.4-42.2-4.1-63.4-3.8c-1.3,0-3,0.7-3.7-0.7
			c-0.8-1.5,0.8-2.7,1.7-3.7c4.4-5,8.6-10.2,13.3-15c17.1-17.9,34.7-35.4,55-49.8c15.4-10.9,31.4-20.8,50.2-25
			c18.9-4.2,32.8,4.4,36.3,22.4c3.4,17.4,2.3,34.7-1.1,51.9c-1.4,6.9,2.5,13.3,9.5,15c6.2,1.5,12.3-2.5,13.9-9.3
			c1.4-6.2,2-12.5,2.8-18.9c1.9-15.6,1.9-31-2.2-46.2c-5-18.4-15.5-32.2-34.6-37.8c-12.6-3.7-25.2-2.3-37.5,1.4
			c-29.6,8.9-53.8,27-76.4,47.1c-9.9,8.8-19.7,18-28.5,28c-3.8,4.3-8.3,8.1-12.1,12.5c-7.5,8.9-14.7,18-22,27.1
			c-1.4,1.7-3,2.2-5.1,2c-7-0.7-13.9,0.4-20.8,1.1c-5.1,0.6-10.3,0.2-15.4,1.3c-5.7,1.2-11.7,1.3-17.5,2.1c-3,0.4-3.9-1.1-4.3-3.7
			c-3.5-21.3-7.1-42.7-4.5-64.4c1.1-9.6,2.9-19,7.7-27.5c4.9-8.8,12.1-13.8,22.7-13.6c7.3,0.2,14,2.2,20.5,5.1
			c11.1,4.9,20.7,12,30.4,19.2c5.3,3.9,12.8,3,16.5-1.5c4.1-5,3.8-11.7-1.4-16.4c-11.2-10-23.8-18.1-37.6-24
			c-9.8-4.2-20-7.3-30.6-6.7c-21.8,1.3-36.6,12.8-45,32.8c-5.2,12.6-7.6,25.7-8,39.3c-0.2,8.3-0.7,16.7,0.1,24.9
			c1.2,12.7,3.3,25.3,5.4,37.9c0.6,3.3-0.5,3.5-3.1,4.1c-19.2,4.2-38.1,9.5-56,17.8c-5.6,2.6-10.8,6.2-16.8,7.8
			c-0.5,1-1.5,1.3-2.3,1.9c-13.2,8.4-24.9,18.2-31.5,32.9c-3.9,8.7-5.5,17.7-3.9,27.1c2.3,13.9,9.7,25,19.8,34.5
			c11.1,10.5,23.6,18.9,37.2,25.7c6.3,3.2,13.1,1,16.1-4.8c3.2-6.1,1.5-11.9-4.7-16c-1.5-1-3-1.9-4.6-2.8
			c-11.3-6.4-22-13.5-30.7-23.3c-11.1-12.5-12.3-25.2-3.2-37c4.5-5.8,10.1-10.5,16.3-14.4c20.2-12.8,42.7-19.7,65.7-25.1
			c7.9-1.8,7.8-1.8,9.9,5.7c4.6,15.9,10.1,31.5,16.1,46.9c1.1,2.8,0.8,4.9-0.5,7.5c-9.4,18.3-18.6,36.6-26.2,55.8
			c-8.9,22.3-16.5,44.8-20.5,68.5c-1.5,9.1-3.2,18.3-3.9,27.5c-0.5,6.9,0.5,13.9,0.8,20.9c0.8,8.7,1.9,17.1,5.7,25.2
			c5,10.8,12,19.4,22.3,25c13.4,7.3,27.5,7.2,41.9,3.7c20.8-5.1,38.9-15.9,56.1-28.1c2.6-1.8,5.2-4.1,4.7-8
			c0.6-4.9-0.6-9.1-4.9-11.9c-4.2-2.8-8.7-2.9-13-0.1c-3.9,2.5-7.6,5.2-11.5,7.7c-14.2,8.9-28.7,16.7-45.8,18.5
			c-8.3,0.9-16-1-21.8-6.6c-6.4-6.1-9-14.7-9.7-23.3c-2.6-31,4.5-60.5,14.4-89.6c6.3-18.6,14-36.7,22.7-54.3
			c0.7-1.4,0.9-3.8,2.5-3.9c1.7-0.1,2,2.3,2.6,3.7c7.4,16.8,16.5,32.7,25,48.9c5.2,10,11.5,19.4,17.5,29
			c7.7,12.4,16.7,23.8,24.9,35.7c0.4,0.8,0.6,1.7,1.1,2.4c8,11.9,17.4,22.7,27.1,33.1c16.8,18.1,34.8,35.2,56.5,47.6
			c14.8,8.5,30.3,15.3,47.9,14c12.9-1,23.9-6.2,32.5-16.2c8.9-10.3,13.3-22.5,15.6-35.7c2.2-15.7,3-31.4,1.7-47.2
			c-2.2-28.2-8.9-55.5-17.1-82.4c-8-26.4-18.2-52.1-30-77.1c-2.5-5.4-4.1-11.6-9.9-14.8c-3.3-1-6.7-1-10.1-0.8
			c-9.3,4.9-8.7,13.8-4.9,20.4c1.6,2.8,3.2,5.7,4.5,8.7c10.6,25,21.5,49.8,28.8,76c4.7,16.9,9.5,33.7,11.9,51.2
			c2.2,15.8,4.1,31.6,3.2,47.6c-0.5,8.4-1.7,16.7-4.6,24.7c-3.4,9.4-8.3,17.7-18.9,20.7c-9.6,2.7-18.7-0.1-27.3-3.9
			c-17.7-7.7-32.2-20-46.3-32.9c-8.1-7.4-15.1-15.8-22.3-24c-11.1-12.6-21.2-25.9-30.7-39.7c-12.3-17.6-23.6-35.8-33.5-54.8
			c-10.3-19.7-20.2-39.6-29-60.1c-1.1-2.5-0.8-4.3,0.5-6.5c12.7-21.8,26.5-42.9,41.5-63.2c1.6-2.1,3.1-3,5.8-3.1
			c22.1-0.2,44.2,0.6,66.2,2.5c26.2,2.2,52,6.3,77.6,12.2c29.9,6.9,59.2,15.8,86.2,30.9c12.2,6.8,24,14.3,32.4,25.9
			c7.4,10.2,10.1,21.2,0.6,33.4c-5.9,7.5-13.4,12.7-21.3,17.6c-7.1,4.4-14.8,7.3-22.3,10.8c-5.7,2.6-8.2,9.6-5.9,15.5
			c2,5.3,8.8,8.4,14.7,6.6c2.5-0.8,5-1.9,7.4-3c17.4-7.7,33.8-16.7,46-31.9C629.9,408,634.3,396.4,633.5,383.3z M300.6,305.8
			c-6.3,9.9-12.5,19.7-18.8,29.6c-0.5,0.7-1,1.7-2,1.4c-0.9-0.2-1.3-1.1-1.5-2c-2.1-8-5.5-15.6-7-23.8c-2.8-8.8-3.3-8,5.3-9.1
			c9.2-1.1,18.4-2.4,28-2.6C304.1,302.3,301.9,303.8,300.6,305.8z"/>
	</g>
</g>
<g>
	<path transform="translate(0.000000,1131.000000) scale(0.100000,-0.100000)" class="st4" d="M2629.7,9834.4
		c-115.9-17.1-211.5-87.8-266.6-198c-30.6-61.2-49-125.3-62.9-216.4c-6.9-48.6-7.3-252.3,0-318.4c23.7-217.6,78.8-457.2,164.1-717.6
		c15.5-48.2,28.6-89.4,28.6-91.4c0-2.4-6.9-5.7-15.1-6.9c-52.7-9.4-167-34.7-244.1-53.9c-244.5-60.8-429-125.3-596-207.8
		c-130.6-64.5-222.1-125.3-293.9-195.9c-228.6-224.1-183.7-487,118-691.5c215.9-146.1,560.1-271.1,974-353.5
		c30.2-6.1,55.5-11.4,56.3-12.2s-13.5-45.7-31.4-100.4c-92.7-281.7-146.5-525.4-164.1-744.2c-6.9-89.4-2.9-247.8,8.2-310.7
		c38-214.7,125.7-333.5,280-380c32.7-9.8,43.7-11,100-11.4c52.7-0.4,70.6,1.2,106.1,9c189.8,42.9,393.5,163.7,636.8,378.4
		c76.7,67.8,238.4,229.8,318,319.6c34.3,38.4,64.1,70.2,65.7,70.2s31.4-31.8,65.7-70.6c78-87.4,240.4-251.1,313.9-315.6
		c228.2-201.3,424.5-323.7,594.8-370.7c61.2-16.7,91-20.8,150.2-20.8c69.8,0,101.6,6.9,159.2,34.7
		c122.5,59.2,192.3,173.5,225.3,369.4c6.1,37.1,7.3,67.4,7.3,175.5c0,135.5-2,162.5-20.8,287.8c-26.5,172.7-78.4,380-148.6,591.5
		c-15.9,47.8-28.2,87.8-27.8,88.2c0.8,0.8,26.1,6.1,56.3,11.8c404.1,79.6,758.9,208.2,974,353.9c301.7,204.5,346.6,467.8,118,691.5
		c-185.3,181.2-567.4,340.9-1061.4,442.9c-46.9,9.8-86.1,18-87,18.4c-0.4,0.4,12.2,40,28.2,88.2c85.3,259.6,136.8,480.9,163.7,703.8
		c8.2,69.8,6.9,298.8-2,351.1c-23.7,135.5-62,227.8-124.5,296c-25.7,28.2-78,66.5-109,79.6c-214.3,91.8-511.1-26.5-885.8-353.1
		c-71.4-62.5-251.5-242.9-326.2-327.4c-33.5-38-62-68.6-63.7-68.6c-1.2,0-30.2,30.6-63.3,68.6c-75.1,84.5-255.5,264.9-326.6,327.4
		c-220.4,193.1-424.5,318.4-591.9,363.3C2762.4,9836,2684.4,9842.6,2629.7,9834.4z M2750.1,9697.7c233.5-38,575.2-295.1,928.3-698.9
		l43.7-49.8l-55.1-69c-103.7-130.6-238.8-316-326.6-447.8l-26.9-41.2l-72.7-5.3c-162.9-11.4-382.9-36.3-540.9-61.2
		c-64.9-9.8-73.1-10.6-75.9-4.9c-2,3.7-17.6,49-34.3,100.4c-200.4,611.9-219.6,1075.2-51.4,1228.7
		C2591.3,9696.8,2658.3,9712.4,2750.1,9697.7z M4988,9698.1c42.9-9.4,71.4-24.9,103.7-57.2c34.3-34.7,53.5-67.4,72.7-124.9
		c73.5-221.7,25.3-612.7-134.3-1098.1l-34.7-104.5l-45.7,7.3c-65.3,10.6-209,29.8-295.1,39.6c-86.5,10.2-301.3,29-326.2,29h-17.1
		l-47.4,70.6c-89.8,133.5-206.1,292.3-308.2,420.5l-54.7,68.6l45.7,51.8c161.2,183.7,337.6,354.3,477.2,462.5
		C4656.1,9643.4,4854.9,9726.2,4988,9698.1z M3851.1,8792.6c73.5-92.3,238.8-315.6,280-378.8l6.5-10.2h-326.2
		c-215.9,0-324.9,1.2-323.3,4.1c5.3,8.6,81.2,116.3,112.7,159.2c80.4,111,205.3,271.5,210.6,271.5
		C3813.1,8838.4,3831.1,8817.5,3851.1,8792.6z M4199.3,8263.6l34.7-2.9l48.2-75.5c67.4-105.3,166.1-271.5,225.3-377.6
		c60.8-109.4,146.1-271.9,146.1-277.6c0-5.7-86.1-169.4-146.1-277.6c-59.6-107-158.4-272.3-225.3-377.6l-48.2-75.5l-51-3.7
		c-66.5-4.9-676.8-4.9-743,0l-50.6,3.7l-38,59.2c-116.3,181.2-248.2,409-349.4,604.2l-35.1,66.9l29,55.5
		c125.3,238.4,248.6,452.3,364.5,630.3l30.6,47.4l21.2,0.4c11.8,0.4,53.9,2,93.1,3.7C3587,8270.5,4147,8267.7,4199.3,8263.6z
		 M3218.8,8247.3c-0.4-1.6-24.9-41.2-53.5-87.8c-84.1-137.2-169.8-287.4-250.2-438.4c-11-20.8-21.2-38-22.5-38
		c-8.6,0-225.3,498-219.2,504.1c5.3,5.3,281.3,40,436,54.7C3201.2,8250.9,3220.8,8251.8,3218.8,8247.3z M4505.5,8242.4
		c176.8-16.3,433.5-48.2,440.5-55.1c5.7-6.1-116.7-296.8-189-449l-27.4-57.1l-22.9,42.9c-77.6,146.1-184.1,331.9-262.9,458.8
		c-22.5,35.5-40.4,65.3-40.4,66.1C4403.4,8251.3,4413.2,8250.9,4505.5,8242.4z M2570.5,8088.5c60-154.7,125.7-305.8,206.1-475.2
		l39.6-82.5l-38-78c-74.7-154.7-148.6-323.3-205.7-469.9c-17.6-44.9-33.1-82.9-34.3-84.5s-37.1,4.5-80,13.1
		c-407.8,82.1-742.1,204.9-937.3,345.4c-42.5,30.6-103.7,88.6-128.6,121.2c-92.3,122.9-75.1,238.4,54.3,362.1
		c150.6,144.5,442.9,273.5,836,369.8c68.2,16.7,241.3,53.9,253.5,54.3C2538.7,8164.8,2553.8,8130.5,2570.5,8088.5z M5199.4,8141.5
		c452.7-93.9,808.3-239.6,976.9-401.3c127.8-122.5,145.7-233.1,58-357.2c-22.5-31.8-89.4-95.5-132.3-126.1
		c-197.6-141.2-530.3-263.7-937.3-345.8c-42.5-8.6-78.8-14.3-80-12.7c-1.2,1.6-16.7,39.6-34.3,84.5
		c-57.6,147.4-130.6,313.9-205.7,469.9l-38,78l22.5,44.5c74.7,149,188.6,411.5,251.5,578C5085.5,8166.4,5073.3,8167.7,5199.4,8141.5
		z M2902.8,7361.8c32.2-67.8,178-323.7,263.3-462.1c29.4-48.2,53.5-88.2,53.5-89c0-8.6-532.7,52.7-542.1,62
		c-2.4,2.4,18,56.7,61.2,160.4c49.8,120.4,150.2,343.3,154.7,343.7C2894.6,7377,2898.7,7370,2902.8,7361.8z M4757.3,7321
		c73.1-154.3,194.3-442.1,188.2-448.2c-5.7-5.7-227-34.3-374.7-48.6c-140.8-13.5-167.4-15.9-167.4-13.5c0,1.2,18,31,40,66.9
		c82.1,131.4,193.1,324.9,260.4,453.1c13.1,25.3,24.5,46.1,25.3,46.1S4742.6,7351.6,4757.3,7321z M5029.6,6642.2
		c159.6-483.7,207.4-874.4,134.7-1097.7c-18.8-57.6-38-90.6-72.7-125.3c-55.9-55.5-120.4-72.7-218.8-56.7
		c-233.1,38-568.2,289.8-926.2,696.8l-45.7,51.8l55.1,69c101.6,127.8,242.1,320.4,326.6,448.2l27.4,41.2l43.7,2.9
		c113.1,7.3,287.4,24.9,427.4,43.3c53.5,6.9,210.2,30.6,213.1,32.2C4994.5,6748.3,5010.4,6700.5,5029.6,6642.2z M2711.8,6734
		c145.7-22.9,379.2-49.4,529-59.6l72.3-5.3l27.4-40.8c83.7-126.5,229.4-326.2,331.9-454.8l49.8-62.5l-45.7-51.8
		c-360.5-409-692.7-658.9-927.9-696.8c-98-15.9-161.7,1.2-218.8,58.8c-34.7,35.1-56.7,74.7-75.1,135.1
		c-59.2,196.8-27.4,528.2,89.8,930.7c17.1,58.4,78,247,82.1,254.3C2629.3,6745.8,2642.4,6745,2711.8,6734z M4134.8,6652.4
		c-3.7-6.9-57.2-82.5-95.9-136.8c-77.6-107.8-221.7-293.9-227.4-293.9c-9,0-264.9,340-319.6,424.5l-6.5,10.2h326.2
		C4027.4,6656.5,4136.4,6655.2,4134.8,6652.4z M3760.5,7812.1c-103.3-20.4-188.6-94.3-221.3-191.9c-9.8-29-11-39.6-11-88.2
		c-0.4-50.2,0.8-58.4,11.4-91.4c29.8-91,108.6-164.5,202.5-189c35.5-9.4,103.3-9.4,138.8,0c68.2,18,133.1,64.5,172.3,124.9
		c53.9,82.5,58.8,193.9,12.7,286.2c-22.9,45.7-77.2,99.2-123.7,122.1c-19.2,9-45.7,19.6-59.2,22.9
		C3847.4,7816.6,3793.9,7818.6,3760.5,7812.1z"/>
	<path class="st4" d="M493.5,147.2c5.5,0,10.6,1,15.2,3c3.1,1.3,8.3,5.1,10.9,8c6.2,6.8,10.1,16,12.5,29.6c0.9,5.2,1,28.1,0.2,35.1
		c-2.7,22.3-7.8,44.4-16.4,70.4c-1.6,4.8-2.9,8.8-2.8,8.8c0.1,0,4,0.9,8.7,1.8c49.4,10.2,87.6,26.2,106.1,44.3
		c22.9,22.4,18.4,48.7-11.8,69.2c-21.5,14.6-57,27.4-97.4,35.4c-3,0.6-5.6,1.1-5.6,1.2c0,0,1.2,4,2.8,8.8
		c7,21.1,12.2,41.9,14.9,59.2c1.9,12.5,2.1,15.2,2.1,28.8c0,10.8-0.1,13.8-0.7,17.6c-3.3,19.6-10.3,31-22.5,36.9
		c-5.8,2.8-8.9,3.5-15.9,3.5c-5.9,0-8.9-0.4-15-2.1c-17-4.7-36.7-16.9-59.5-37.1c-7.3-6.4-23.6-22.8-31.4-31.6
		c-3.4-3.9-6.4-7.1-6.6-7.1s-3.1,3.2-6.6,7c-8,9-24.1,25.2-31.8,32c-24.3,21.5-44.7,33.6-63.7,37.8c-3.2,0.7-5,0.9-9.3,0.9
		c-0.4,0-0.9,0-1.4,0c-5.6,0-6.7-0.2-10-1.1c-15.4-4.7-24.2-16.5-28-38c-1.1-6.3-1.5-22.1-0.8-31.1c1.8-21.9,7.1-46.3,16.4-74.4
		c1.8-5.5,3.2-10,3.1-10c-0.1-0.1-2.6-0.6-5.6-1.2c-41.4-8.2-75.8-20.7-97.4-35.4c-30.2-20.5-34.7-46.7-11.8-69.2
		c7.2-7.1,16.3-13.1,29.4-19.6c16.7-8.2,35.1-14.7,59.6-20.8c7.7-1.9,19.1-4.4,24.4-5.4c0.8-0.1,1.5-0.4,1.5-0.7
		c0-0.2-1.3-4.3-2.9-9.1c-8.5-26-14-50-16.4-71.8c-0.7-6.6-0.7-27,0-31.8c1.4-9.1,3.2-15.5,6.3-21.6c5.5-11,15.1-18.1,26.7-19.8
		c1.6-0.2,3.3-0.3,5.2-0.3c4.7,0,10,0.7,14.8,2c16.7,4.5,37.1,17,59.2,36.3c7.1,6.2,25.1,24.3,32.7,32.7c3.3,3.8,6.2,6.9,6.3,6.9
		c0.2,0,3-3.1,6.4-6.9c7.5-8.5,25.5-26.5,32.6-32.7C449.4,160,473.9,147.2,493.5,147.2 M431.1,292.1h1.7c2.5,0,24,1.9,32.6,2.9
		c8.6,1,23,2.9,29.5,4l4.6,0.7l3.5-10.5c16-48.5,20.8-87.6,13.4-109.8c-1.9-5.8-3.8-9-7.3-12.5c-3.2-3.2-6.1-4.8-10.4-5.7
		c-1.7-0.4-3.5-0.5-5.4-0.5c-13,0-30.7,8.3-51,24c-14,10.8-31.6,27.9-47.7,46.3l-4.6,5.2l5.5,6.9c10.2,12.8,21.8,28.7,30.8,42
		L431.1,292.1 M263.4,299.4c0.9,0,2.8-0.3,6.6-0.8c15.8-2.5,37.8-5,54.1-6.1l7.3-0.5l2.7-4.1c8.8-13.2,22.3-31.7,32.7-44.8l5.5-6.9
		l-4.4-5c-35.3-40.4-69.5-66.1-92.8-69.9c-2.2-0.4-4.3-0.5-6.2-0.5c-6.1,0-10.9,1.8-15,5.4C237,181.5,238.9,227.8,259,289
		c1.7,5.1,3.2,9.7,3.4,10C262.5,299.3,262.7,299.4,263.4,299.4 M381.1,290.6h32.6l-0.7-1c-4.1-6.3-20.7-28.7-28-37.9
		c-2-2.5-3.8-4.6-4-4.6c-0.5,0-13,16-21.1,27.1c-3.1,4.3-10.7,15.1-11.3,15.9C348.7,290.5,359.6,290.6,381.1,290.6 M381.1,451.8
		c16.9,0,33.8-0.1,37.2-0.4l5.1-0.4l4.8-7.6c6.7-10.5,16.6-27.1,22.5-37.8c6-10.8,14.6-27.2,14.6-27.8c0-0.6-8.5-16.8-14.6-27.8
		c-5.9-10.6-15.8-27.2-22.5-37.8l-4.8-7.6l-3.5-0.3c-3.5-0.3-30.3-0.5-49.8-0.5c-9.3,0-17,0.1-19.6,0.2c-3.9,0.2-8.1,0.3-9.3,0.4
		l-2.1,0l-3.1,4.7c-11.6,17.8-23.9,39.2-36.5,63l-2.9,5.6l3.5,6.7c10.1,19.5,23.3,42.3,34.9,60.4l3.8,5.9l5.1,0.4
		C347.3,451.7,364.2,451.8,381.1,451.8 M473,362.9l2.7-5.7c7.2-15.2,19.5-44.3,18.9-44.9c-0.7-0.7-26.4-3.9-44-5.5
		c-6.2-0.6-8.7-0.8-9.6-0.8c-0.5,0-0.6,0-0.6,0.1c0,0.1,1.8,3.1,4,6.6c7.9,12.7,18.5,31.3,26.3,45.9L473,362.9 M289.3,362.7
		c0.1,0,1.1-1.7,2.2-3.8c8-15.1,16.6-30.1,25-43.8c2.9-4.7,5.3-8.6,5.3-8.8c0.1-0.2-0.2-0.3-1-0.3c-1.4,0-4.3,0.2-9.9,0.8
		c-15.5,1.5-43.1,4.9-43.6,5.5C266.7,312.9,288.4,362.7,289.3,362.7 M253.7,441.2c0.1,0,0.1,0,0.2,0c0.1-0.2,1.7-4,3.4-8.5
		c5.7-14.7,13.1-31.5,20.6-47l3.8-7.8l-4-8.2c-8-16.9-14.6-32-20.6-47.5c-1.7-4.2-3.2-7.6-3.4-7.6c0,0,0,0,0,0
		c-1.2,0-18.5,3.8-25.4,5.4c-39.3,9.6-68.5,22.5-83.6,37c-12.9,12.4-14.7,23.9-5.4,36.2c2.5,3.3,8.6,9.1,12.9,12.1
		c19.5,14,52.9,26.3,93.7,34.5C249.6,440.6,252.9,441.2,253.7,441.2 M508.6,441.2c0.8,0,4.1-0.5,7.8-1.3c40.7-8.2,74-20.5,93.7-34.6
		c4.3-3.1,11-9.4,13.2-12.6c8.8-12.4,7-23.5-5.8-35.7c-16.9-16.2-52.4-30.7-97.7-40.1c-7.2-1.5-9.9-2.1-11-2.1
		c-0.8,0-0.7,0.3-0.9,0.9c-6.3,16.7-17.7,42.9-25.1,57.8l-2.2,4.4l3.8,7.8c7.5,15.6,14.8,32.2,20.6,47c1.8,4.5,3.3,8.3,3.4,8.5
		C508.5,441.2,508.5,441.2,508.6,441.2 M440.8,450c1.2,0,5.3-0.4,16.3-1.4c14.8-1.4,36.9-4.3,37.5-4.9c0.6-0.6-11.5-29.4-18.8-44.8
		c-1.5-3.1-2.7-5.6-2.8-5.6c-0.1,0-1.2,2.1-2.5,4.6c-6.7,12.8-17.8,32.2-26,45.3c-2.2,3.6-4,6.6-4,6.7
		C440.3,450,440.5,450,440.8,450 M321.3,450c0.4,0,0.6,0,0.6-0.1c0-0.1-2.4-4.1-5.3-8.9c-8.5-13.8-23.1-39.4-26.3-46.2
		c-0.4-0.8-0.8-1.5-0.9-1.5c-0.4,0-10.5,22.3-15.5,34.4c-4.3,10.4-6.4,15.8-6.1,16C268.6,444.6,315.2,450,321.3,450 M493.7,595.3
		c6.4,0,11.2-2,15.4-6.2c3.5-3.5,5.4-6.8,7.3-12.5c7.3-22.3,2.5-61.4-13.5-109.8c-1.9-5.8-3.5-10.6-3.6-10.6c0,0,0,0,0,0
		c-0.3,0.2-16,2.5-21.3,3.2c-14,1.8-31.4,3.6-42.7,4.3L431,464l-2.7,4.1c-8.5,12.8-22.5,32-32.7,44.8l-5.5,6.9l4.6,5.2
		c35.8,40.7,69.3,65.9,92.6,69.7C489.6,595.1,491.7,595.3,493.7,595.3 M268.5,595.3c2,0,4.1-0.2,6.4-0.6
		c23.5-3.8,56.7-28.8,92.8-69.7l4.6-5.2l-5-6.2c-10.2-12.9-24.8-32.8-33.2-45.5l-2.7-4.1l-7.2-0.5c-15-1-38.3-3.7-52.9-6
		c-4.4-0.7-6.6-1-7.6-1c-0.6,0-0.8,0.1-0.9,0.3c-0.4,0.7-6.5,19.6-8.2,25.4c-11.7,40.3-14.9,73.4-9,93.1c1.8,6,4,10,7.5,13.5
		C257.3,593.3,262.1,595.3,268.5,595.3 M381.1,508.8c0.6,0,15-18.6,22.7-29.4c3.9-5.4,9.2-13,9.6-13.7c0.2-0.3-10.7-0.4-32.3-0.4
		h-32.6l0.7,1C354.7,474.8,380.3,508.8,381.1,508.8 M380.7,349.4c2.6,0,5.4,0.3,7.6,0.8c1.3,0.3,4,1.4,5.9,2.3
		c4.7,2.3,10.1,7.6,12.4,12.2c4.6,9.2,4.1,20.4-1.3,28.6c-3.9,6-10.4,10.7-17.2,12.5c-1.8,0.5-4.4,0.7-6.9,0.7s-5.2-0.2-6.9-0.7
		c-9.4-2.4-17.3-9.8-20.2-18.9c-1.1-3.3-1.2-4.1-1.1-9.1c0-4.9,0.1-5.9,1.1-8.8c3.3-9.8,11.8-17.1,22.1-19.2
		C377.4,349.5,379,349.4,380.7,349.4 M493.5,143.2C493.5,143.2,493.5,143.2,493.5,143.2c-20.5,0-46,13.2-76,39.3
		c-7.3,6.4-25.5,24.7-33,33.1c-1.3,1.5-2.5,2.8-3.4,3.7c-0.9-1-2.1-2.3-3.3-3.7c-7.4-8.4-25.6-26.6-33-33.1
		c-22.5-19.7-43.5-32.6-60.8-37.2c-5.1-1.4-10.7-2.1-15.8-2.1c-2.1,0-4.1,0.1-5.8,0.4c-13,1.9-23.5,9.7-29.6,22
		c-3.2,6.4-5.2,13.2-6.7,22.8c-0.8,5.3-0.8,26.2,0,32.9c2.4,21.8,8,46.2,16.6,72.6c0.7,2.3,1.3,3.9,1.7,5.2
		c-5.9,1.2-15.2,3.2-21.9,4.9c-24.7,6.1-43.3,12.6-60.4,21.1c-13.5,6.7-22.9,13-30.4,20.3c-11.3,11-16.6,23.5-15.5,35.9
		c1.3,14.3,10.9,27.9,27.9,39.4c22,14.9,57.1,27.6,98.9,36c0.5,0.1,1,0.2,1.4,0.3c-0.4,1.4-1,3.3-1.9,5.8
		c-9.4,28.5-14.8,53.2-16.6,75.3c-0.7,9.3-0.3,25.5,0.9,32.1c4.1,23,13.8,36,30.8,41.1c3.8,1.2,5.4,1.3,11.1,1.3c0.5,0,1,0,1.4,0
		c4.4,0,6.5-0.2,10.1-1c19.8-4.5,40.6-16.8,65.5-38.8c8-7.1,24.2-23.4,32.1-32.3c1.4-1.5,2.6-2.9,3.6-3.9c1,1.1,2.2,2.4,3.6,4
		c8.1,9.1,24.4,25.5,31.7,31.9c23.4,20.6,43.4,33,61.1,37.9c6.5,1.8,9.8,2.2,16.1,2.2c7.6,0,11.4-0.8,17.7-3.9
		c13.6-6.6,21.2-18.9,24.7-39.9c0.7-4,0.8-7.1,0.8-18.2c0-13.6-0.2-16.6-2.1-29.4c-2.7-17.5-8-38.8-15-59.8
		c-0.6-1.7-1.1-3.3-1.5-4.6c0.4-0.1,0.8-0.2,1.3-0.2c41-8.1,77-21.2,98.9-36c16.9-11.5,26.6-25.1,27.9-39.4
		c1.1-12.5-4.2-24.9-15.5-35.9c-19.2-18.8-57.6-34.9-108.1-45.3l-0.7-0.1c-1.3-0.3-2.5-0.5-3.7-0.8c0.4-1.3,0.9-2.8,1.5-4.6
		c8.6-26.1,13.8-48.7,16.5-71.2c0.9-7.4,0.7-30.8-0.2-36.3c-2.5-14.5-6.7-24.2-13.4-31.6c-3-3.3-8.7-7.4-12.3-8.9
		C505.1,144.3,499.5,143.2,493.5,143.2L493.5,143.2L493.5,143.2z M395.3,236.2l2.4-2.7c15.8-18,33.4-35.1,47.2-45.7
		c19.3-14.9,36.5-23.2,48.5-23.2c1.6,0,3.2,0.2,4.6,0.5c3.5,0.8,5.7,2,8.4,4.6c3,3,4.6,5.8,6.3,10.9c7.1,21.3,2.3,59.4-13.4,107.3
		l-2.4,7.2l-1.2-0.2c-6.4-1-20.8-3-29.7-4c-8-0.9-28.5-2.8-32.6-2.9l-3.6-5.3c-9.1-13.6-20.7-29.4-31-42.3L395.3,236.2L395.3,236.2z
		 M265.3,295.2c-0.6-1.7-1.5-4.3-2.5-7.4c-9.7-29.7-15.3-56.5-16.2-77.6c-0.8-20.2,2.6-34.4,10-41.1c3.3-3,7.2-4.4,12.3-4.4
		c1.7,0,3.6,0.2,5.6,0.5c22.2,3.6,56.1,29.3,90.4,68.6l2.2,2.5l-3.4,4.3c-10.5,13.2-24,31.7-32.9,45.1l-1.6,2.5l-5.3,0.4
		c-16.5,1.2-38.4,3.6-54.4,6.2C268,294.8,266.4,295,265.3,295.2L265.3,295.2z M356.3,286.5c2.4-3.4,5.3-7.5,7-9.9
		c6-8.2,13.8-18.4,17.9-23.5c0.3,0.3,0.5,0.7,0.8,1c6,7.5,17.8,23.3,24.2,32.4h-25C368.7,286.6,361,286.6,356.3,286.5L356.3,286.5z
		 M341.3,308.7C341.3,308.7,341.3,308.7,341.3,308.7c1.2,0,5.4-0.2,9.4-0.4c2.4-0.1,9.3-0.2,19.5-0.2c19.5,0,46.1,0.2,49.4,0.5
		l1.5,0.1l3.8,5.9c6.4,10.1,16.3,26.5,22.4,37.6c5.3,9.5,11.7,21.7,13.7,25.8c-2,4.1-8.5,16.3-13.7,25.8
		c-5.8,10.4-15.7,26.9-22.4,37.6l-3.7,5.9l-3.1,0.2c-2.9,0.2-18,0.4-36.9,0.4c-18.9,0-34-0.1-36.8-0.4l-3.1-0.2l-2.7-4.2
		c-11.7-18.2-24.7-40.7-34.8-60.1l-2.5-4.9l1.9-3.7c12.7-24.2,24.9-45.3,36.3-62.7L341.3,308.7L341.3,308.7z M272.6,315.4
		c8.1-1.2,26.3-3.4,38.7-4.6c1.1-0.1,2.3-0.2,3.3-0.3l-1.5,2.5c-7.9,12.9-16,27.1-23.7,41.3C284.7,344,276.1,324,272.6,315.4
		L272.6,315.4z M472.8,354c-7.6-14.1-17.4-31.2-25-43.4c0,0,0-0.1-0.1-0.1c0.8,0.1,1.6,0.1,2.5,0.2c14.7,1.4,31.7,3.4,39.2,4.6
		C486.4,323.2,478.7,341.4,472.8,354L472.8,354z M251.3,436.8c-1.2-0.2-2.7-0.5-4.7-0.9c-40.4-8.1-73.1-20.2-92.2-33.9
		c-3.9-2.8-9.7-8.3-12-11.3c-8-10.6-6.5-19.9,5-30.9c14.4-13.8,43.4-26.6,81.8-36c5.4-1.3,17-3.8,22.2-4.9c0.5,1.1,1.1,2.6,1.9,4.6
		c5.9,15.3,12.5,30.5,20.7,47.8l3.1,6.5l-2.9,6.1c-7.6,15.7-14.9,32.5-20.7,47.3C252.6,433.5,251.9,435.4,251.3,436.8L251.3,436.8z
		 M485.1,377.9l1.4-2.7c7.2-14.3,18-39,24.5-56.2c1.3,0.2,3,0.6,5.1,1.1l3,0.6c44.6,9.2,79.5,23.5,95.7,39.1
		c11.4,10.9,12.9,19.8,5.3,30.5c-2,2.8-8.4,8.9-12.3,11.7c-19.3,13.8-52,25.8-92.2,33.9c-1.9,0.4-3.5,0.7-4.7,0.9
		c-0.6-1.4-1.3-3.3-2.2-5.6c-5.7-14.7-13.1-31.4-20.7-47.3L485.1,377.9L485.1,377.9z M447.7,445.5c0,0,0.1-0.1,0.1-0.1
		c7.6-12.2,18.1-30.4,25-43.3c6,12.9,13.7,30.9,16.6,38.7c-6.8,1-20.9,2.8-32.7,3.9C453.1,444.9,450.1,445.2,447.7,445.5
		L447.7,445.5z M272.9,440.7c0.8-2.2,2.3-5.8,4.6-11.4c3.4-8.1,8.6-19.9,11.9-27.2c5.6,10.5,16.7,29.7,23.7,41.1
		c0.5,0.9,1,1.7,1.5,2.4C303.4,444.5,281.9,442,272.9,440.7L272.9,440.7z M433.2,467.9l2.4-0.2c11.5-0.7,29.1-2.5,43-4.4
		c3-0.4,8.7-1.2,12.6-1.8c2.4-0.4,4.2-0.6,5.5-0.8c0.6,1.6,1.3,4,2.4,7.3c15.7,47.6,20.5,85.7,13.5,107.3c-1.7,5.2-3.3,7.9-6.3,10.9
		c-3.6,3.6-7.4,5.1-12.6,5.1c-1.8,0-3.7-0.2-5.8-0.5c-22.3-3.6-55.2-28.6-90.3-68.4l-2.4-2.7l3.4-4.3c10.3-12.9,24.4-32.3,32.9-45.1
		L433.2,467.9L433.2,467.9z M268.5,591.3c-5.2,0-9-1.6-12.7-5.3c-3-3-4.9-6.5-6.5-11.9c-5.7-19-2.5-51.2,9-90.8
		c1.4-4.7,5.4-17.3,7.2-22.6c1.4,0.2,3.3,0.5,5.1,0.8c15,2.4,38.4,5,53.3,6l5.3,0.4l1.6,2.5c8.4,12.7,23,32.8,33.4,45.7l2.9,3.6
		l-2.4,2.7c-35.1,39.8-68.1,64.8-90.4,68.4C272.1,591.2,270.2,591.3,268.5,591.3L268.5,591.3z M356.1,469.4h25.1
		c12.5,0,20.2,0,24.9,0.1c-1.5,2.2-3.4,4.8-5.4,7.7c-6,8.4-15,20.1-19.5,25.6C375.6,495.8,362.9,479,356.1,469.4L356.1,469.4z
		 M380.7,345.4c-2,0-3.9,0.2-5.4,0.5c-11.8,2.3-21.4,10.7-25.2,21.8c-1.2,3.5-1.3,5.1-1.3,10.1c0,5.3,0.1,6.6,1.3,10.4
		c3.4,10.5,12.3,18.7,23,21.5c2.7,0.7,6.2,0.8,7.9,0.8s5.2-0.1,8-0.8c7.8-2.1,15.1-7.4,19.6-14.2c6.1-9.4,6.7-22.2,1.5-32.6
		c-2.7-5.3-8.8-11.3-14.2-14c0,0,0,0-0.1,0c-2-0.9-4.9-2.1-6.7-2.6C386.9,345.8,383.8,345.4,380.7,345.4L380.7,345.4z"/>
</g>
</svg>
