<?xml version="1.0" encoding="UTF-8"?>
<svg width="500px" height="500px" viewBox="0 0 500 500" version="1.1" xmlns="http://www.w3.org/2000/svg" xmlns:xlink="http://www.w3.org/1999/xlink">
    <title>画板备份 4</title>
    <defs>
        <linearGradient x1="50%" y1="0%" x2="50%" y2="100%" id="linearGradient-1">
            <stop stop-color="#5E34AC" offset="0%"></stop>
            <stop stop-color="#5E3679" offset="100%"></stop>
        </linearGradient>
    </defs>
    <g id="画板备份-4" stroke="none" stroke-width="1" fill="none" fill-rule="evenodd">
        <g id="编组-2">
            <rect id="蒙版" fill="url(#linearGradient-1)" x="0" y="0" width="500" height="500" rx="90"></rect>
            <g id="编组备份" transform="translate(20.000000, 201.700000)" fill="#FFFFFF">
                <polygon id="Fill-1备份" points="158.241532 58.3820273 156.8762 60.0823398 150.594201 67.9077977 149.227951 69.6081103 147.863535 71.3084229 167.813534 96.3809524 191.195662 96.3809524 159.606865 56.6826284"></polygon>
                <polygon id="Fill-2备份" points="91.1238212 0.000274096598 129.468678 48.1901107 91.1238212 96.380861 114.505032 96.380861 124.862857 83.3649272 141.159742 62.8835157 142.517739 61.1749803 143.87757 59.4664448 143.849145 59.4317259 150.13206 51.606268 150.203582 51.5176434 151.496476 49.9059554 152.862726 48.2056429 152.982846 48.0548897 152.970926 48.0393576 141.159742 33.4976194 114.505032 0.000274096598"></polygon>
                <polygon id="Fill-3备份" points="167.813626 0.000274096598 148.258831 24.5739478 149.625081 26.2760877 150.990414 27.9754866 157.272412 35.8000308 158.638662 37.5003434 160.003078 39.2015696 191.195754 0.000274096598"></polygon>
                <path d="M84.3859171,65.4484203 L84.3840832,65.4484203 C80.7960728,65.4475067 77.8902702,62.5484783 77.891187,58.9751723 L77.9031075,24.3595129 C77.9040244,20.7852933 80.8125778,17.8899195 84.3978374,17.8899195 L84.4005883,17.8899195 C87.9876818,17.8908332 90.8944013,20.7898615 90.8925683,24.3640812 L90.8806471,58.9788269 C90.8797301,62.5530466 87.9720937,65.4484203 84.3859171,65.4484203" id="Fill-4备份"></path>
                <polygon id="Fill-6备份" points="90.8820225 77.9968367 77.8916457 77.9922684 77.9017321 51.2934324 90.8921089 51.2989143"></polygon>
                <path d="M16.1759397,67.2252972 C15.1764683,67.2252972 14.1614088,66.9941424 13.2123695,66.5053368 C10.033317,64.8726347 8.78535326,60.980463 10.42577,57.81282 L29.3332007,21.28488 C30.9717836,18.117237 34.8779744,16.8737521 38.0570269,18.5082814 C41.2360794,20.1418972 42.4840431,24.0340689 40.8445433,27.2007982 L21.9361957,63.7296519 C20.7863452,65.950748 18.522405,67.2252972 16.1759397,67.2252972" id="Fill-8备份"></path>
                <polygon id="Fill-10备份" points="14.5739429 77.9540776 0 77.9540776 13.3938332 52.0784451 24.9051758 57.9934497"></polygon>
                <path d="M54.9370895,67.1115471 C52.6355545,67.1115471 50.4073753,65.8863353 49.2346011,63.7273678 L29.6055337,27.5795084 C27.9036816,24.4447569 29.0737049,20.5297439 32.2197474,18.8330859 C35.3657898,17.136428 39.2949043,18.3040795 40.9976733,21.4379173 L60.6276576,57.5866903 C62.3295098,60.7214417 61.1585695,64.6364548 58.0125271,66.3321991 C57.0332285,66.8612056 55.9778235,67.1115471 54.9370895,67.1115471" id="Fill-12备份"></path>
                <polygon id="Fill-14备份" points="56.9607898 77.9540776 46.1527449 58.0528373 57.5448845 51.9112461 71.6695238 77.9540776"></polygon>
                <path d="M268.169995,29.7912852 C258.131268,29.7912852 249.963111,37.9301269 249.963111,47.9328254 C249.963111,57.9364376 258.131268,66.0743656 268.169995,66.0743656 C278.208722,66.0743656 286.376878,57.9364376 286.376878,47.9328254 C286.376878,37.9301269 278.208722,29.7912852 268.169995,29.7912852 M268.169995,77.9473166 C251.560431,77.9473166 238.047395,64.482778 238.047395,47.9328254 C238.047395,31.3828728 251.560431,17.9183342 268.169995,17.9183342 C284.779558,17.9183342 298.292594,31.3828728 298.292594,47.9328254 C298.292594,64.482778 284.779558,77.9473166 268.169995,77.9473166" id="Fill-16备份"></path>
                <path d="M214.229626,77.9468597 C197.647571,77.9468597 184.155624,64.5042489 184.155624,47.9807923 C184.155624,31.4573357 197.647571,18.0156385 214.229626,18.0156385 C223.553135,18.0156385 232.195353,22.2175393 237.940021,29.5450551 L228.471634,36.9164263 C225.020249,32.5126076 219.827582,29.9881779 214.229626,29.9881779 C204.272507,29.9881779 196.171287,38.0594091 196.171287,47.9807923 C196.171287,57.9030892 204.272507,65.9743203 214.229626,65.9743203 C219.828499,65.9743203 225.020249,63.448977 228.472551,59.0451583 L237.940021,66.4165295 C232.19627,73.7440452 223.553135,77.9468597 214.229626,77.9468597" id="Fill-18备份"></path>
                <path d="M334.086323,29.8689459 C324.063184,29.8689459 315.908781,37.9940827 315.908781,47.9812491 C315.908781,57.9684155 324.063184,66.0935523 334.086323,66.0935523 C344.109462,66.0935523 352.263864,57.9684155 352.263864,47.9812491 C352.263864,37.9940827 344.109462,29.8689459 334.086323,29.8689459 M334.086323,77.9473166 C317.503351,77.9473166 304.012321,64.5047057 304.012321,47.9812491 C304.012321,31.4577925 317.503351,18.0151817 334.086323,18.0151817 C350.669295,18.0151817 364.160324,31.4577925 364.160324,47.9812491 C364.160324,64.5047057 350.669295,77.9473166 334.086323,77.9473166" id="Fill-20备份"></path>
                <polygon id="Fill-22备份" points="436.476846 78.0447122 447.833224 78.0447122 447.833224 23.8329733 436.476846 23.8329733"></polygon>
                <path d="M442.760494,33.6787972 L436.476662,23.8496932 C436.856278,23.6075746 445.790085,17.9949899 459.374643,17.9949899 C459.583706,17.9949899 459.790019,17.9968172 460,17.9995582 L459.852372,29.6523182 C459.692823,29.6504909 459.533274,29.6495772 459.37556,29.6495772 C449.381763,29.6495772 442.826515,33.6385964 442.760494,33.6787972" id="Fill-24备份"></path>
                <path d="M358.403278,46.0171643 L358.401444,46.0171643 C355.099521,46.0162506 352.423872,43.348377 352.424788,40.0583042 L352.436709,5.95429177 C352.437626,2.66604625 355.114192,0 358.415198,0 L358.417032,0 C361.718038,0.000913655328 364.393687,2.66878721 364.392771,5.95886005 L364.381767,40.0628725 C364.38085,43.3520317 361.704284,46.0171643 358.403278,46.0171643" id="Fill-25备份"></path>
                <polygon id="Fill-26备份" points="364.380392 77.9424742 352.42433 77.9388196 352.438084 28.2131283 364.394146 28.216783"></polygon>
                <path d="M412.578293,61.6104284 C409.366231,64.437278 405.161115,66.1677412 400.549793,66.1677412 C390.507398,66.1677412 382.336491,58.0270722 382.336491,48.0198054 C382.336491,38.0134522 390.507398,29.8727832 400.549793,29.8727832 C410.592188,29.8727832 418.762178,38.0134522 418.762178,48.0198054 C418.762178,50.4090141 418.285366,52.6858431 417.439942,54.7762865 L429.903075,54.7762865 C430.405561,52.6036142 430.681562,50.3432309 430.681562,48.0198054 C430.681562,31.4643708 417.164858,17.9961776 400.549793,17.9961776 C383.934728,17.9961776 370.418024,31.4643708 370.418024,48.0198054 C370.418024,64.5761536 383.934728,78.0443468 400.549793,78.0443468 C412.256445,78.0443468 422.418043,71.3527351 427.404396,61.6104284 L412.578293,61.6104284 Z" id="Fill-27备份"></path>
                <path d="M429.874925,43.5830951 L379.707881,43.5730446 C376.604935,43.5721312 374.089751,46.0764605 374.088835,49.1673565 L374.088835,49.1691838 C374.088835,52.2591661 376.602184,54.7653227 379.703296,54.7662363 L429.874925,54.7762865 L429.874925,43.5830951 Z" id="Fill-28备份"></path>
            </g>
        </g>
    </g>
</svg>