<?xml version="1.0" standalone="no"?>
<!DOCTYPE svg PUBLIC "-//W3C//DTD SVG 20010904//EN"
 "http://www.w3.org/TR/2001/REC-SVG-20010904/DTD/svg10.dtd">
<svg version="1.0" xmlns="http://www.w3.org/2000/svg"
 width="360.000000pt" height="360.000000pt" viewBox="0 0 360.000000 360.000000"
 preserveAspectRatio="xMidYMid meet">
<metadata>
Created by potrace 1.10, written by Peter Selinger 2001-2011
</metadata>
<g transform="translate(0.000000,360.000000) scale(0.100000,-0.100000)"
fill="#000000" stroke="none">
<path d="M1858 3265 c-32 -7 -75 -21 -95 -30 -40 -19 -153 -128 -153 -147 0
-6 -6 -19 -13 -27 -16 -19 -42 -103 -58 -189 -9 -48 -9 -84 0 -155 16 -126 40
-245 57 -285 8 -18 14 -39 14 -46 0 -8 14 -41 30 -74 17 -34 30 -64 30 -67 0
-20 109 -146 157 -183 59 -44 90 -50 104 -19 5 9 13 25 19 35 5 9 21 41 36 70
39 78 58 54 29 -37 -23 -71 -47 -223 -38 -232 10 -10 53 -1 53 11 0 5 20 18
44 30 43 20 142 110 199 179 32 40 38 83 14 109 -10 10 -17 24 -17 30 0 6 -13
34 -30 62 -16 28 -30 57 -30 65 0 8 -4 16 -9 20 -9 5 -66 118 -96 190 -17 40
-35 138 -35 191 0 54 20 144 36 164 6 8 15 24 18 36 7 24 110 129 147 149 41
23 111 55 120 55 5 0 9 6 9 13 0 21 -112 47 -203 47 -45 0 -88 5 -93 10 -14
14 -119 40 -157 39 -18 -1 -58 -7 -89 -14z m52 -169 c0 -8 -4 -17 -9 -21 -12
-7 -24 12 -16 25 9 15 25 12 25 -4z"/>
<path d="M1310 2144 c-17 -36 -30 -72 -30 -81 0 -8 -5 -24 -12 -36 -6 -12 -18
-69 -25 -127 -14 -118 -2 -307 23 -347 8 -12 14 -29 14 -36 0 -50 103 -209
189 -292 23 -21 41 -44 41 -50 0 -17 -64 -75 -83 -75 -9 0 -33 -7 -54 -16 -21
-9 -55 -24 -75 -33 -80 -34 -44 -41 230 -41 170 0 223 3 226 13 2 6 9 28 16
47 7 19 16 60 20 91 4 31 12 71 18 90 6 19 12 52 14 74 l3 40 -110 3 c-60 1
-114 7 -118 11 -5 5 -4 17 1 27 6 11 13 26 17 34 3 8 21 42 40 75 18 33 52 96
75 140 23 44 57 109 76 145 44 84 44 90 -3 79 -44 -10 -112 -2 -133 16 -8 7
-24 15 -35 19 -40 12 -205 184 -248 258 -12 21 -28 38 -35 38 -7 0 -26 -30
-42 -66z"/>
<path d="M2334 1849 c-47 -50 -138 -119 -156 -119 -7 0 -22 -7 -32 -15 -39
-30 -104 -13 -167 43 -15 13 -29 20 -32 15 -3 -4 -7 -35 -8 -68 l-4 -60 115
-3 c63 -1 119 -7 124 -12 5 -5 -5 -28 -23 -55 -17 -25 -31 -50 -31 -55 0 -5
-18 -36 -40 -69 -22 -33 -45 -71 -50 -83 -6 -13 -14 -30 -20 -38 -17 -26 -130
-221 -130 -225 0 -2 -11 -21 -25 -41 -14 -20 -22 -40 -19 -45 6 -11 491 -11
518 0 17 7 16 8 -7 24 -27 18 -96 45 -137 54 -37 9 -90 53 -90 75 0 11 14 32
31 46 79 69 209 276 209 336 0 13 7 40 15 59 16 40 22 262 7 271 -5 3 -26 -13
-48 -35z"/>
<path d="M432 762 c-9 -7 -12 -61 -10 -238 l3 -229 160 0 160 0 3 29 c2 16 -1
33 -7 39 -5 5 -50 9 -100 8 -118 -3 -135 6 -128 66 3 25 11 49 18 54 8 5 51 9
97 9 l83 0 -3 33 -3 32 -87 3 c-98 3 -112 13 -106 75 l3 32 110 5 110 5 0 40
0 40 -145 2 c-80 2 -151 -1 -158 -5z"/>
<path d="M2018 751 c-58 -27 -82 -65 -83 -129 0 -51 2 -56 39 -88 22 -19 46
-34 55 -34 24 -1 118 -35 135 -49 26 -22 20 -60 -11 -72 -33 -12 -119 -3 -150
17 -12 8 -31 14 -41 14 -25 0 -50 -46 -36 -67 19 -30 95 -52 180 -52 74 -1 84
1 122 29 30 22 43 39 48 65 8 43 0 101 -17 121 -14 17 -75 45 -149 69 -30 9
-61 22 -67 27 -16 13 -17 50 -1 66 17 17 120 15 144 -3 30 -23 50 -18 64 16
16 37 7 48 -58 73 -54 20 -126 19 -174 -3z"/>
<path d="M2497 751 c-93 -44 -140 -121 -140 -228 1 -64 5 -79 31 -120 17 -27
53 -63 79 -81 42 -28 57 -32 111 -32 38 0 75 6 93 16 28 14 32 14 48 0 18 -16
72 -22 84 -9 4 4 -5 19 -20 35 l-27 28 27 50 c104 192 -95 430 -286 341z m164
-94 c39 -32 59 -79 59 -135 0 -61 -18 -81 -56 -63 -56 25 -91 5 -55 -33 12
-12 21 -27 21 -33 0 -30 -88 -27 -125 5 -43 36 -55 65 -55 131 0 59 3 68 36
107 34 43 37 44 92 44 44 -1 63 -6 83 -23z"/>
<path d="M2911 757 c-8 -11 -11 -77 -9 -238 l3 -224 165 0 165 0 3 25 c4 47
-8 53 -105 51 -49 -1 -101 3 -116 8 l-27 10 -2 188 -3 188 -31 3 c-18 2 -36
-3 -43 -11z"/>
<path d="M1320 632 c-82 -39 -121 -118 -104 -209 16 -86 79 -133 178 -133 67
0 94 10 140 52 39 35 -30 62 -75 29 -39 -29 -88 -27 -122 5 -16 14 -27 33 -25
42 3 15 23 18 133 22 l130 5 3 27 c3 26 -28 100 -54 125 -23 24 -98 53 -134
52 -19 0 -51 -8 -70 -17z m113 -64 c26 -13 46 -38 47 -55 0 -10 -23 -13 -85
-13 -77 0 -85 2 -85 19 0 24 47 60 78 61 13 0 33 -5 45 -12z"/>
<path d="M1680 640 l-25 -6 0 -169 0 -170 40 0 40 0 5 108 c5 106 6 110 35
133 16 12 41 24 55 26 20 2 26 9 28 34 5 48 -19 61 -62 35 -19 -12 -36 -27
-38 -33 -6 -17 -28 0 -28 22 0 22 -17 29 -50 20z"/>
<path d="M824 601 c3 -22 12 -55 20 -73 8 -18 21 -51 29 -73 63 -169 56 -159
111 -163 42 -3 47 -1 57 25 41 102 52 131 56 153 3 14 12 34 19 45 8 11 14 29
14 42 0 12 5 25 10 28 6 3 10 17 10 31 0 21 -5 24 -35 24 -25 0 -37 -5 -41
-17 -3 -10 -11 -34 -18 -53 -31 -84 -38 -106 -43 -130 -14 -75 -33 -59 -68 58
-38 128 -44 136 -89 140 l-39 3 7 -40z"/>
</g>
</svg>
