<?xml version="1.0" encoding="UTF-8" standalone="no"?>
<svg
   xmlns="http://www.w3.org/2000/svg"
   version="1.1"
   id="svg3522"
   viewBox="0 0 16 16"
   height="16"
   width="16">
  <path
     id="path3054"
     d="m 8.0565536,2.0794771 c 0,0 -0.6096461,0.5494928 -1.2311417,1.0952666 C 6.1860732,3.1515772 4.9320965,3.3148557 4.2526431,3.5966945 3.6267263,3.1444185 3.0767471,2.6450633 3.0767471,2.6450633 c 0,0 -0.4699671,0.9221767 -0.7655164,1.4633527 C 1.872921,4.3743002 1.4328452,4.6733538 1.0406302,5.0690227 0.58444229,4.8624106 0.05561477,4.6105136 0.03835493,4.6021886 0.64248378,5.992023 1.0486139,7.3836966 2.1533897,8.2201605 3.9122576,5.0518364 12.085564,5.3438557 13.880794,8.2021968 15.040988,7.5119936 15.492207,6.0270236 15.948479,4.6560453 15.898447,4.6748443 15.277624,4.9119059 14.875178,5.0869734 14.634893,4.7886029 14.068528,4.3298593 13.746631,4.1084119 13.441295,3.47069 12.996897,2.6091514 12.996897,2.6091514 c 0,0 -0.526352,0.4465078 -1.136437,0.9336722 C 11.036246,3.3692934 10.039341,3.1584443 9.2008799,3.2106474 8.6301061,2.6755557 8.0565536,2.079471 8.0565536,2.079471 Z"
     style="fill:#f3d400;fill-opacity:1;stroke:none;stroke-width:0.190917" />
  <path
     id="path3051"
     d="m 0.66299358,7.5558082 c 0,0 0.85626322,2.3647235 1.45094972,4.0079028 2.5199224,3.791875 8.9547777,4.055483 11.7600487,0.07341 0.663836,-1.7063412 1.559431,-4.1043485 1.559431,-4.1043485 -0.719691,1.2160431 -1.890945,2.0554856 -2.6123,2.5076635 -0.512584,0.320281 -1.695301,0.513876 -1.695301,0.513876 L 8.0207366,8.7190482 4.8978093,10.517607 c 0,0 -1.1669915,-0.213848 -1.6953042,-0.495523 C 2.1362193,9.3728677 1.4190696,8.6058508 0.66299358,7.5558082 Z"
     style="fill:#ffe953;fill-opacity:1;stroke:none;stroke-width:0.190917" />
</svg>
