<svg width="40" height="40" xmlns="http://www.w3.org/2000/svg">
    <path stroke="null" id="svg_1" fill="rgb(100%,100%,100%)"
          d="m4.46748,23.7839c0.35345,0 0.64131,-0.26782 0.64131,-0.60005c0,-0.32884 -0.28786,-0.59665 -0.64131,-0.59665l-1.93121,0l0,-5.9869l1.28626,0l0,1.1967c0,0.33223 0.28787,0.60004 0.64496,0.60004c0.35345,0 0.64131,-0.26781 0.64131,-0.60004l0,-1.1967l1.28626,0l0,1.1967c0,0.33223 0.28786,0.60004 0.64495,0.60004c0.35345,0 0.64496,-0.26781 0.64496,-0.60004l0,-1.1967l1.28626,0l0,1.1967c0,0.33223 0.28787,0.60004 0.64131,0.60004c0.3571,0 0.64496,-0.26781 0.64496,-0.60004l0,-1.1967l9.00382,0l0,5.9869l-11.0152,0c-0.35709,0 -0.64496,0.26781 -0.64496,0.59665c0,0.33223 0.28787,0.60005 0.64496,0.60005l11.35044,0l2.38305,2.76631c0.12024,0.14238 0.30607,0.22713 0.4992,0.22713l6.43495,0c0.35345,0 0.64131,-0.26781 0.64131,-0.60004l2.57252,0c0.3571,0 0.64495,-0.26782 0.64495,-0.59665c0,-0.33223 -0.28785,-0.60005 -0.64495,-0.60005l-2.57252,0l0,-1.24416c0.61944,-0.08136 1.20975,-0.28138 1.73809,-0.58648c0.06195,0.02033 0.12753,0.0339 0.19312,0.0339l2.57253,0c0.35709,0 0.64495,-0.26781 0.64495,-0.59665c0,-0.33223 -0.28786,-0.60005 -0.64495,-0.60005l-1.4976,0c0.08745,-0.27121 -0.04373,-0.56614 -0.31702,-0.69835c-0.26964,-0.13222 -0.60487,-0.0712 -0.79799,0.14916c-0.47005,0.56276 -1.1405,0.94922 -1.89113,1.08822l0,-5.86486c1.4976,0.28477 2.57252,1.51198 2.57252,2.93243c0,0.14917 -0.01093,0.30172 -0.03279,0.45088c-0.04008,0.21358 0.04737,0.43055 0.22956,0.56615c0.17855,0.1356 0.42632,0.1695 0.64131,0.09152c0.21498,-0.08136 0.36802,-0.26442 0.40082,-0.478c0,-0.01017 0,-0.02033 0,-0.0305l1.97858,0c0.35709,0 0.64495,-0.26782 0.64495,-0.60005c0,-0.32884 -0.28787,-0.59665 -0.64495,-0.59665l-1.98223,0c-0.09838,-0.6475 -0.35709,-1.26111 -0.76155,-1.79675l1.45752,0c0.35709,0 0.64495,-0.26782 0.64495,-0.60005c0,-0.32883 -0.28786,-0.59665 -0.64495,-0.59665l-2.57253,0c-0.06923,0.00339 -0.13482,0.01356 -0.20041,0.03729c-0.52471,-0.30511 -1.115,-0.50852 -1.7308,-0.58988l0,-1.24416l1.93121,0c0.35345,0 0.64131,-0.26781 0.64131,-0.60005c0,-0.32883 -0.28786,-0.59666 -0.64131,-0.59666l-1.93121,0c0,-0.33223 -0.28786,-0.60004 -0.64131,-0.60004l-1.36642,0c-0.3571,0 -0.64496,0.26781 -0.64496,0.60004c0,0.32884 0.28786,0.59666 0.64496,0.59666l0.72147,0l0,11.97379l-3.85877,0l0,-4.19015c0,-0.33223 -0.28787,-0.60004 -0.64496,-0.60004c-0.35345,0 -0.64131,0.26781 -0.64131,0.60004l0,4.19015l-0.33524,0l-2.23729,-2.60698l0,-6.76323l2.23729,-2.60359l0.33524,0l0,3.5935c0,0.32883 0.28786,0.59666 0.64131,0.59666c0.35709,0 0.64496,-0.26782 0.64496,-0.59666l0,-3.5935l0.72146,0c0.3571,0 0.64496,-0.26781 0.64496,-0.59666c0,-0.33223 -0.28786,-0.60004 -0.64496,-0.60004l-2.65269,0c-0.19312,0 -0.37896,0.08475 -0.50284,0.22714l-2.3794,2.76631l-17.70157,0c-0.3571,0 -0.64496,0.26781 -0.64496,0.60004l0,7.1802c0,0.33223 0.28786,0.60005 0.64496,0.60005l2.57252,0zm0,0"/>
    <path stroke="null" id="svg_2" fill="rgb(100%,100%,100%)"
          d="m4.22334,19.64121c-0.08017,0.03051 -0.1494,0.07459 -0.21499,0.12543c-0.1166,0.11526 -0.18219,0.26781 -0.18583,0.42715c0,0.03729 0.00729,0.07797 0.01458,0.11865c0.00729,0.03728 0.01822,0.07458 0.03644,0.10848c0.01458,0.0339 0.0328,0.07119 0.0583,0.1017c0.0255,0.03391 0.05102,0.06441 0.07652,0.09492c0.06559,0.05424 0.13482,0.09492 0.21499,0.12543c0.07652,0.0339 0.16033,0.05085 0.24414,0.04746c0.25871,0.00339 0.49556,-0.14239 0.59758,-0.36952c0.09838,-0.22375 0.04373,-0.48139 -0.1421,-0.65429c-0.18947,-0.16272 -0.45912,-0.21357 -0.69961,-0.12543zm0,0"/>
    <path stroke="null" id="svg_3" fill="rgb(100%,100%,100%)"
          d="m6.58452,19.76665c-0.25142,0.23391 -0.25142,0.6136 0,0.84752c0.25142,0.23053 0.65953,0.23053 0.91095,0c0.25142,-0.23391 0.25142,-0.6136 0,-0.84752c-0.25871,-0.22036 -0.65224,-0.22036 -0.91095,0zm0,0"/>
    <path stroke="null" id="svg_4" fill="rgb(100%,100%,100%)"
          d="m10.07164,20.61756c0.22227,-0.20341 0.25872,-0.52546 0.08745,-0.76616c-0.17125,-0.24409 -0.50284,-0.33901 -0.7907,-0.23053c-0.2915,0.11188 -0.45548,0.39664 -0.39718,0.68141c0.06195,0.28138 0.33159,0.48817 0.64131,0.48817c0.17127,-0.00339 0.33523,-0.06441 0.45912,-0.1729zm0,0"/>
    <path stroke="null" id="svg_5" fill="rgb(100%,100%,100%)"
          d="m23.30956,19.16999c-0.18583,0.1695 -0.24049,0.42715 -0.14211,0.65429c0.10203,0.22374 0.33888,0.36952 0.59759,0.36952c0.17126,-0.00339 0.33522,-0.06441 0.45912,-0.17629c0.0255,-0.02712 0.05101,-0.05762 0.07652,-0.09492c0.0255,-0.03051 0.04372,-0.06441 0.0583,-0.10171c0.01822,-0.0339 0.02915,-0.07119 0.03644,-0.10848c0.00729,-0.03729 0.01458,-0.07797 0.01458,-0.11866c0,-0.24409 -0.15668,-0.46445 -0.39718,-0.55597c-0.24049,-0.09493 -0.52106,-0.04069 -0.70325,0.13221zm0,0"/>
    <path stroke="null" id="svg_6" fill="rgb(100%,100%,100%)"
          d="m36.27055,17.09865c0.03644,0.02034 0.07652,0.04069 0.1166,0.05424c0.03644,0.01695 0.07652,0.02712 0.1166,0.0339c0.04372,0.00679 0.08745,0.01017 0.12754,0.01356c0.17126,0 0.33522,-0.06102 0.45912,-0.17289c0.12024,-0.11526 0.18583,-0.26781 0.18583,-0.42715c0,-0.04068 -0.00729,-0.07797 -0.01457,-0.11865c-0.00728,-0.03729 -0.01822,-0.07458 -0.03643,-0.10848c-0.01458,-0.03729 -0.0328,-0.07458 -0.0583,-0.10848l-0.07652,-0.08814c-0.06195,-0.05424 -0.13483,-0.09492 -0.21498,-0.12543c-0.23685,-0.09153 -0.51378,-0.04069 -0.69961,0.12543c-0.1166,0.11526 -0.18583,0.26781 -0.18583,0.42376c0,0.07798 0.01822,0.15595 0.05101,0.22714c0.03279,0.07458 0.07652,0.139 0.13482,0.20002l0.09474,0.07119zm0,0"/>
    <path stroke="null" id="svg_7" fill="rgb(100%,100%,100%)"
          d="m38.37667,19.16999c-0.25871,-0.22374 -0.65588,-0.22374 -0.9146,0c-0.0583,0.05763 -0.10202,0.12543 -0.13482,0.19662c-0.03279,0.07119 -0.05102,0.14917 -0.05102,0.22714c0,0.33223 0.28787,0.60005 0.64131,0.60005c0.3571,0 0.64495,-0.26782 0.64495,-0.60005c0,-0.07797 -0.01822,-0.15594 -0.05101,-0.22714c-0.03279,-0.07119 -0.08016,-0.13899 -0.13482,-0.19662zm0,0"/>
    <path stroke="null" id="svg_8" fill="rgb(100%,100%,100%)"
          d="m33.52677,13.94247l0.07652,0.09153c0.06195,0.05085 0.13483,0.09493 0.21135,0.12543c0.07652,0.03051 0.16032,0.04746 0.24413,0.04746c0.17126,-0.00339 0.33523,-0.06441 0.45547,-0.1729c0.02915,-0.03051 0.05465,-0.05764 0.08016,-0.09153c0.02187,-0.03051 0.04373,-0.0678 0.0583,-0.10509c0.01823,-0.0339 0.02915,-0.07119 0.03645,-0.10848c0.00728,-0.04069 0.01093,-0.08136 0.01457,-0.12205c-0.00364,-0.03729 -0.00729,-0.07797 -0.01457,-0.11865c-0.0073,-0.03728 -0.01822,-0.07457 -0.03645,-0.10848c-0.01457,-0.03728 -0.03643,-0.07458 -0.0583,-0.10509c-0.02551,-0.0339 -0.05101,-0.06102 -0.08016,-0.09153c-0.1822,-0.1695 -0.45912,-0.22035 -0.69961,-0.12543c-0.07652,0.03051 -0.1494,0.07458 -0.21135,0.12543c-0.1166,0.11526 -0.18583,0.26782 -0.18583,0.42376c0,0.04069 0.00364,0.08136 0.01093,0.12205c0.00729,0.03729 0.02187,0.07458 0.04008,0.10848c0.01458,0.03729 0.0328,0.07458 0.0583,0.10509zm0,0"/>
    <path stroke="null" id="svg_9" fill="rgb(100%,100%,100%)"
          d="m35.06445,25.0823c-0.03643,-0.02373 -0.07652,-0.04069 -0.1166,-0.05424c-0.03643,-0.01695 -0.07652,-0.03051 -0.1166,-0.03729c-0.21134,-0.03729 -0.42997,0.02373 -0.58666,0.16273c-0.0583,0.05763 -0.10202,0.12543 -0.13482,0.19662c-0.03279,0.07458 -0.05101,0.14917 -0.05101,0.23053c0,0.15595 0.06559,0.31188 0.18583,0.42376c0.1239,0.11188 0.28787,0.17628 0.45913,0.17289c0.04008,0 0.08381,-0.00339 0.12753,-0.01017c0.04008,-0.00678 0.08017,-0.02035 0.1166,-0.03729c0.04008,-0.01356 0.08017,-0.03052 0.1166,-0.05424c0.0328,-0.02034 0.06559,-0.04746 0.09474,-0.07119c0.1166,-0.11526 0.18584,-0.26781 0.18584,-0.42376c0,-0.08136 -0.01822,-0.15595 -0.05102,-0.23053c-0.02915,-0.07119 -0.07652,-0.13899 -0.13482,-0.19662c-0.02915,-0.02373 -0.06194,-0.04746 -0.09474,-0.07119zm0,0"/>
    <path stroke="null" id="svg_10" fill="rgb(100%,100%,100%)"
          d="m36.041,22.81433c0.03279,0.07119 0.07652,0.13899 0.13482,0.19662c0.12389,0.10848 0.28786,0.1729 0.45547,0.1729c0.08745,0.0034 0.16761,-0.01356 0.24414,-0.04746c0.08015,-0.02712 0.15303,-0.07119 0.21498,-0.12543c0.1166,-0.11526 0.18219,-0.26781 0.18583,-0.42376c0,-0.04069 -0.00729,-0.08136 -0.01457,-0.12205c-0.00728,-0.03728 -0.01822,-0.07119 -0.03643,-0.10509c-0.01458,-0.04068 -0.0328,-0.07458 -0.0583,-0.10848l-0.07652,-0.09153c-0.06195,-0.05085 -0.13483,-0.09492 -0.21498,-0.12543c-0.23685,-0.09153 -0.51378,-0.04407 -0.69961,0.12543c-0.1166,0.11526 -0.18583,0.26782 -0.18583,0.42715c0,0.07797 0.01822,0.15595 0.05101,0.22714zm0,0"/>
    <path stroke="null" id="svg_11" fill="rgb(100%,100%,100%)"
          d="m16.04747,21.3905c1.06399,0 1.92757,-0.80683 1.92757,-1.79675c0,-0.9899 -0.86358,-1.79674 -1.92757,-1.79674l-3.86242,0c-0.35345,0 -0.64131,0.26781 -0.64131,0.60004l0,2.39341c0,0.33223 0.28786,0.60004 0.64131,0.60004l3.86242,0zm0.64131,-1.79675c0,0.33223 -0.28786,0.60005 -0.64131,0.60005c-0.35709,0 -0.64495,-0.26782 -0.64495,-0.60005c0,-0.33223 0.28786,-0.60005 0.64495,-0.60005c0.35345,0 0.64131,0.26782 0.64131,0.60005zm-3.85878,-0.60005l1.40651,0c-0.16033,0.38648 -0.16033,0.81362 0,1.2001l-1.40651,0l0,-1.2001zm0,0"/>
</svg>