<svg width="40" height="40" xmlns="http://www.w3.org/2000/svg">
    <path stroke="null" id="svg_1" fill="rgb(23.529412%,24.705882%,25.490196%)"
          d="m4.59247,24.42709c0.35345,0 0.64131,-0.28297 0.64131,-0.63397c0,-0.34743 -0.28786,-0.6304 -0.64131,-0.6304l-1.93121,0l0,-6.32543l1.28626,0l0,1.26437c0,0.351 0.28787,0.63397 0.64496,0.63397c0.35345,0 0.64131,-0.28297 0.64131,-0.63397l0,-1.26437l1.28626,0l0,1.26437c0,0.351 0.28786,0.63397 0.64495,0.63397c0.35345,0 0.64496,-0.28297 0.64496,-0.63397l0,-1.26437l1.28625,0l0,1.26437c0,0.351 0.28787,0.63397 0.64131,0.63397c0.3571,0 0.64496,-0.28297 0.64496,-0.63397l0,-1.26437l9.00384,0l0,6.32543l-11.01521,0c-0.35709,0 -0.64496,0.28297 -0.64496,0.6304c0,0.35101 0.28787,0.63397 0.64496,0.63397l11.35047,0l2.38306,2.92275c0.12024,0.15047 0.30606,0.23996 0.49915,0.23996l6.43501,0c0.35344,0 0.64131,-0.28288 0.64131,-0.63397l2.57251,0c0.35708,0 0.64494,-0.28297 0.64494,-0.6304c0,-0.351 -0.28786,-0.63397 -0.64494,-0.63397l-2.57251,0l0,-1.31453c0.61938,-0.08592 1.20967,-0.29727 1.73802,-0.61958c0.06194,0.02146 0.12761,0.03576 0.19319,0.03576l2.57251,0c0.35708,0 0.64495,-0.28297 0.64495,-0.6304c0,-0.351 -0.28787,-0.63397 -0.64495,-0.63397l-1.49763,0c0.0875,-0.28654 -0.04375,-0.59812 -0.31697,-0.73786c-0.26968,-0.13965 -0.60493,-0.07519 -0.79802,0.15762c-0.47004,0.59454 -1.14055,1.00295 -1.89109,1.14976l0,-6.19651c1.49754,0.30085 2.57251,1.5975 2.57251,3.09826c0,0.15762 -0.01101,0.31882 -0.03284,0.47635c-0.04011,0.22566 0.04739,0.45489 0.22956,0.59821c0.17854,0.14323 0.4263,0.17908 0.64131,0.09665c0.21501,-0.08592 0.368,-0.2793 0.40083,-0.50496c0,-0.01082 0,-0.02155 0,-0.03228l1.97859,0c0.35708,0 0.64495,-0.28297 0.64495,-0.63397c0,-0.34743 -0.28786,-0.6304 -0.64495,-0.6304l-1.98223,0c-0.09841,-0.68413 -0.35708,-1.33241 -0.76155,-1.89834l1.45752,0c0.35708,0 0.64495,-0.28297 0.64495,-0.63397c0,-0.34743 -0.28787,-0.6304 -0.64495,-0.6304l-2.57251,0c-0.06931,0.00358 -0.13488,0.0143 -0.20046,0.03943c-0.52471,-0.3224 -1.11499,-0.53733 -1.73074,-0.62325l0,-1.31453l1.9312,0c0.35344,0 0.64131,-0.28297 0.64131,-0.63397c0,-0.34743 -0.28787,-0.6304 -0.64131,-0.6304l-1.9312,0c0,-0.35101 -0.28787,-0.63397 -0.64131,-0.63397l-1.36648,0c-0.35708,0 -0.64495,0.28297 -0.64495,0.63397c0,0.34743 0.28787,0.6304 0.64495,0.6304l0.72144,0l0,12.65086l-3.85877,0l0,-4.42709c0,-0.351 -0.28787,-0.63397 -0.64495,-0.63397c-0.35345,0 -0.64131,0.28297 -0.64131,0.63397l0,4.42709l-0.33525,0l-2.23726,-2.7544l0,-7.14564l2.23726,-2.75082l0.33525,0l0,3.79669c0,0.34743 0.28786,0.6304 0.64131,0.6304c0.35708,0 0.64495,-0.28297 0.64495,-0.6304l0,-3.79669l0.72153,0c0.35708,0 0.64495,-0.28297 0.64495,-0.6304c0,-0.35101 -0.28787,-0.63397 -0.64495,-0.63397l-2.65273,0c-0.19309,0 -0.37891,0.08949 -0.50279,0.23996l-2.37942,2.92275l-17.70161,0c-0.3571,0 -0.64496,0.28297 -0.64496,0.63397l0,7.58623c0,0.35101 0.28786,0.63397 0.64496,0.63397l2.57252,0zm0,0"/>
    <path stroke="null" id="svg_2" fill="rgb(23.529412%,24.705882%,25.490196%)"
          d="m4.34833,20.05016c-0.08017,0.03218 -0.1494,0.07877 -0.21498,0.1325c-0.1166,0.12177 -0.18219,0.28297 -0.18583,0.45132c0,0.03943 0.00729,0.08243 0.01458,0.12535c0.00729,0.03942 0.01822,0.07886 0.03644,0.11462c0.01458,0.03585 0.0328,0.07528 0.0583,0.10746c0.0255,0.03585 0.05102,0.06804 0.07652,0.10032c0.06559,0.05731 0.13482,0.10031 0.21498,0.1325c0.07652,0.03585 0.16033,0.05373 0.24414,0.05016c0.25871,0.00357 0.49556,-0.15047 0.59758,-0.39043c0.09838,-0.23639 0.04373,-0.50863 -0.1421,-0.69128c-0.18947,-0.17193 -0.45912,-0.22566 -0.69961,-0.1325zm0,0"/>
    <path stroke="null" id="svg_3" fill="rgb(23.529412%,24.705882%,25.490196%)"
          d="m6.70952,20.18266c-0.25142,0.24721 -0.25142,0.64837 0,0.89548c0.25142,0.24354 0.65953,0.24354 0.91095,0c0.25142,-0.24712 0.25142,-0.64828 0,-0.89548c-0.25871,-0.23281 -0.65224,-0.23281 -0.91095,0zm0,0"/>
    <path stroke="null" id="svg_4" fill="rgb(23.529412%,24.705882%,25.490196%)"
          d="m10.19663,21.08172c0.22227,-0.21493 0.25871,-0.55521 0.08745,-0.80948c-0.17126,-0.25794 -0.50284,-0.35816 -0.7907,-0.24354c-0.2915,0.11819 -0.45548,0.41904 -0.39718,0.71989c0.06195,0.29727 0.33159,0.51578 0.64131,0.51578c0.17126,-0.00358 0.33523,-0.06804 0.45912,-0.18266zm0,0"/>
    <path stroke="null" id="svg_5" fill="rgb(23.529412%,24.705882%,25.490196%)"
          d="m23.43452,19.55226c-0.18582,0.17908 -0.24048,0.45132 -0.14207,0.69128c0.10205,0.23639 0.33889,0.39043 0.59756,0.39043c0.17126,-0.00358 0.33525,-0.06804 0.45913,-0.18623c0.02556,-0.0287 0.05102,-0.06088 0.07649,-0.10031c0.02556,-0.03219 0.04375,-0.06804 0.0583,-0.10747c0.01828,-0.03576 0.0292,-0.07519 0.03647,-0.11462c0.00728,-0.03934 0.01455,-0.08234 0.01455,-0.12535c0,-0.25784 -0.15662,-0.49075 -0.39719,-0.58739c-0.24048,-0.10031 -0.52098,-0.043 -0.70325,0.13965zm0,0"/>
    <path stroke="null" id="svg_6" fill="rgb(23.529412%,24.705882%,25.490196%)"
          d="m36.39559,17.36379c0.03638,0.02145 0.07649,0.043 0.1166,0.05731c0.03638,0.01788 0.07649,0.0287 0.1166,0.03585c0.04366,0.00715 0.0874,0.01073 0.12751,0.0143c0.17126,0 0.33525,-0.06446 0.45914,-0.18266c0.12023,-0.12177 0.18581,-0.28297 0.18581,-0.45132c0,-0.043 -0.00728,-0.08244 -0.01456,-0.12535c-0.00727,-0.03943 -0.01828,-0.07886 -0.03647,-0.11462c-0.01455,-0.03943 -0.03274,-0.07886 -0.0583,-0.11462l-0.07648,-0.09316c-0.06195,-0.05731 -0.13489,-0.10031 -0.21502,-0.1325c-0.23684,-0.09674 -0.51379,-0.043 -0.69961,0.1325c-0.1166,0.12177 -0.18582,0.28297 -0.18582,0.44774c0,0.08234 0.01819,0.16477 0.05103,0.23996c0.03274,0.07877 0.07649,0.14689 0.13479,0.21135l0.09478,0.07519zm0,0"/>
    <path stroke="null" id="svg_7" fill="rgb(23.529412%,24.705882%,25.490196%)"
          d="m38.50169,19.55226c-0.25876,-0.23639 -0.65586,-0.23639 -0.91462,0c-0.0583,0.06088 -0.10205,0.13259 -0.13479,0.20778c-0.03284,0.07519 -0.05103,0.15762 -0.05103,0.23996c0,0.351 0.28786,0.63397 0.64131,0.63397c0.35708,0 0.64495,-0.28297 0.64495,-0.63397c0,-0.08234 -0.01819,-0.16477 -0.05103,-0.23996c-0.03275,-0.07519 -0.08013,-0.14689 -0.1348,-0.20778zm0,0"/>
    <path stroke="null" id="svg_8" fill="rgb(23.529412%,24.705882%,25.490196%)"
          d="m33.65181,14.02915l0.07649,0.09674c0.06194,0.05364 0.13479,0.10022 0.21138,0.1325c0.07649,0.03218 0.16026,0.05016 0.24412,0.05016c0.17126,-0.00358 0.33525,-0.06804 0.45549,-0.18266c0.02911,-0.03228 0.05466,-0.06098 0.08014,-0.09674c0.02182,-0.03228 0.04374,-0.07161 0.0583,-0.11104c0.01819,-0.03585 0.02911,-0.07519 0.03647,-0.11462c0.00727,-0.043 0.01092,-0.08601 0.01456,-0.12892c-0.00364,-0.03943 -0.00728,-0.08243 -0.01456,-0.12544c-0.00737,-0.03934 -0.01828,-0.07876 -0.03647,-0.11462c-0.01455,-0.03934 -0.03647,-0.07876 -0.0583,-0.11095c-0.02547,-0.03585 -0.05103,-0.06455 -0.08014,-0.09674c-0.18227,-0.17908 -0.45913,-0.23281 -0.69961,-0.1325c-0.07658,0.03218 -0.14943,0.07877 -0.21138,0.1325c-0.1166,0.12177 -0.18581,0.28297 -0.18581,0.44774c0,0.04291 0.00364,0.08592 0.01092,0.12892c0.00727,0.03943 0.02182,0.07877 0.04011,0.11462c0.01455,0.03943 0.03274,0.07876 0.0583,0.11104zm0,0"/>
    <path stroke="null" id="svg_9" fill="rgb(23.529412%,24.705882%,25.490196%)"
          d="m35.18946,25.79892c-0.03647,-0.02503 -0.07649,-0.043 -0.1166,-0.05731c-0.03648,-0.01788 -0.07649,-0.03218 -0.1166,-0.03934c-0.21138,-0.03943 -0.42994,0.02503 -0.58665,0.17193c-0.0583,0.06088 -0.10205,0.1325 -0.13479,0.20769c-0.03284,0.07886 -0.05103,0.15762 -0.05103,0.24354c0,0.16477 0.06557,0.32955 0.18582,0.44774c0.12387,0.1182 0.28786,0.18623 0.45913,0.18266c0.04011,0 0.08376,-0.00357 0.12751,-0.01073c0.04011,-0.00715 0.08012,-0.02146 0.1166,-0.03934c0.04011,-0.01439 0.08013,-0.03228 0.1166,-0.05731c0.03283,-0.02155 0.06558,-0.05016 0.09478,-0.07528c0.1166,-0.12177 0.18581,-0.28297 0.18581,-0.44774c0,-0.08592 -0.01819,-0.16468 -0.05102,-0.24354c-0.0292,-0.07519 -0.07649,-0.1468 -0.13479,-0.20769c-0.0292,-0.02513 -0.06194,-0.05016 -0.09478,-0.07528zm0,0"/>
    <path stroke="null" id="svg_10" fill="rgb(23.529412%,24.705882%,25.490196%)"
          d="m36.16602,23.40268c0.03274,0.07528 0.07649,0.14689 0.13479,0.20778c0.12387,0.11462 0.28786,0.18266 0.45549,0.18266c0.0874,0.00358 0.16763,-0.0143 0.24412,-0.05016c0.08013,-0.02861 0.15307,-0.07519 0.21502,-0.1325c0.1166,-0.12177 0.18217,-0.28297 0.18581,-0.44774c0,-0.043 -0.00728,-0.08592 -0.01456,-0.12892c-0.00727,-0.03942 -0.01828,-0.07519 -0.03647,-0.11104c-0.01455,-0.043 -0.03274,-0.07877 -0.0583,-0.11462l-0.07648,-0.09674c-0.06195,-0.05373 -0.13489,-0.10022 -0.21502,-0.1325c-0.23684,-0.09674 -0.51379,-0.04658 -0.69961,0.1325c-0.1166,0.12177 -0.18582,0.28297 -0.18582,0.45132c0,0.08244 0.01819,0.16477 0.05103,0.23996zm0,0"/>
    <path stroke="null" id="svg_11" fill="rgb(23.529412%,24.705882%,25.490196%)"
          d="m16.17248,21.89834c1.06397,0 1.92757,-0.85248 1.92757,-1.89834c0,-1.04587 -0.8636,-1.89834 -1.92757,-1.89834l-3.8624,0c-0.35344,0 -0.64131,0.28297 -0.64131,0.63397l0,2.52874c0,0.351 0.28787,0.63397 0.64131,0.63397l3.8624,0zm0.64131,-1.89834c0,0.351 -0.28787,0.63397 -0.64131,0.63397c-0.35708,0 -0.64495,-0.28297 -0.64495,-0.63397c0,-0.351 0.28787,-0.63397 0.64495,-0.63397c0.35344,0 0.64131,0.28297 0.64131,0.63397zm-3.85877,-0.63397l1.4065,0c-0.16035,0.40831 -0.16035,0.85963 0,1.26795l-1.4065,0l0,-1.26795zm0,0"/>
</svg>