<?xml version="1.0" standalone="no"?><!DOCTYPE svg PUBLIC "-//W3C//DTD SVG 1.1//EN"
    "http://www.w3.org/Graphics/SVG/1.1/DTD/svg11.dtd">
<svg class="icon" viewBox="0 0 1024 1024" version="1.1" xmlns="http://www.w3.org/2000/svg"
    width="64" height="64">
    <path
        d="M325.96992 607.68256l-2.9184-4.38272c0-4.86912 0.9728-9.25184 2.9184-13.14816l4.38272-2.9184-2.9184 4.3776c0 8.76544-0.49152 14.12096-1.46432 16.07168z m1.4592 59.88864c-1.9456-4.864-2.9184-11.68384-2.9184-20.44928l2.9184-2.9184v23.36768z m444.09856 181.14048l-17.55136 4.3776-2.9184-4.38272c32.13312-14.60736 56.47872-26.2912 73.0368-35.05664-48.6912 18.50368-83.75296 34.57024-105.17504 48.2048v-4.38272c31.16032-21.42208 80.34304-47.232 147.53792-77.41952-44.8 16.55296-77.91104 31.64672-99.33312 45.28128l4.38272-5.8368c-8.76544 0-21.66784 4.3776-38.7072 13.14304-17.0496 8.76544-27.51488 17.03936-31.4112 24.832l-2.9184-5.84192c0-1.9456 1.9456-2.9184 5.8368-2.9184 40.9088-25.32352 75.47392-44.3136 103.71584-56.97536l-29.21472 13.14816c10.71616-14.60736 37.49376-28.24192 80.34304-40.90368-32.13824 2.92352-62.81216 15.09888-92.02688 36.52096l5.84192-5.84192c-5.84192-0.9728-13.14816 0.73216-21.9136 5.10976-8.76032 4.38272-14.60736 7.0656-17.52576 8.0384l-1.46432-1.46432c53.56544-27.264 93.9776-47.232 121.2416-59.88864-29.2096 10.71104-52.096 19.96288-68.65408 27.7504 18.50368-12.65664 34.57536-21.42208 48.20992-26.2912-22.4 6.81472-37.98016 13.63456-46.7456 20.44928 6.81472-11.68384 12.17024-20.44928 16.06656-26.2912-22.4 15.58016-39.43936 26.2912-51.12832 32.13824 27.26912-21.4272 43.8272-33.11104 49.664-35.06176l-8.76032 1.4592c-2.9184 4.87424-9.25184 9.25184-18.99008 13.14816l8.76544-13.14816c-17.53088 5.84704-35.54816 14.61248-54.04672 26.29632-95.4368 65.24928-178.70336 97.87392-249.79456 97.87392-14.60736 0-29.70112-1.9456-45.28128-5.84704-61.35296-60.37504-92.032-127.08352-92.032-200.12544 0-114.91328 26.29632-204.02176 78.88384-267.3152l-2.9184-5.84704c12.65664-28.24192 49.664-60.6208 111.01696-97.14176 61.34784-36.52096 107.60704-54.77888 138.77248-54.77888v-4.38272c-1.9456-0.9728-3.40992-1.9456-4.38272-2.9184 3.8912 0 9.73824-0.49152 17.52576-1.46432l11.68896 2.9184 13.14816-1.45408-17.53088-1.46432-1.4592 1.46432c-1.9456-2.92352-3.40992-5.36064-4.38272-7.30624h11.68384c9.73824 0 16.55808 0.4864 20.44928 1.4592 18.50368-10.71104 28.73344-17.03936 30.67904-18.99008 1.9456-1.9456 7.30112-10.22464 16.06656-24.832 7.79264-11.68384 14.60736-18.01728 20.4544-18.99008l-0.02048-33.8944c-0.08704-28.24704-0.57344-43.24352-1.44384-44.98432-1.9456-5.84704-13.63456-16.55808-35.05664-32.13824a207.29344 207.29344 0 0 0-52.58752-21.9136C672.66048 13.14816 660.48 6.32832 654.6432 4.38272c-1.9456-2.9184-5.35552-4.38272-10.22464-4.38272-58.42944 0-95.9232 2.9184-112.48128 8.76544-87.64416 33.11104-170.9056 113.94048-249.78944 242.4832-20.44928 28.24704-35.54304 49.66912-45.2864 64.27648-33.10592 87.64928-53.5552 145.59232-61.34784 173.83424C160.90624 543.89248 153.6 604.75904 153.6 671.9488c0 95.4368 25.8048 176.26624 77.41952 242.48832 24.3456 26.29632 43.33568 45.2864 56.97024 56.97024l8.76544 1.4592 4.38272 4.38272 7.30624 2.9184a27.5712 27.5712 0 0 1 8.76032-1.4592l2.92352 2.92352v7.30624c8.76544 0 25.8048 4.864 51.12832 14.60736 29.21472 11.68384 47.232 18.50368 54.04672 20.44928l4.38272-4.38272c22.4-6.81472 41.87648-10.71104 58.42944-11.68384 37.98016-17.53088 67.6864-29.21984 89.10848-35.06176 0-5.84192 2.432-10.71104 7.30112-14.60736l5.84704 1.46432c28.24192-13.63456 55.50592-26.78272 81.80224-39.44448 10.71104-10.71104 27.26912-24.832 49.664-42.36288 6.81984 0 10.22464-0.9728 10.22464-2.9184l1.46432-2.9184 1.4592-1.46432 2.9184 2.9184c8.77056-6.81472 15.58528-11.68384 20.4544-14.60736l2.9184-5.8368 4.38784-1.46432 4.3776 4.38272 2.92352-1.46432 4.38272-5.8368h-5.82144z"
        fill="#061161"></path>
</svg>