<?xml version="1.0" encoding="UTF-8" standalone="no" ?>
<!DOCTYPE svg PUBLIC "-//W3C//DTD SVG 1.1//EN" "http://www.w3.org/Graphics/SVG/1.1/DTD/svg11.dtd">
<svg xmlns="http://www.w3.org/2000/svg" xmlns:xlink="http://www.w3.org/1999/xlink" version="1.1" width="2502" height="2502" viewBox="0 0 2502 2502" xml:space="preserve">
<desc>Created with Fabric.js 3.6.3</desc>
<defs>
</defs>
<g transform="matrix(9.77 0 0 9.77 1250.88 1250.86)"  >
<path style="stroke: none; stroke-width: 1; stroke-dasharray: none; stroke-linecap: butt; stroke-dashoffset: 0; stroke-linejoin: miter; stroke-miterlimit: 4; fill: rgb(215,54,222); fill-rule: nonzero; opacity: 1;"  transform=" translate(-128, -128)" d="M 251.172 116.594 L 139.4 4.828 c -6.433 -6.437 -16.873 -6.437 -23.314 0 l -23.21 23.21 l 29.443 29.443 c 6.842 -2.312 14.688 -0.761 20.142 4.693 c 5.48 5.489 7.02 13.402 4.652 20.266 l 28.375 28.376 c 6.865 -2.365 14.786 -0.835 20.269 4.657 c 7.663 7.66 7.663 20.075 0 27.74 c -7.665 7.666 -20.08 7.666 -27.749 0 c -5.764 -5.77 -7.188 -14.235 -4.27 -21.336 l -26.462 -26.462 l -0.003 69.637 a 19.82 19.82 0 0 1 5.188 3.71 c 7.663 7.66 7.663 20.076 0 27.747 c -7.665 7.662 -20.086 7.662 -27.74 0 c -7.663 -7.671 -7.663 -20.086 0 -27.746 a 19.654 19.654 0 0 1 6.421 -4.281 V 94.196 a 19.378 19.378 0 0 1 -6.421 -4.281 c -5.806 -5.798 -7.202 -14.317 -4.227 -21.446 L 81.47 39.442 l -76.64 76.635 c -6.44 6.443 -6.44 16.884 0 23.322 l 111.774 111.768 c 6.435 6.438 16.873 6.438 23.316 0 l 111.251 -111.249 c 6.438 -6.44 6.438 -16.887 0 -23.324" stroke-linecap="round" />
</g>
</svg>