<?xml version="1.0" encoding="UTF-8" standalone="no"?>
<svg
   xmlns:dc="http://purl.org/dc/elements/1.1/"
   xmlns:cc="http://creativecommons.org/ns#"
   xmlns:rdf="http://www.w3.org/1999/02/22-rdf-syntax-ns#"
   xmlns:svg="http://www.w3.org/2000/svg"
   xmlns="http://www.w3.org/2000/svg"
   xmlns:sodipodi="http://sodipodi.sourceforge.net/DTD/sodipodi-0.dtd"
   xmlns:inkscape="http://www.inkscape.org/namespaces/inkscape"
   id="artwork"
   viewBox="0 0 459.99999 460.00002"
   version="1.1"
   sodipodi:docname="pluginIcon_dark.svg"
   width="460"
   height="460"
   inkscape:version="1.0.2 (e86c8708, 2021-01-15)">
  <metadata
     id="metadata861">
    <rdf:RDF>
      <cc:Work
         rdf:about="">
        <dc:format>image/svg+xml</dc:format>
        <dc:type
           rdf:resource="http://purl.org/dc/dcmitype/StillImage" />
        <dc:title></dc:title>
      </cc:Work>
    </rdf:RDF>
  </metadata>
  <sodipodi:namedview
     pagecolor="#ffffff"
     bordercolor="#666666"
     borderopacity="1"
     objecttolerance="10"
     gridtolerance="10"
     guidetolerance="10"
     inkscape:pageopacity="0"
     inkscape:pageshadow="2"
     inkscape:window-width="1545"
     inkscape:window-height="1003"
     id="namedview859"
     showgrid="false"
     inkscape:pagecheckerboard="true"
     fit-margin-top="0"
     fit-margin-left="0"
     fit-margin-right="0"
     fit-margin-bottom="0"
     inkscape:zoom="1.4948119"
     inkscape:cx="230"
     inkscape:cy="230"
     inkscape:window-x="817"
     inkscape:window-y="25"
     inkscape:window-maximized="0"
     inkscape:current-layer="artwork" />
  <defs
     id="defs850">
    <style
       id="style848">.cls-1{fill:#fff;fill-rule:evenodd;}</style>
  </defs>
  <path
     class="cls-1"
     d="m 60.87,316.34 a 63.42,63.42 0 0 0 8.93,0.56 c 24.09,-0.21 36.94,-13.38 36.94,-13.38 v 13.6 h 27.81 V 182.43 h -29.46 v 79.71 c 0,29.14 -27.32,29.46 -27.32,29.46 -26.65,-1 -26.65,-35.09 -26.65,-35.09 V 182.43 H 21 v 77.06 c 0,26.16 10.07,52.87 39.87,56.85 z"
     id="path852" />
  <path
     class="cls-1"
     d="m 253.28,142 v 51.86 a 67.31,67.31 0 1 0 0,112.52 v 10.74 h 30.47 V 142 Z m -36.94,146.4 a 38.29,38.29 0 1 1 38.28,-38.28 38.29,38.29 0 0 1 -38.28,38.28 z"
     id="path854" />
  <path
     class="cls-1"
     d="m 390.76,185.2 0.16,-9.2 -26.15,23.58 25.31,25.74 0.15,-9.21 a 38.34,38.34 0 1 1 -28.67,-2.86 l -6,-28.5 a 67.64,67.64 0 0 0 -20.15,9 V 142 h -30.43 v 109.16 a 2.09,2.09 0 0 1 0,0.25 v 65.71 h 30.46 v -10.7 A 67.4,67.4 0 1 0 390.76,185.2 Z"
     id="path856" />
</svg>
