<?xml version="1.0" encoding="utf-8"?>
<svg xmlns="http://www.w3.org/2000/svg" width="40" height="40" viewBox="0 0 256 256" >
    <defs>
        <style>.cls-1{fill:#fff;}</style>
    </defs>
    <path class="cls-1" d="M 291.36 142.38 C 294.94 164.24 275.95 176.55 256.72 177.97 C 244.48 203.14 201.31 220.13 163.93 201.81 C 147.93 204.24 139.16 200.24 132.39 192.6 C 146.07 175 187.48 143.33 238.07 159.68 C 265.07 168.4 272.07 147.9 265.3 140.21 C 239.82 111.27 182.3 137.32 180.22 139.49 C 202.82 104.92 283.66 95.22 291.36 142.38 Z M 213.89 102.65 C 214.03 102.6 195.52 96.06 169.63 107.24 C 168.586 106.858 167.564 106.417 166.57 105.92 C 191.47 89.39 213.3 82.36 232 85.09 C 220.7 72.09 166.4 62.53 135.29 93.69 C 96.83 86.12 69.93 118.69 71.46 148.47 C 72.99 178.25 105.46 196.77 123.96 191.75 C 124.405 191.695 124.855 191.695 125.3 191.75 C 129.39 172.08 146.1 126.32 213.89 102.65 Z" transform="matrix(1, 0, 0, 1, -71.360001, -72.830002)"/>
</svg>
