<svg xmlns="http://www.w3.org/2000/svg" width="40" height="40" viewBox="0 0 40 40">
 <g fill="none" fill-rule="evenodd">
  <path id="svg_1" fill="#7c2623" d="m19.93881,3.30177l0,4.929l0.053,-0.054l10.339,6l0,5.197l-10.393,-6.268l-4.339,2.571l4.339,2.518l10.393,5.946l0,2.144l-10.339,6.106l-0.053,0l0,4.769l14.678,-8.464l0,-16.929"/>
  <path id="svg_2" fill="#bc3a2f" d="m19.93881,22.37939l-10.393,-5.839l0,-2.357l10.393,-5.947l0,-4.929l-14.679,8.465l0,16.929l14.679,8.464l0,-4.769l-10.393,-5.892l0,-4.928l10.393,5.839l0.053,0l4.393,-2.571"/>
 </g>
</svg>