<?xml version="1.0" standalone="no"?><!DOCTYPE svg PUBLIC "-//W3C//DTD SVG 1.1//EN" "http://www.w3.org/Graphics/SVG/1.1/DTD/svg11.dtd"><svg t="1687966109550" class="icon" viewBox="0 0 1024 1024" version="1.1" xmlns="http://www.w3.org/2000/svg" p-id="3606" xmlns:xlink="http://www.w3.org/1999/xlink" width="64" height="64"><path d="M512.511744 0.511744C229.952224 0.511744 0.767616 229.696352 0.767616 512.255872s229.184608 511.744128 511.744128 511.744128 511.744128-229.184608 511.744128-511.744128S795.071264 0.511744 512.511744 0.511744z" fill="#515151" p-id="3607"></path><path d="M568.48150982 512.3533185a55.68300961 55.68300961 0 0 1-55.77487282 55.77487281 55.68300961 55.68300961 0 0 1-55.77487281-55.77487281c0-41.82938851-13.94195211-55.77487281-55.77487282-55.77487281-41.82938851 0-55.52401684 14.19280807-55.52401684 55.77487281a55.68300961 55.68300961 0 0 1-55.77487281 55.77487281 55.68300961 55.68300961 0 0 1-55.77133925-55.77487281 55.68300961 55.68300961 0 0 1 55.77133925-55.77487281c41.83292071 0 55.77487281-13.94195211 55.77487281-55.77133925a55.68300961 55.68300961 0 0 1 55.77487282-55.77487281 55.68300961 55.68300961 0 0 1 55.77487281 55.77487281c0 41.82938851 13.94195211 55.77133924 55.77134063 55.77133925 30.37833241 0.25085597 55.52755041 25.14921802 55.52754903 55.77487281zM178.55911205 679.67440337c30.80584763 0 55.77487281-24.96902518 55.77487282-55.77133925 0-30.80584763-24.96902518-55.77487281-55.77487282-55.77487281-30.80231543 0-55.77133924 24.96902518-55.77133923 55.77487281 0 30.80231543 24.96902518 55.77133924 55.77133923 55.77133925zM902.37817879 401.05442885a55.68300961 55.68300961 0 0 1-55.77487281 55.77487281c-41.82938851 0-55.77487281 13.94195211-55.77487281 55.77487282a55.68300961 55.68300961 0 0 1-55.77134063 55.77134062c-41.83292071 0-55.77487281 13.9454843-55.77487282 55.77487281a55.68300961 55.68300961 0 0 1-55.77487281 55.77487282 55.68300961 55.68300961 0 0 1-55.77487282-55.77487283 55.68300961 55.68300961 0 0 1 55.77487282-55.7748728c41.82938851 0 55.77487281-13.94195211 55.77487281-55.77134061a55.68300961 55.68300961 0 0 1 55.77487282-55.77487283c41.82938851 0 55.77133924-13.9454843 55.77134063-55.77487281a55.68300961 55.68300961 0 0 1 55.77487281-55.77487281c30.87651216 0 55.77487281 25.14921802 55.77487281 55.77487281z" fill="#FFFFFF" p-id="3608"></path></svg>