<svg width="400" height="400" xmlns="http://www.w3.org/2000/svg">

 <g>
  <title>background</title>
  <rect fill="none" id="canvas_background" height="402" width="402" y="-1" x="-1"/>
 </g>
 <g>
  <title>Layer 1</title>
  <ellipse ry="192.5" rx="192.5" id="svg_4" cy="200" cx="200" stroke-width="0" stroke="none" fill="#ffffff"/>
  <g id="svg_3">
   <path id="svg_1" d="m193.945999,101.998535l0,27.509033c-12.087006,-5.25 -40.5,-15.75 -64.210999,-14.650024c-23.859001,1.106995 -42.172005,7.301025 -54.859001,21.902008c-12.689003,14.602997 -19.033005,35.709991 -19.033005,63.325989c0,27.524017 6.344002,48.584991 19.033005,63.186005c12.686996,14.602997 30.973999,21.901001 54.859001,21.901001c12.126999,0 41.460999,-5.665009 64.210999,-19.11499l0,29.527985c-8.75,2.671997 -33.75,12.421997 -65.891006,12.817993c-31.624992,0.390015 -56.537994,-9.678009 -74.730995,-29.039001c-18.193001,-19.358002 -27.290001,-45.783997 -27.290001,-79.279999c0,-33.586975 9.097,-60.05899 27.290001,-79.419983c18.193001,-19.358002 43.112999,-28.252014 74.730995,-29.039001c24.891006,-0.617981 47.699005,6.062988 65.891006,10.372986zm167.423019,0.264008l0,27.569c-10.729004,-5.130005 -20.85199,-8.957001 -30.368042,-11.475983s-18.70697,-3.778015 -27.56897,-3.778015c-15.39502,0 -27.268005,2.987 -35.616028,8.957001c-8.35199,5.972015 -12.524963,14.462006 -12.524963,25.470001c0,9.235992 2.773987,16.212006 8.326965,20.921997c5.549988,4.712006 16.069031,8.515015 31.558044,11.406006l17.072998,3.498993c21.083984,4.013 36.643005,11.080017 46.672974,21.201996c10.026978,10.123993 15.044006,23.675018 15.044006,40.653992c0,20.247009 -6.786987,35.595001 -20.362,46.042999c-13.575012,10.450012 -33.471985,15.674011 -59.687988,15.674011c-9.890015,0 -20.410034,-1.118988 -31.558014,-3.358002c-11.149994,-2.239014 -22.695007,-5.549988 -34.637009,-9.937012l0,-29.108978c11.476013,6.437988 22.716995,11.289978 33.727005,14.554993c11.007996,3.266998 21.832031,4.89801 32.468018,4.89801c16.139954,0 28.596008,-3.171021 37.365967,-9.516998c8.769043,-6.343994 13.155029,-15.39502 13.155029,-27.149017c0,-10.261993 -3.148987,-18.285004 -9.447021,-24.070984c-6.296997,-5.78302 -16.632019,-10.122009 -30.997986,-13.015015l-17.213013,-3.358002c-21.085999,-4.199005 -36.341003,-10.776001 -45.762985,-19.733002c-9.425003,-8.957001 -14.13501,-21.411987 -14.13501,-37.365997c0,-18.472992 6.507996,-33.026978 19.522018,-43.664001c13.014984,-10.635986 30.950012,-15.95401 53.809998,-15.95401c9.795959,0 19.778015,0.888 29.947998,2.659027c10.167969,1.77301 20.57196,4.432007 31.208008,7.97699z"/>
   <path id="svg_2" d="m106.144997,173.294556c0,-2.980011 1.024002,-5.494995 3.074005,-7.544006c2.047997,-2.048004 4.562996,-3.072998 7.543999,-3.072998c3.033997,0 5.561005,1.010986 7.584,3.033997c2.021988,2.02301 3.033997,4.549988 3.033997,7.583984s-1.012009,5.563019 -3.033997,7.584015c-2.022995,2.02301 -4.55101,3.033997 -7.584,3.033997c-2.981003,0 -5.496002,-1.023987 -7.543999,-3.074005c-2.050003,-2.048981 -3.074005,-4.563995 -3.074005,-7.544983zm0,52.052002c0,-2.979004 1.024002,-5.509003 3.074005,-7.584015c2.047997,-2.075989 4.562996,-3.113007 7.543999,-3.113007c2.979996,0 5.494995,1.037018 7.544006,3.113007c2.047989,2.075012 3.07399,4.604004 3.07399,7.584015c0,2.980988 -1.012009,5.496002 -3.033997,7.544983c-2.022995,2.048004 -4.55101,3.072998 -7.584,3.072998s-5.562004,-1.024994 -7.584,-3.072998c-2.024002,-2.048981 -3.034004,-4.563995 -3.034004,-7.544983zm54.935997,-52.052002c0,-2.980011 1.024002,-5.494995 3.07399,-7.544006c2.048004,-2.048004 4.563004,-3.072998 7.544006,-3.072998c3.033997,0 5.561005,1.010986 7.584,3.033997c2.022003,2.02301 3.033997,4.549988 3.033997,7.583984s-1.011993,5.563019 -3.033997,7.584015c-2.022995,2.02301 -4.550995,3.033997 -7.584,3.033997c-2.981003,0 -5.496002,-1.023987 -7.544006,-3.074005c-2.049988,-2.048981 -3.07399,-4.563995 -3.07399,-7.544983zm0,52.052002c0,-2.979004 1.024002,-5.509003 3.07399,-7.584015c2.048004,-2.075989 4.563004,-3.113007 7.544006,-3.113007c2.979996,0 5.494995,1.037018 7.544006,3.113007c2.047989,2.075012 3.07399,4.604004 3.07399,7.584015c0,2.980988 -1.011993,5.496002 -3.033997,7.544983c-2.022995,2.048004 -4.550995,3.072998 -7.584,3.072998s-5.563004,-1.024994 -7.584,-3.072998c-2.022995,-2.048981 -3.033997,-4.563995 -3.033997,-7.544983z"/>
  </g>
 </g>
</svg>