<svg xmlns="http://www.w3.org/2000/svg" viewBox="0 0 120 150"><defs><style>.cls-1{fill:#fff;}</style></defs><g id="Layer_2"><g id="Layer_1-2"><path class="cls-1" d="M73.81,13.44,69.5,9.13,62.26,1.9A5.87,5.87,0,0,0,56.5.17a5,5,0,0,0-3.66,3.47,5.12,5.12,0,0,0,.94,5c.48.53,1,1,1.5,1.55l8.64,8.64C65,19.92,66.09,21,67.15,22.1a13.54,13.54,0,0,1,2.94,4.3A7.66,7.66,0,0,1,68.48,35,8.87,8.87,0,0,1,65,37.47,7.47,7.47,0,0,1,58.71,37a18.58,18.58,0,0,1-1.87-1.19c-.18-.13-.36-.26-.55-.38s-.27-.18-.42-.13a2,2,0,0,1-2.42-1.14,2.1,2.1,0,0,1,.72-2.57,2.06,2.06,0,0,1,2.6.24,2,2,0,0,1,.6,2,9.73,9.73,0,0,0,3.15,1.88,5.42,5.42,0,0,0,5.37-.87,7.49,7.49,0,0,0,2.51-3.12A5.92,5.92,0,0,0,68,26.58a13.44,13.44,0,0,0-2.62-3.52l-1.79-1.79c-3.16-3.17-6.44-6.45-9.69-9.64a13.85,13.85,0,0,0-9-4A14.29,14.29,0,0,0,34.53,11a15.36,15.36,0,0,0-1.16,1.13l-.14.15a13.9,13.9,0,0,1,4.88,3.15l.24.23c.43.42.85.85,1.27,1.28.07.07.07.07.17,0a2.09,2.09,0,0,1,2.35,1,2.08,2.08,0,0,1-2.86,2.8,2.11,2.11,0,0,1-1-2.35.19.19,0,0,0,0-.08l-.46-.46a20.73,20.73,0,0,0-2.7-2.42,12.26,12.26,0,0,0-13.59-.17c-.33.22-.65.47-1,.72s-.34.27-.51.39a.43.43,0,0,1-.16.09l-.77.77-.7.94a12.24,12.24,0,0,0-.05,14.51,14.67,14.67,0,0,0,1.29,1.5q2.48,2.49,5,5L28,42.55l.08.07a.16.16,0,0,0,.09,0,2.07,2.07,0,0,1,2,3.48A2.06,2.06,0,0,1,26.72,44c0-.06,0-.08,0-.13l-.8-.8-7.74-7.74a13.76,13.76,0,0,1-3.79-7.23c-.24.28-.46.55-.67.84a17.48,17.48,0,0,0-2.92,15.16,16.69,16.69,0,0,0,4.4,7.71L20,56.7q3.74,3.77,7.48,7.51a5.84,5.84,0,0,0,9.47-6.66,2.09,2.09,0,0,1-2.35-1.65,2.06,2.06,0,0,1,1.48-2.39,2,2,0,0,1,2.15.69,2,2,0,0,1,.34,2c-.05.14,0,.18,0,.26A7.76,7.76,0,0,1,27.28,66.59a9.74,9.74,0,0,1-1.1-1l-6.4-6.39L13.9,53.34c-.51-.51-1-1-1.58-1.5a5.82,5.82,0,0,0-8.24,8.1,7.67,7.67,0,0,0,.67.76l2,2,2.57,2.58c.1.1.12.1.23.07a2.06,2.06,0,0,1,1.79,3.62A2,2,0,0,1,8.86,69,2,2,0,0,1,8,67.12a5.6,5.6,0,0,0-7,8.18,5,5,0,0,0,.7.87q7,7,14.09,14.09a10.51,10.51,0,0,0,1.13,1c.57.43.72.43,1.27,0s1-.91,1.45-1.34L32.69,76.74,51.06,58.38a6.65,6.65,0,0,0,2-6.46,6.49,6.49,0,0,0-1.89-3.35l-7.14-7.11c-1.88-1.88-3.75-3.77-5.62-5.65A7.76,7.76,0,0,1,47.07,23.2a.24.24,0,0,0,.1,0l.07,0a2,2,0,0,1,2.81.41,2.06,2.06,0,0,1-3,2.77A1.85,1.85,0,0,1,46.36,25s0,0-.08,0a5.84,5.84,0,0,0-6.66,1.27,5.78,5.78,0,0,0-.87,6.8,6.69,6.69,0,0,0,1.1,1.45q6.33,6.38,12.69,12.7a8.45,8.45,0,0,1,2.6,7.09L68.74,40.7Q77.1,32.33,85.45,24a13.66,13.66,0,0,0,4.19-10,13.57,13.57,0,0,0-3.2-8.79A.73.73,0,0,1,86.33,5L84.86,3.54l-.34-.24-.83-.6a13.76,13.76,0,0,0-15.64,0c-.29.2-.57.42-.85.65l-.43.33,8.41,8.42s0,0,.11,0a2.07,2.07,0,0,1,2.15,3.3,2.07,2.07,0,0,1-3.61-1.86Z"/><path class="cls-1" d="M25.32,109.61l4.31,4.31,7.24,7.23a5.87,5.87,0,0,0,5.76,1.73,5.3,5.3,0,0,0,2.72-8.48c-.48-.53-1-1.05-1.5-1.55l-8.64-8.64C34.13,103.12,33,102,32,101A13.54,13.54,0,0,1,29,96.65,7.67,7.67,0,0,1,30.65,88a9.08,9.08,0,0,1,3.52-2.47,7.47,7.47,0,0,1,6.25.52,15.61,15.61,0,0,1,1.87,1.19l.55.38c.22.15.27.17.42.12a2,2,0,0,1,2.42,1.15,2.07,2.07,0,1,1-3.92.36,9.87,9.87,0,0,0-3.15-1.87,5.4,5.4,0,0,0-5.37.87,7.37,7.37,0,0,0-2.51,3.12,5.92,5.92,0,0,0,.36,5.06A13.44,13.44,0,0,0,33.71,100l1.79,1.79c3.16,3.17,6.44,6.45,9.68,9.64a13.9,13.9,0,0,0,9,4A14.26,14.26,0,0,0,64.6,112a13.65,13.65,0,0,0,1.16-1.13l.14-.15A13.73,13.73,0,0,1,61,107.61l-.24-.23c-.43-.43-.85-.85-1.27-1.29-.07-.07-.07-.07-.17,0a2.06,2.06,0,0,1-2-3.49,2,2,0,0,1,2.47-.31,2.13,2.13,0,0,1,1,2.36.17.17,0,0,0,0,.07l.46.46a20.8,20.8,0,0,0,2.7,2.43,12.26,12.26,0,0,0,13.59.17c.33-.22.65-.47,1-.72l.51-.4a.6.6,0,0,1,.16-.08l.77-.77.7-1a12.23,12.23,0,0,0,0-14.5,13.67,13.67,0,0,0-1.29-1.5c-1.65-1.67-3.3-3.32-5-5l-3.34-3.35c-.06-.06-.08-.06-.08-.06a.16.16,0,0,0-.09,0,2,2,0,0,1-2.35-1A2,2,0,0,1,69,77a2.06,2.06,0,0,1,3.43,2,.13.13,0,0,0,0,.14l.79.79Q77.14,83.8,81,87.68a13.72,13.72,0,0,1,3.79,7.23c.24-.28.46-.56.67-.84a17.5,17.5,0,0,0,2.92-15.16A16.69,16.69,0,0,0,84,71.2l-4.84-4.86-7.48-7.5a5.83,5.83,0,0,0-9.47,6.65,2.09,2.09,0,0,1,2.35,1.65,2.07,2.07,0,0,1-1.48,2.4,2,2,0,0,1-2.15-.69,2,2,0,0,1-.34-2,.25.25,0,0,0,0-.27A7.76,7.76,0,0,1,71.85,56.46a8.1,8.1,0,0,1,1.1,1l6.4,6.39,5.88,5.88c.51.51,1,1,1.58,1.5a5.78,5.78,0,0,0,7.08.13,5.84,5.84,0,0,0,1.16-8.23,7.47,7.47,0,0,0-.67-.75l-2-2-2.57-2.57c-.1-.1-.12-.1-.23-.07a2.06,2.06,0,0,1-1.79-3.62A2,2,0,0,1,90.27,54a2,2,0,0,1,.9,1.92,5.6,5.6,0,0,0,7-8.19,4.91,4.91,0,0,0-.7-.86q-7-7.07-14.09-14.09a10.69,10.69,0,0,0-1.13-1c-.57-.43-.72-.42-1.27.05s-1,.92-1.45,1.34L66.44,46.3q-9.18,9.2-18.38,18.37a6.62,6.62,0,0,0-2,6.46,6.49,6.49,0,0,0,1.89,3.35c2.38,2.36,4.76,4.74,7.14,7.11q2.82,2.82,5.62,5.65a7.75,7.75,0,0,1-8.64,12.6l-.1,0-.07,0a2,2,0,0,1-2.81-.41,2.07,2.07,0,0,1,.27-2.85,2,2,0,0,1,2.78.08,1.85,1.85,0,0,1,.64,1.38s0,0,.08,0a5.83,5.83,0,0,0,6.66-1.28A5.76,5.76,0,0,0,60.38,90a7,7,0,0,0-1.1-1.46Q53,82.18,46.59,75.84A8.42,8.42,0,0,1,44,68.75l-13.6,13.6L13.68,99.06a13.86,13.86,0,0,0-1,18.79,1.25,1.25,0,0,1,.11.18l1.47,1.47.34.25.83.59a13.75,13.75,0,0,0,15.64,0c.29-.21.57-.43.85-.65l.43-.33c-2.83-2.83-5.63-5.62-8.41-8.42,0,0,0,0-.11,0a2.06,2.06,0,0,1-2.31-.92,2.09,2.09,0,0,1,.16-2.37,2.07,2.07,0,0,1,3.61,1.85Z"/></g></g></svg>