<?xml version="1.0" standalone="no"?><!DOCTYPE svg PUBLIC "-//W3C//DTD SVG 1.1//EN" "http://www.w3.org/Graphics/SVG/1.1/DTD/svg11.dtd"><svg t="1658911660184" class="icon" viewBox="0 0 1024 1024" version="1.1" xmlns="http://www.w3.org/2000/svg" p-id="949" width="48" height="48" xmlns:xlink="http://www.w3.org/1999/xlink"><defs><style type="text/css">@font-face { font-family: feedback-iconfont; src: url("//at.alicdn.com/t/font_1031158_u69w8yhxdu.woff2?t=1630033759944") format("woff2"), url("//at.alicdn.com/t/font_1031158_u69w8yhxdu.woff?t=1630033759944") format("woff"), url("//at.alicdn.com/t/font_1031158_u69w8yhxdu.ttf?t=1630033759944") format("truetype"); }
</style></defs><path d="M575.936794 0.000213a127.985148 127.985148 0 0 1 108.040797 196.649181l181.994881 254.81843a127.985148 127.985148 0 1 1-78.113603 55.801525l-181.994881-254.81843c-2.709019 0.639926-5.439369 1.215859-8.21238 1.685137l-102.388119 470.793369a159.981435 159.981435 0 1 1-199.016906 32.806859L147.911796 510.404985a127.985148 127.985148 0 1 1 82.294451-49.380936l148.398779 247.288637a159.59748 159.59748 0 0 1 22.888011-3.754231l102.345457-470.814699A127.985148 127.985148 0 0 1 575.936794 0.000213z" fill="#FF6A00" p-id="950"></path></svg>