<?xml version="1.0" encoding="UTF-8" standalone="no"?>
<!-- Generator: Adobe Illustrator 26.3.1, SVG Export Plug-In . SVG Version: 6.00 Build 0)  -->

<svg
        version="1.1"
        id="Layer_1"
        width="40"
        height="40"
        viewBox="-1 -1 80 80"
        style="enable-background:new 0 0 78.2 77.7;"
        xml:space="preserve"
        xmlns:inkscape="http://www.inkscape.org/namespaces/inkscape"
        xmlns:sodipodi="http://sodipodi.sourceforge.net/DTD/sodipodi-0.dtd"
        xmlns="http://www.w3.org/2000/svg"
><defs
   id="defs223"><filter
     style="color-interpolation-filters:sRGB;"
     inkscape:label="Drop Shadow"
     id="filter393"
     x="-0.007787305"
     y="-0.026788238"
     width="1.0411586"
     height="1.0344815"><feFlood
       flood-opacity="0.31061598951507208"
       flood-color="rgb(0,0,0)"
       result="flood"
       id="feFlood383" /><feComposite
       in="flood"
       in2="SourceGraphic"
       operator="in"
       result="composite1"
       id="feComposite385" /><feGaussianBlur
       in="composite1"
       stdDeviation="0"
       result="blur"
       id="feGaussianBlur387" /><feOffset
       dx="1.9973368841544641"
       dy="-1.4647137150465994"
       result="offset"
       id="feOffset389" /><feComposite
       in="SourceGraphic"
       in2="offset"
       operator=""
       result="composite2"
       id="feComposite391" /></filter></defs><sodipodi:namedview
   id="namedview221"
   pagecolor="#ffffff"
   bordercolor="#000000"
   borderopacity="0.25"
   inkscape:showpageshadow="2"
   inkscape:pageopacity="0.0"
   inkscape:pagecheckerboard="0"
   inkscape:deskcolor="#d1d1d1"
   showgrid="false"
   inkscape:zoom="14.914842"
   inkscape:cx="23.500081"
   inkscape:cy="19.946573"
   inkscape:window-width="1792"
   inkscape:window-height="1023"
   inkscape:window-x="0"
   inkscape:window-y="25"
   inkscape:window-maximized="1"
   inkscape:current-layer="g216" />
<g
   transform="matrix(0.93346828,0,0,0.95680357,-19.295364,43.035768)"
   id="g218"
   style="stroke-width:1.05813">
	<g
   id="g216"
   style="stroke-width:1.05813">
		<g
   id="g184"
   style="stroke-width:1.05813;filter:url(#filter393)">
			<path
   style="fill:#40a4e5;stroke:#000000;stroke-width:1.03168;stroke-miterlimit:11.3386;fill-opacity:1"
   d="m 37.5,21.9 h 16.7 l 0.4,10.9 -14.8,1 z"
   id="path132" />
			<path
   style="fill:#5e9cc3;stroke:#000000;stroke-width:1.03168;stroke-miterlimit:11.3386;fill-opacity:1"
   d="M 71.1,21.8 69.9,34.5 54.9,32.8 54.5,21.9 Z"
   id="path134" />
			<path
   style="fill:#5088ac;stroke:#000000;stroke-width:1.03168;stroke-miterlimit:11.3386;fill-opacity:1"
   d="m 84.2,18.3 v 14.5 l -14,1.7 1.2,-12.7 z"
   id="path136" />
			<path
   style="fill:#3282b6;stroke:#000000;stroke-width:1.03168;stroke-miterlimit:11.3386;fill-opacity:1"
   d="m 23.5,18.3 13.7,3.6 2.3,11.9 -14.3,-1 z"
   id="path138" />
			<path
   style="fill:#7da5bf;stroke:#000000;stroke-width:1.03168;stroke-miterlimit:11.3386;fill-opacity:1"
   d="M 84.5,18.3 101.29843,18.720446 100,34.5 84.5,32.8 Z"
   id="path140"
   sodipodi:nodetypes="ccccc" />
			<path
   style="fill:#4d9ed1;stroke:#000000;stroke-width:1.03168;stroke-miterlimit:11.3386;fill-opacity:1"
   d="m 38.9,6.5 11.9,1.7 3.4,13.5 H 37.5 Z"
   id="path142" />
			<path
   style="fill:#3a82bd;stroke:#000000;stroke-width:1.03168;stroke-miterlimit:11.3386;fill-opacity:1"
   d="m 68.1,4.4 3,17.1 -16.6,0.1 -3.4,-13.5 z"
   id="path144" />
			<path
   style="fill:#3da3e6;stroke:#000000;stroke-width:1.03168;stroke-miterlimit:11.3386;fill-opacity:1"
   d="M 25.2,3.5 38.7,6.5 37.3,21.6 23.5,18 Z"
   id="path146" />
			<path
   style="fill:#376380;stroke:#000000;stroke-width:1.03168;stroke-miterlimit:11.3386;fill-opacity:1"
   d="M 87,1.8 84.2,18 71.3,21.5 68.3,4.4 Z"
   id="path148" />
			<path
   style="fill:#3486bb;stroke:#000000;stroke-width:1.03168;stroke-miterlimit:11.3386;fill-opacity:1"
   d="M 87.3,1.8 99.574608,4.3810397 101.29843,18.420446 84.5,18 Z"
   id="path150"
   sodipodi:nodetypes="ccccc" />
			<path
   style="fill:#3981af;stroke:#000000;stroke-width:1.03168;stroke-miterlimit:11.3386;fill-opacity:1"
   d="M 84.2,-11.4 87,1.5 68.4,4.1 73.6,-10.2 Z"
   id="path152" />
			<path
   style="fill:#5f9ec6;stroke:#000000;stroke-width:1.03168;stroke-miterlimit:11.3386;fill-opacity:1"
   d="M 84.5,-11.4 102.16034,-11.820446 99.574608,4.0810397 87.3,1.5 Z"
   id="path154"
   sodipodi:nodetypes="ccccc" />
			<path
   style="fill:#5fa2cd;stroke:#000000;stroke-width:1.03168;stroke-miterlimit:11.3386;fill-opacity:1"
   d="m 23.9,-11.5 13.9,2.1 0.8,15.5 -13.4,-3 z"
   id="path156" />
			<path
   style="fill:#5088ac;stroke:#000000;stroke-width:1.03168;stroke-miterlimit:11.3386;fill-opacity:1"
   d="M 84.3,-11.5 Z"
   id="path158" />
			<path
   style="fill:#3596d5;stroke:#000000;stroke-width:1.03168;stroke-miterlimit:11.3386;fill-opacity:1"
   d="M 51.7,-11.7 50.8,7.8 38.9,6.2 38.1,-9.3 Z"
   id="path160" />
			<path
   style="fill:#82b0cf;stroke:#000000;stroke-width:1.03168;stroke-miterlimit:11.3386;fill-opacity:1"
   d="m 52,-11.7 21.3,1.5 -5.2,14.3 -17,3.7 z"
   id="path162" />
			<path
   style="fill:#6698b8;stroke:#000000;stroke-width:1.03168;stroke-miterlimit:11.3386;fill-opacity:1"
   d="m 69.7,-26.2 h 14.5 v 14.5 l -10.6,1.2 z"
   id="path164" />
			<path
   style="fill:#5f8faf;stroke:#000000;stroke-width:1.03168;stroke-miterlimit:11.3386;fill-opacity:1"
   d="m 100.6,-28.1 1.56034,15.979554 L 84.5,-11.7 v -14.5 z"
   id="path166"
   sodipodi:nodetypes="ccccc" />
			<path
   style="fill:#6ea4c7;stroke:#000000;stroke-width:1.03168;stroke-miterlimit:11.3386;fill-opacity:1"
   d="m 38,-28.4 -0.2,18.8 -13.9,-2.2 1.3,-14.4 z"
   id="path168" />
			<path
   style="fill:#5080ac;stroke:#000000;stroke-width:1.03168;stroke-miterlimit:11.3386;fill-opacity:1"
   d="m 57.5,-28.6 11.9,2.4 3.9,15.7 L 52,-12 Z"
   id="path170" />
			<path
   style="fill:#3597d8;stroke:#000000;stroke-width:1.03168;stroke-miterlimit:11.3386;fill-opacity:1"
   d="M 57.2,-28.6 51.7,-12 38.1,-9.6 38.3,-28.3 Z"
   id="path172" />
			<path
   style="fill:#306c92;stroke:#000000;stroke-width:1.03168;stroke-miterlimit:11.3386;fill-opacity:1"
   d="m 40,-41 14.4,1.3 2.7,10.8 -18.8,0.2 z"
   id="path174" />
			<path
   style="fill:#2195dc;stroke:#000000;stroke-width:1.03168;stroke-miterlimit:11.3386;fill-opacity:1"
   d="M 39.7,-41 38,-28.7 25.1,-26.5 24,-40.3 Z"
   id="path176" />
			<path
   style="fill:#36a4eb;stroke:#000000;stroke-width:1.03168;stroke-miterlimit:11.3386;fill-opacity:1"
   d="m 71.1,-41.4 -1.7,14.9 -11.9,-2.4 -2.7,-10.8 z"
   id="path178" />
			<path
   style="fill:#3e97d0;stroke:#000000;stroke-width:1.03168;stroke-miterlimit:11.3386;fill-opacity:1"
   d="m 71.4,-41.4 13.6,1.3 -0.8,13.6 H 69.7 Z"
   id="path180" />
			<path
   style="fill:#549ece;stroke:#000000;stroke-width:1.03168;stroke-miterlimit:11.3386;fill-opacity:1"
   d="m 99.8,-42.1 0.8,13.7 -16.1,1.9 0.8,-13.6 z"
   id="path182" />
		</g>
		<g
   id="g214"
   style="display:inline;stroke-width:1.05813">
			<g
   transform="matrix(0.93878,0,0,0.87103,2.5958,-5.1023)"
   id="g204"
   style="stroke-width:1.05813">
				<path
   d="m 42.6,-37.7 c -1.2,0 -2.9,0.4 -4.4,1.6 -1.3,1.1 -2.1,2.9 -2.4,5.3 -0.3,0 -0.6,0 -0.9,0 -0.2,0 -0.5,0 -0.7,0.1 -0.2,0 -0.4,0.1 -0.8,0.3 v 0 0 c -0.3,0.2 -0.3,0.3 -0.3,0.3 -0.1,0.1 -0.1,0.1 -0.1,0.2 -0.1,0.1 -0.2,0.3 -0.3,0.6 -0.2,0.5 -0.5,1.1 -0.7,1.9 -0.5,1.6 -1,3.9 -1,6.8 0,3.3 0.7,6.5 2.3,9 1.7,2.5 4.5,4.2 8.3,4.2 4.5,0 7.5,-2.3 9.2,-5.3 1.6,-3 2.1,-6.7 2.1,-10 0,-4.6 -0.7,-8.3 -2.4,-11 -1.7,-2.5 -4.5,-4 -7.9,-4 z m 0,2.4 c 2.7,0 4.4,1 5.7,3 1.3,2 2,5.3 2,9.7 0,3.1 -0.5,6.4 -1.8,8.9 -1.3,2.4 -3.3,4 -7,4 -3.1,0 -4.9,-1.2 -6.2,-3.1 -1.3,-1.9 -1.9,-4.7 -1.9,-7.6 0,-2.7 0.4,-4.7 0.9,-6.1 0.2,-0.7 0.4,-1.2 0.6,-1.5 0,-0.1 0,-0.1 0.1,-0.1 0.1,0 0.1,0 0.2,0 0.3,0 0.8,0 1.1,0 H 37 l -0.7,0.9 c -0.4,0.5 -0.6,1.1 -0.8,2.1 -0.3,1.1 -0.5,2.6 -0.5,4.5 0,2.4 0.6,4.6 1.7,6.3 1.1,1.7 2.8,3 4.9,3 2.9,0 4.9,-1.8 5.9,-4.1 1,-2.2 1.2,-4.9 1.2,-7.5 0,-3.6 -0.5,-6.1 -1.5,-7.9 -1,-1.8 -2.6,-2.7 -4.3,-2.7 -1.3,0 -2.4,0.6 -3,1.5 -0.6,0.8 -0.9,1.8 -0.9,2.8 0,3.5 1.7,6.2 2.5,7.4 -0.3,0.1 -0.7,0.2 -1,0.2 -0.2,-0.2 -0.4,-0.5 -0.6,-1 -0.5,-1 -1.1,-2.5 -1.4,-4.3 l -0.4,-2.6 v -0.1 c 0,-2.6 0.8,-3.9 1.8,-4.7 0.9,-0.7 2.1,-1 2.7,-1 z m 0.3,4.3 c 0.9,0 1.5,0.3 2.1,1.4 0.6,1.2 1.1,3.3 1.1,6.7 0,2.4 -0.3,4.8 -1,6.5 -0.7,1.7 -1.6,2.6 -3.6,2.6 -1.1,0 -2,-0.6 -2.8,-1.8 -0.8,-1.2 -1.3,-3 -1.3,-5 0,-0.5 0.1,-0.7 0.1,-1.2 0.1,0.1 0.1,0.3 0.1,0.4 0.3,0.6 0.6,1.1 0.9,1.5 0.1,0.2 0.3,0.3 0.4,0.5 0.1,0.1 0.1,0.1 0.2,0.2 0.1,0.1 0.2,0.3 0.8,0.3 1,0 1.9,-0.3 2.6,-0.6 0.4,-0.2 0.7,-0.4 0.9,-0.6 0.1,-0.1 0.3,-0.2 0.4,-0.4 0.1,-0.2 0.3,-0.4 0.3,-0.9 V -22 l -0.2,-0.3 c 0,0 -2.7,-3.9 -2.7,-6.9 0,-0.4 0.2,-1 0.4,-1.3 0.5,-0.3 0.8,-0.5 1.3,-0.5 z"
   id="path186"
   style="stroke-width:1.05813" />
				<g
   id="g190"
   style="stroke-width:1.05813">
					<path
   style="fill:#e9f2fa;stroke-width:1.05813"
   d="m 41.5,-8.5 c 8.2,0 10,-7.7 10,-14.1 0,-9 -2.8,-13.9 -8.9,-13.9 -1.8,0 -5.8,1.3 -5.8,6.9 h -0.6 c -0.7,0 -1.8,0 -2.1,0.2 -0.2,0.1 -2,3.2 -2,8.8 0.1,6.3 2.6,12.1 9.4,12.1 z m 5.9,-14.4 c 0,4.9 -0.9,10.3 -5.8,10.3 -3.1,0 -5.3,-3.7 -5.3,-8.1 0,-3.8 0.8,-5.6 1.1,-6 0.6,3.9 2.5,6.4 2.8,6.4 1.5,0 3.1,-1 3.1,-1.3 0,0 -2.9,-4 -2.9,-7.7 0,-1.4 0.8,-3 2.7,-3 2.4,0 4.3,2.4 4.3,9.4 z"
   id="path188" />
				</g>
				<path
   d="m 57.1,-30.3 c -0.9,0 -1.7,0.3 -2.3,0.6 -0.7,0.3 -1.2,0.7 -1.7,1.2 l -0.3,0.4 v 0.5 c 0.1,0.7 0.1,2.4 0.1,4.4 0,5.1 -0.2,13 -0.2,18.5 0,2.3 0,4.1 0.1,5.2 0,0 0,0 0,0 0,0.5 0.4,1 0.6,1.1 0.3,0.2 0.4,0.2 0.6,0.2 0.3,0 0.4,0 0.5,0 0.6,0 1.3,-0.1 2.1,-0.3 C 57.4,1.3 58.2,1 58.8,0.2 L 59.1,-0.2 59,-0.7 c 0,-0.3 -0.1,-1.9 -0.2,-3.5 0,-1.5 -0.1,-3.2 -0.1,-4.2 1.3,-0.2 2.8,-0.5 4.5,-1.8 2.2,-1.7 4.1,-4.6 4.1,-8.9 0,-4.3 -1.8,-6.8 -4,-8.1 -1.7,-1 -3.2,-1 -4.5,-1 0,-0.4 0,-0.8 0,-0.9 v -0.6 l -0.5,-0.4 c -0.4,-0.3 -0.9,-0.2 -1.2,-0.2 z m -0.6,2.6 c 0,0.2 0,0.5 0,0.6 v 1.2 h 1.2 c 1.1,0 3,0.1 4.5,1 1.5,0.9 2.8,2.4 2.8,6 0,3.6 -1.5,5.6 -3.2,6.9 -1.7,1.3 -3.8,1.7 -4.3,1.7 h -1.2 v 1.8 c 0,1 0,2.8 0.1,4.4 0,1.3 0.1,2.2 0.1,2.9 -0.1,0.2 -0.2,0.3 -0.5,0.4 -0.2,0.1 -0.4,0.1 -0.7,0.1 -0.1,-1 -0.1,-2.2 -0.1,-4 0,-5.4 0.2,-13.3 0.2,-18.5 0,-1.8 0,-3 -0.1,-3.9 0.1,-0.1 0.2,-0.2 0.5,-0.4 0.2,-0.1 0.5,-0.1 0.7,-0.2 z m -0.1,3.3 v 1.2 c 0,-0.1 0,0.1 0,0.2 0,0.1 0,0.3 0,0.6 0,0.5 0,1.2 0,1.9 0,1.5 0,3.4 0,5 0,0.8 0,1.5 0,2 v 1.2 h 1.2 c 1.4,0 3,-0.5 4.2,-1.6 1.2,-1.1 2,-2.8 2,-5 0,-2 -0.8,-3.6 -2.1,-4.5 -1.2,-0.9 -2.7,-1.1 -4,-1.1 z m 2.5,2.8 c 0.5,0.1 1.1,0.1 1.4,0.3 0.6,0.4 1,1 1,2.4 0,1.6 -0.5,2.6 -1.2,3.2 -0.4,0.3 -0.8,0.3 -1.3,0.5 0,-0.1 0,-0.2 0,-0.3 0,-1.5 0,-3.4 0,-5 0.1,-0.4 0.1,-0.7 0.1,-1.1 z"
   id="path192"
   style="stroke-width:1.05813" />
				<path
   style="fill:#e9f2fa;stroke-width:1.05813"
   d="m 57.6,-9 c 1.9,0 8.7,-2 8.7,-9.9 0,-7.9 -6.2,-8.2 -8.5,-8.2 0,-0.1 0,-1.7 0,-1.9 -0.2,-0.1 -0.4,-0.1 -0.7,-0.1 -1.2,0 -2.6,0.8 -3,1.3 0.1,0.8 0.1,2.5 0.1,4.5 -0.1,5.3 -0.2,13.2 -0.2,18.6 0,2.4 0,4.3 0.1,5.2 0,0.1 0.3,0.1 0.5,0.1 0.9,0 2.7,-0.3 3.3,-1.1 -0.1,-1 -0.3,-5.9 -0.3,-7.9 z m 4.9,-9.8 c 0,3.8 -2.6,5.4 -4.9,5.4 0,-0.5 0,-1.2 0,-2 0,-3.1 0.1,-7.6 0.1,-7.7 2.3,0 4.8,0.8 4.8,4.3 z"
   id="path194" />
				<path
   d="m 75.9,-28.3 c -3,0 -5.4,1.4 -6.8,3.5 -1.5,2.1 -2.2,4.8 -2.2,7.6 0,2.5 0.6,4.9 1.9,6.7 1.3,1.8 3.4,3 6,3 0.1,0 0.2,0 0.3,0 1.5,0 2.6,-0.2 3.4,-0.5 0.8,-0.3 1.3,-0.7 1.3,-0.7 L 80,-8.9 80.1,-9 c 0.9,-1.4 1,-3.1 1,-4.2 0,-0.2 0,-0.4 0,-0.6 0,-0.1 0,-0.2 -0.1,-0.4 0,-0.1 0,-0.2 -0.1,-0.3 0,-0.1 -0.1,-0.2 -0.2,-0.3 0,0 -0.1,-0.1 -0.1,-0.1 0,0 -0.2,-0.1 -0.2,-0.1 0,0 -0.6,-0.1 -0.6,-0.1 -0.5,0 -0.7,0.2 -0.8,0.3 v 0 c -0.7,0.5 -1.9,0.8 -3.1,0.8 -0.1,0 -0.1,0 -0.1,0 3.3,-2.1 5.6,-5.2 5.6,-8.5 0,-2.1 -0.8,-3.6 -1.9,-4.5 -1.3,-1.1 -2.6,-1.3 -3.6,-1.3 z m 0,2.5 c 0.5,0 1.3,0.2 1.8,0.6 0.5,0.4 1,1 1,2.5 0,2.8 -2.1,6 -5.8,7.6 l -0.8,0.3 v 0.8 c 0,0.6 0.2,0.8 0.4,1 0.2,0.2 0.4,0.4 0.7,0.6 0.6,0.4 1.4,0.6 2.5,0.6 0.9,0 1.7,-0.5 2.6,-0.7 -0.1,0.7 -0.2,1.5 -0.4,1.9 -0.1,0 0,0 -0.3,0.1 -0.5,0.2 -1.4,0.4 -2.9,0.4 -1.9,0 -3.1,-0.7 -4,-1.9 -0.9,-1.2 -1.4,-3.1 -1.4,-5.2 0,-2.4 0.6,-4.6 1.7,-6.2 1.2,-1.5 2.7,-2.4 4.9,-2.4 z m -0.7,1.1 c -1.5,0 -2.6,1 -3.4,2.3 -0.7,1.3 -1.2,2.9 -1.2,4.6 0,0.2 0,0.3 0,0.7 0,0.2 0.1,0.5 0.4,0.7 0.3,0.3 0.7,0.4 0.9,0.4 v 0 0 c 1.4,0 2.4,-0.8 3.5,-1.9 1.1,-1.1 1.9,-2.6 1.9,-4.4 0,-0.7 -0.2,-1.3 -0.7,-1.8 -0.3,-0.4 -0.9,-0.6 -1.4,-0.6 z m -0.4,2.9 c -0.1,0.8 -0.4,1.6 -1,2.2 -0.1,0.1 -0.1,0 -0.2,0.1 0.1,-0.6 0.2,-1.3 0.4,-1.6 0.3,-0.6 0.5,-0.6 0.8,-0.7 z m 5.2,8.9 c -0.1,0 -0.1,0.1 -0.2,0.1 0,0 0,0 0,0 0,0 0.1,0 0.2,-0.1 z"
   id="path196"
   style="stroke-width:1.05813" />
				<path
   style="fill:#e9f2fa;stroke-width:1.05813"
   d="m 76.2,-22.3 c 0,2.7 -2.8,5 -4.2,5.1 -0.1,0 -0.1,-0.1 -0.1,-0.6 0,-3.1 1.6,-5.7 3.3,-5.7 0.5,0 1,0.3 1,1.2 z m -1.4,13.5 c 3.1,0 4.2,-0.9 4.2,-0.9 0.6,-1 0.8,-2.6 0.8,-3.6 0,-0.2 0,-0.8 -0.1,-0.8 0,0 -0.1,0 -0.1,0 -1,0.8 -2.5,1.1 -3.9,1.1 -1.7,0 -2.3,-0.8 -2.3,-1.1 4.1,-1.7 6.5,-5.4 6.5,-8.7 0,-3.5 -2.5,-4.3 -4,-4.3 -5.2,0 -7.8,4.7 -7.8,9.9 0.1,4.7 2.2,8.4 6.7,8.4 z"
   id="path198" />
				<path
   d="m 85.6,-28.6 c -0.8,0 -1.5,0.2 -2.2,0.4 -0.7,0.3 -1.2,0.6 -1.7,1.1 -0.4,0.5 -0.3,0.6 -0.3,0.9 0,0.2 0,0.4 -0.1,0.7 0,0.5 0,1.1 0,1.9 0,2.4 0.1,5.8 0.1,8.9 0,2.4 -0.1,4.6 -0.2,5.7 v 0.1 0.1 c 0,0.4 0.3,0.9 0.6,1.1 0.3,0.2 0.5,0.2 0.6,0.2 0.3,0 0.4,0 0.5,0 0.6,0 1.3,-0.1 2.1,-0.3 0.8,-0.2 1.6,-0.5 2.2,-1.3 0,0 0.1,-0.2 0.1,-0.2 0,-0.1 0,-0.1 0.1,-0.1 0,-0.1 0,-0.1 0.1,-0.2 0,-0.1 0,-0.1 0,-0.2 0,-0.1 0,-0.2 0,-0.4 0,-0.3 0,-0.6 0,-1 0,-0.8 0,-1.9 0,-3 0,-1.3 0,-2.5 0,-3.5 0,-0.5 0,-0.9 0,-1.2 0,-0.1 0,-0.2 0,-0.2 0,-0.1 0.1,-0.5 0.4,-1 0.3,-0.5 0.6,-0.8 1,-0.8 0.1,0 0,-0.1 0.1,0 0.1,0.1 0.2,0.4 0.3,1 0.2,1 0.3,2.7 0.3,4.6 0,2.6 -0.2,4.9 -0.3,6.7 l -0.1,0.9 0.8,0.5 c 0,0 0.7,0.3 1.6,0.3 0.9,0 1.7,-0.2 2.3,-0.4 0.3,-0.1 0.6,-0.2 0.8,-0.4 0.1,-0.1 0.2,-0.1 0.4,-0.3 0.1,-0.1 0.5,-0.3 0.5,-1 0,0 0.1,-2 0.1,-4.7 0,-3.4 0,-6.8 -0.6,-9.5 -0.3,-1.3 -0.7,-2.5 -1.5,-3.5 -0.8,-1 -2,-1.6 -3.3,-1.6 -1.2,0 -2,0.6 -2.8,1.2 0,0 0,-0.1 0,-0.1 v -0.1 -0.1 c 0,-0.7 -0.5,-1 -0.7,-1.1 -0.2,-0.1 -0.3,-0.2 -0.5,-0.2 -0.2,0.1 -0.4,0.1 -0.7,0.1 z M 85,-26 c 0,0.3 0,0.6 0,0.9 0,0.3 0,0.6 0,0.8 0,0.1 0,0.3 0.1,0.5 0.1,0.1 0.2,0.3 0.4,0.5 0.2,0.2 0.5,0.3 0.8,0.3 0,0 0.2,0 0.3,0 0.1,0 0.1,0 0.2,-0.1 0.1,0 0.2,-0.1 0.2,-0.1 0.1,-0.1 0.1,-0.1 0.2,-0.2 0.1,-0.1 0.1,-0.1 0.1,-0.1 v -0.1 -0.1 c 0,0 1.3,-1.9 2.9,-1.9 0.7,0 1,0.2 1.4,0.7 0.4,0.5 0.7,1.3 1,2.5 0.5,2.3 0.5,5.5 0.5,8.9 0,2.2 -0.1,3.5 -0.1,3.9 0,0 0,0 0,0 -0.3,0.1 -0.8,0.2 -1.3,0.2 0.1,-1.7 0.3,-3.5 0.3,-5.7 0,-1.9 0,-3.7 -0.3,-5.1 -0.1,-0.7 -0.4,-1.4 -0.8,-2 -0.4,-0.6 -1.2,-1 -2,-1 -1.6,0 -2.7,1.1 -3.2,2 -0.5,0.9 -0.7,1.8 -0.7,1.8 l 1.9,0.2 c -0.6,0 -2,0 -2,0 h 0.3 c -0.1,0 -0.3,0 -0.3,0 0,0 0,0 0,0 0,0 0,0 0,0.1 0,0.1 0,0.2 0,0.3 0,0.3 0,0.7 0,1.1 0,1 0,2.2 0,3.5 0,1.1 0,2.2 0,2.9 0,0.3 0,0.6 0,0.8 -0.1,0.1 -0.3,0.2 -0.7,0.3 -0.1,0.2 -0.3,0.2 -0.5,0.2 0.1,-1.3 0.2,-2.8 0.2,-4.7 0,-0.1 0,-0.1 0,-0.2 v 0 c 0,-3.1 -0.1,-6.5 -0.1,-8.7 0,-0.7 0,-1.4 0,-1.8 0,-0.1 0,-0.1 0,-0.2 0.1,-0.1 0.2,-0.2 0.5,-0.3 0.2,0 0.5,-0.1 0.7,-0.1 z m 0.5,0.7 c 0,0 -0.2,0.2 -0.2,0.2 l 0.2,-0.2 c -0.1,0.1 -0.1,0.1 0,0 0,0.1 0,0 0,0 z m -1.9,16.5 c 0,0 0,0 0,0 v 0.2 c 0,-0.1 0,-0.2 0,-0.2 z"
   id="path200"
   style="stroke-width:1.05813" />
				<path
   style="fill:#e9f2fa;stroke-width:1.05813"
   d="m 82.6,-14.7 c 0,2.4 -0.1,4.6 -0.2,5.9 0,0.1 0.2,0.1 0.5,0.1 0.9,0 2.7,-0.3 3.3,-1.1 0.1,-0.1 0.1,-2.2 0.1,-4.4 0,-2.5 0,-5.1 0,-5 0,0 0.6,-2.8 2.7,-2.8 1.8,0 1.9,3 1.9,6.9 0,2.6 -0.2,5 -0.3,6.8 0,0 0.4,0.2 1.1,0.2 1.4,0 2.8,-0.6 2.8,-0.8 0,0 0.1,-2 0.1,-4.6 0,-6.8 -0.1,-13.3 -4.1,-13.3 -2.4,0 -3.9,2.5 -3.9,2.5 0,0 -0.1,0.1 -0.1,0.1 -0.1,0 -0.1,-0.2 -0.1,-0.8 0,-0.8 0.1,-1.7 0.1,-2.1 0,-0.1 -0.4,-0.2 -0.7,-0.2 -1.2,0 -2.5,0.6 -2.9,1.1 -0.1,0.2 -0.2,1.2 -0.2,2.7 -0.2,2.2 -0.1,5.7 -0.1,8.8 z"
   id="path202" />
			</g>
			<path
   d="m 53.3,-2.4 c -8.7,0 -14.1,2.9 -17.1,6.7 -3.1,3.8 -3.8,8.4 -3.8,11.7 0,3.8 1.1,7.4 3.5,10 2.4,2.6 6.1,4.2 11.1,4.2 3,0 5.4,-0.9 7.3,-2.1 0,0.4 0,0.8 0,1.2 0,0.3 0.2,0.7 0.4,0.9 0.2,0.2 0.3,0.2 0.4,0.3 0.2,0.1 0.4,0.1 0.5,0.1 0.3,0 0.5,0 0.8,0 1.1,0 2.2,-0.3 3.2,-0.6 0.5,-0.2 1,-0.3 1.3,-0.5 0.4,-0.2 0.7,-0.2 1.1,-0.8 0.3,-0.5 0.2,-0.5 0.2,-0.7 0,-0.2 0,-0.3 0.1,-0.5 0,-0.4 0.1,-0.9 0.1,-1.5 0,-1.2 0.1,-2.7 0.1,-4.2 0,-2.9 0.1,-5.5 0.1,-5.7 0.4,-0.6 0.7,-1.2 1,-2 0.4,-1 0.7,-2.1 0.7,-3.2 0,0 -0.2,-0.6 -0.2,-0.6 0,0 -0.1,-0.2 -0.1,-0.2 C 64,10.1 63.9,10 63.9,10 63.8,9.9 63.7,9.8 63.6,9.8 63.5,9.7 63.4,9.7 63.3,9.7 c -0.1,0 -0.3,0 -0.4,-0.1 -0.3,0 -0.6,-0.1 -1,-0.1 -0.7,0 -1.4,-0.1 -1.7,-0.1 -3.2,0 -6.2,0.1 -8.4,0.2 -1.1,0.1 -2,0.1 -2.7,0.2 -0.3,0 -0.6,0.1 -0.9,0.1 -0.1,0 -0.2,0.1 -0.4,0.1 -0.1,0 -0.2,0 -0.5,0.3 -0.8,0.7 -1.3,1.7 -1.6,2.6 -0.3,0.9 -0.5,1.7 -0.5,2.4 0,0 0,0.2 0.1,0.5 0,0.1 0.1,0.4 0.3,0.6 0.2,0.2 0.6,0.4 0.9,0.4 0.3,0 0.5,0 0.9,-0.1 0.5,0 1.2,-0.1 2.2,-0.1 1,0 2.2,0.1 3.1,0.1 0.3,0 0.6,0.1 0.8,0.1 0,0.1 0,0.1 0,0.2 0,0.5 0.1,1.1 0.1,1.7 v 1.4 c 0,-0.3 0,0 -0.2,0.3 -0.2,0.3 -0.6,0.7 -1.2,1 -1.1,0.7 -2.6,1.3 -4.7,1.3 -2.3,0 -3.8,-0.7 -4.8,-2 -1,-1.2 -1.5,-3.1 -1.5,-5.3 0,-3.8 1.1,-6.5 3,-8.3 1.9,-1.8 4.5,-2.7 7.8,-2.7 1.8,0 3.1,0.2 3.9,0.3 0.8,0.2 1,0.3 1,0.3 L 57.5,5.3 58,4.9 c 0.6,-0.5 0.5,-0.8 0.6,-1.1 0.1,-0.4 0.2,-0.8 0.3,-1.3 0.2,-0.9 0.3,-1.9 0.3,-2.6 0,-0.2 0,-0.3 0,-0.6 0,-0.2 0,-0.6 -0.5,-1 -0.2,-0.2 -0.3,-0.2 -0.4,-0.3 -0.1,0 -0.2,-0.1 -0.3,-0.1 -0.2,0 -0.3,-0.1 -0.6,-0.1 -0.4,-0.1 -0.9,-0.1 -1.5,-0.2 -0.6,0.1 -1.8,0 -2.6,0 z m 0,2.3 c 0.6,0 1.8,0.1 2.8,0.2 0.5,0.1 0.8,0.1 1.2,0.2 0,0.5 -0.1,1.3 -0.2,2 0,0.2 -0.1,0.4 -0.1,0.6 -0.2,0 -0.1,-0.1 -0.4,-0.1 -1,-0.2 -2.4,-0.4 -4.4,-0.4 -3.7,0 -7,1 -9.4,3.3 -2.4,2.2 -3.7,5.6 -3.7,9.9 0,2.6 0.6,5 2,6.7 1.4,1.8 3.7,2.8 6.5,2.8 2.5,0 4.5,-0.8 5.9,-1.7 0.7,-0.5 1.2,-1 1.6,-1.5 0.4,-0.5 0.7,-0.9 0.7,-1.7 v -1.4 c 0,-0.6 0,-1.3 -0.1,-1.9 0,-0.3 -0.1,-0.6 -0.1,-0.9 -0.1,-0.3 -0.1,-0.5 -0.5,-0.9 -0.2,-0.2 -0.3,-0.2 -0.4,-0.3 -0.1,0 -0.2,-0.1 -0.2,-0.1 -0.1,0 -0.3,-0.1 -0.5,-0.1 -0.3,-0.1 -0.7,-0.1 -1.2,-0.1 -0.9,-0.1 -2.1,-0.1 -3.2,-0.1 -1,0 -1.6,0 -2,0.1 0.1,-0.3 0.1,-0.5 0.2,-0.8 0.2,-0.6 0.6,-1.2 0.8,-1.5 0.1,0 0.3,-0.1 0.6,-0.1 0.6,-0.1 1.5,-0.1 2.6,-0.2 2.2,-0.1 5.1,-0.2 8.3,-0.2 0.2,0 0.9,0 1.6,0.1 -0.1,0.5 -0.2,0.9 -0.4,1.4 -0.3,0.9 -0.9,1.8 -0.9,1.9 l -0.2,0.3 v 0.4 c 0,0 0,2.9 -0.1,5.9 0,1.5 -0.1,3 -0.1,4.1 0,0.6 0,1.1 -0.1,1.4 0,0.1 0,0.1 0,0.2 0,0 0,0 -0.1,0 -0.3,0.1 -0.6,0.3 -1,0.4 -0.8,0.3 -1.8,0.5 -2.4,0.5 0,-0.2 0,-0.5 0,-0.7 0,-0.6 0,-1 -0.3,-1.6 v 0 0 c -0.1,-0.2 -0.3,-0.4 -0.5,-0.5 -0.1,-0.1 -0.2,-0.1 -0.3,-0.1 -0.1,0 -0.3,0 -0.3,0 -0.7,0 -0.6,0.2 -0.7,0.2 -0.1,0 -0.2,0.1 -0.2,0.1 -1.3,1.1 -4,2.3 -7.2,2.3 -4.5,0 -7.5,-1.3 -9.4,-3.4 -2,-2.1 -2.9,-5.1 -2.9,-8.4 0,-3 0.7,-7.1 3.3,-10.3 2.6,-3.4 7.2,-6 15.4,-6 z m 2.2,27.5 c 0,0 0,0 0,0 0,0 0,0 0,0 0,0 0,0 0,0 z"
   id="path206"
   style="stroke-width:1.05813" />
			<path
   style="fill:#e9f2fa;stroke-width:1.05813"
   d="m 56.3,29.4 c 1.8,0 4.4,-1 4.7,-1.5 0.3,-0.5 0.4,-12.1 0.4,-12.1 0.6,-0.7 1.8,-3.5 1.8,-5 0,-0.1 -2.5,-0.2 -2.9,-0.2 -6.4,0 -11.8,0.3 -12.2,0.6 -1.1,0.9 -1.6,3.2 -1.6,4.1 0,0 0,0.3 0.2,0.3 0.3,0 1,-0.1 3.1,-0.1 2.2,0 4.6,0.2 4.8,0.4 0.3,0.2 0.3,1.7 0.3,2.9 v 1.4 c 0,0.9 -2.6,3.7 -7.2,3.7 -5.2,0 -7.4,-3.5 -7.4,-8.4 0,-8.1 4.9,-12.1 12,-12.1 3.8,0 5.4,0.7 5.4,0.7 0.4,-0.3 0.8,-2.9 0.8,-4.1 0,-0.3 0,-0.6 -0.1,-0.7 -0.2,-0.2 -3.7,-0.6 -5,-0.6 -17,0.1 -20,11 -20,17.3 0,7.2 4.1,13 13.4,13 3.5,0 6.3,-1.2 7.9,-2.5 0,0 0.1,-0.1 0.2,-0.1 0,0 0.1,0 0.1,0.1 0.2,0.4 0.3,1.7 0.3,2.8 0,0.1 0.5,0.1 1,0.1 z"
   id="path208" />
			<path
   d="m 73.1,-3.1 c -1.6,0 -3.3,0.3 -4.8,0.6 -0.7,0.1 -1.3,0.3 -1.8,0.5 -0.2,0.1 -0.4,0.2 -0.7,0.3 -0.1,0.1 -0.2,0.1 -0.3,0.2 -0.1,0.1 -0.4,0.4 -0.4,0.9 0,0.6 0.2,0.8 0.3,1.2 0.2,0.4 0.3,0.8 0.5,1.1 0.2,0.4 0.4,0.7 0.6,1 0.1,0.2 0.2,0.3 0.3,0.5 0,0 0,0.1 0,0.2 0,0.2 0.1,0.6 0.1,1.1 0.1,0.9 0.1,2.1 0.1,3.6 0,4.9 -0.2,12.1 -0.2,16.5 0,1.1 0,2 0,2.7 0,0.3 0,0.6 0.1,0.9 0,0.1 0,0.2 0.1,0.4 0,0.1 0,0.3 0.4,0.7 l 0.2,0.2 0.2,0.1 c 0,0 1,0.2 2.3,0.2 v 0 c 0,0 9.3,0 14.5,-0.7 0.7,0.2 1.6,0.5 2.5,0.7 1,0.2 1.8,0.4 2.5,0.4 0.2,0 0.4,0 0.5,-0.1 0.1,-0.1 0.3,-0.1 0.3,-0.2 0,0 0,0 0,0 0,0 0,0 0,0 l 1.3,-1.1 -0.6,-0.3 c 0.1,-0.3 0.1,-0.5 0.2,-0.9 0.2,-0.9 0.3,-2.1 0.4,-3.3 0.2,-2.5 0.4,-5.4 0.4,-7.4 0,-0.4 -0.2,-0.6 -0.3,-0.8 -0.1,-0.1 -0.2,-0.2 -0.3,-0.3 -0.2,-0.1 -0.3,-0.2 -0.5,-0.3 -0.4,-0.2 -0.8,-0.4 -1.3,-0.6 -1,-0.4 -2.1,-0.7 -3.1,-0.7 -0.1,0 -0.2,0 -0.4,0 -0.1,0 -0.1,0 -0.3,0 -0.1,0 -0.2,0 -0.4,0.2 0,0 -0.1,0.1 -0.1,0.1 0,0 -0.2,0.2 -0.2,0.2 0,0 -0.2,0.6 -0.2,0.6 v -0.2 c -0.5,2.2 -1,4.1 -2,5.4 -1,1.2 -2.5,2.1 -5.8,2.1 -1.3,0 -1.4,-0.1 -1.7,-0.1 -0.1,-1 -0.1,-2.2 -0.1,-3.9 0,-5.6 0.3,-13.6 0.3,-17.8 0,-0.8 0,-1.4 0,-1.9 0,-0.2 0,-0.5 -0.1,-0.7 0,-0.2 0,-0.4 -0.4,-0.8 -0.3,-0.3 -0.5,-0.3 -0.6,-0.4 -0.1,0 -0.2,0 -0.3,-0.1 -0.2,0 -0.4,0 -0.6,0 -0.2,0 -0.6,0 -0.6,0 z m 0,2.2 c 0,0 0.3,0 0.5,0 0,0.4 0,0.9 0,1.6 0,4 -0.3,12.1 -0.3,17.8 0,2.1 0.1,3.9 0.2,5 l 0.1,0.8 0.8,0.2 c 0,0 1,0.2 3,0.2 3.7,0 6.1,-1.1 7.6,-2.9 1.2,-1.5 1.6,-3.5 2.1,-5.4 0.6,0.1 1.3,0.2 2,0.5 0.3,0.1 0.6,0.2 0.8,0.4 0,1.9 -0.1,4.4 -0.3,6.7 -0.1,1.2 -0.3,2.3 -0.4,3.1 0,0.3 -0.1,0.4 -0.1,0.6 -0.4,-0.1 -0.8,-0.1 -1.4,-0.2 -0.9,-0.2 -2,-0.5 -2.4,-0.6 L 85,26.8 h -0.3 c -4.6,0.7 -14.4,0.7 -14.4,0.7 -0.7,0 -0.8,-0.1 -1.1,-0.1 0,-0.1 0,-0.1 0,-0.2 0,-0.6 0,-1.5 0,-2.6 0,-4.3 0.2,-11.5 0.2,-16.5 0,-1.5 0,-2.8 -0.1,-3.7 C 69.3,3.9 69.2,3.5 69.2,3.1 69,2.9 69,2.8 69,2.6 69,2.4 68.9,2.3 68.7,2 V 2 C 68.8,2.1 68.6,1.9 68.5,1.6 68.3,1.3 68.2,1 68,0.7 67.9,0.5 67.8,0.2 67.7,0 c 0.3,-0.1 0.7,-0.2 1.2,-0.3 1.2,-0.3 2.9,-0.6 4.2,-0.6 z"
   id="path210"
   style="stroke-width:1.05813" />
			<path
   style="fill:#e9f2fa;stroke-width:1.05813"
   d="m 89.7,28.9 c 0.7,-0.6 1.3,-8.3 1.3,-12.1 0,-0.3 -2.8,-1.5 -4.3,-1.5 -0.2,0 -0.4,0 -0.4,0 -1,4.4 -1.9,8.3 -8.9,8.3 -2,0 -2.8,-0.2 -2.8,-0.2 -0.1,-1.1 -0.2,-2.8 -0.2,-4.9 0,-5.6 0.3,-13.7 0.3,-17.8 0,-1.5 0,-2.5 -0.2,-2.6 0,-0.1 -1.4,-0.1 -1.4,-0.1 -2.9,0 -6.9,1 -6.9,1.3 0,0.6 1.4,3.1 1.6,3.3 0.2,0.4 0.3,2.6 0.3,5.5 0,5 -0.2,12.2 -0.2,16.5 0,2.2 0.1,3.7 0.2,3.8 0,0 0.8,0.2 2.1,0.2 0,0 9.7,0 14.6,-0.7 1.2,0.4 4.1,1 4.8,1 0.1,0.1 0.1,0 0.1,0 z"
   id="path212" />
		</g>
	</g>
</g>
</svg>
