<svg width="40" height="40" xmlns="http://www.w3.org/2000/svg">
	<g>
		<path id="svg_1" fill="none" d="m0,0l39.85186,0l0,39.85186l-39.85186,0l0,-39.85186z"/>
		<path fill="#666666" id="svg_2" d="m20.27161,12.69753c-3.92889,0 -7.11111,3.28167 -7.11111,7.33333s3.18222,7.33333 7.11111,7.33333s7.11111,-3.28167 7.11111,-7.33333s-3.18222,-7.33333 -7.11111,-7.33333zm-12.44444,12.83333l-3.55556,0l0,7.33333c0,2.02583 1.59111,3.66667 3.55556,3.66667l7.11111,0l0,-3.66667l-7.11111,0l0,-7.33333zm0,-18.33333l7.11111,0l0,-3.66667l-7.11111,0c-1.96444,0 -3.55556,1.64083 -3.55556,3.66667l0,7.33333l3.55556,0l0,-7.33333zm24.88889,-3.66667l-7.11111,0l0,3.66667l7.11111,0l0,7.33333l3.55556,0l0,-7.33333c0,-2.02583 -1.59111,-3.66667 -3.55556,-3.66667zm0,29.33333l-7.11111,0l0,3.66667l7.11111,0c1.96444,0 3.55556,-1.64083 3.55556,-3.66667l0,-7.33333l-3.55556,0l0,7.33333z"/>
	</g>
</svg>
