<svg height="400" id="svg" version="1.1" viewBox="0, 0, 400,400" width="400"
    xmlns="http://www.w3.org/2000/svg">
    <g id="svgg">
        <path
            d="M224.200 66.596 C 223.100 66.875,221.340 67.481,220.290 67.942 C 219.239 68.403,217.373 69.043,216.143 69.364 C 214.913 69.686,213.522 70.301,213.053 70.732 C 212.584 71.162,211.272 71.909,210.138 72.390 C 208.303 73.169,206.550 76.783,207.997 76.803 C 208.109 76.804,208.640 77.479,209.177 78.303 C 209.714 79.126,210.547 80.250,211.028 80.800 C 211.508 81.350,212.395 82.699,212.997 83.798 C 213.600 84.896,214.493 86.270,214.982 86.851 C 215.470 87.432,216.108 88.758,216.400 89.799 C 217.178 92.580,218.399 93.193,223.200 93.212 C 227.755 93.231,232.468 94.012,234.625 95.106 C 235.491 95.545,237.640 96.296,239.400 96.774 C 241.160 97.252,243.238 98.082,244.017 98.618 C 244.796 99.155,246.365 99.870,247.504 100.208 C 248.642 100.546,249.714 101.069,249.887 101.370 C 250.059 101.670,251.280 102.574,252.600 103.378 C 255.905 105.391,257.637 106.578,258.724 107.574 C 259.233 108.040,260.403 108.896,261.324 109.476 C 262.246 110.056,263.180 110.751,263.400 111.021 C 263.620 111.290,264.697 112.000,265.792 112.599 C 266.888 113.198,268.201 114.015,268.709 114.414 C 269.218 114.814,270.841 115.530,272.317 116.005 C 273.793 116.480,275.285 117.123,275.633 117.435 C 278.248 119.779,298.440 119.891,303.400 117.589 C 304.280 117.181,305.920 116.489,307.045 116.051 C 310.362 114.760,314.670 111.727,318.045 108.305 C 322.755 103.532,322.722 103.506,311.650 103.165 C 303.593 102.916,301.798 102.638,299.756 101.324 C 299.292 101.026,297.620 100.535,296.042 100.234 C 294.463 99.934,292.503 99.253,291.686 98.723 C 290.869 98.192,289.157 97.366,287.882 96.886 C 286.608 96.406,284.988 95.586,284.282 95.064 C 283.577 94.541,282.460 93.840,281.800 93.506 C 278.232 91.697,275.668 90.166,274.600 89.205 C 273.940 88.611,272.680 87.702,271.800 87.184 C 270.920 86.666,270.110 86.121,270.000 85.974 C 269.890 85.826,269.063 85.187,268.163 84.553 C 265.718 82.832,262.517 80.314,259.600 77.819 C 258.170 76.596,256.460 75.342,255.800 75.034 C 255.140 74.725,253.900 73.916,253.045 73.236 C 252.190 72.556,251.344 72.000,251.165 72.000 C 250.986 72.000,249.813 71.381,248.557 70.625 C 247.302 69.868,245.358 69.034,244.237 68.771 C 243.117 68.507,241.570 67.978,240.800 67.595 C 237.594 66.000,228.664 65.463,224.200 66.596 M178.600 68.770 C 177.228 69.370,175.291 71.732,174.860 73.331 C 174.633 74.174,174.015 75.434,173.487 76.131 C 172.960 76.829,172.143 78.676,171.672 80.236 C 171.201 81.796,170.445 83.544,169.991 84.121 C 169.453 84.804,168.960 86.441,168.575 88.824 C 168.250 90.835,167.639 93.237,167.217 94.163 C 165.116 98.775,164.899 123.197,166.909 128.812 C 167.502 130.469,168.260 133.385,168.592 135.292 C 168.992 137.584,169.540 139.266,170.209 140.251 C 170.765 141.071,171.322 142.205,171.446 142.771 C 171.973 145.171,172.530 146.493,173.503 147.649 C 176.362 151.048,175.099 157.149,171.176 158.882 C 169.255 159.731,168.669 160.215,168.198 161.342 C 167.876 162.114,167.442 162.850,167.234 162.979 C 167.026 163.108,166.383 164.695,165.806 166.506 C 165.229 168.318,164.426 170.261,164.021 170.825 C 163.617 171.389,162.877 172.829,162.377 174.025 C 161.877 175.221,161.165 176.560,160.795 177.000 C 160.425 177.440,159.564 179.015,158.882 180.500 C 158.200 181.985,157.472 183.200,157.264 183.200 C 157.057 183.200,156.583 183.959,156.212 184.886 C 155.841 185.813,154.922 187.254,154.169 188.087 C 153.416 188.921,152.800 189.742,152.800 189.912 C 152.800 190.082,152.285 190.785,151.657 191.474 C 147.604 195.910,146.822 199.530,148.763 204.868 C 149.217 206.115,149.752 208.598,149.952 210.385 C 150.226 212.842,150.570 214.002,151.361 215.144 C 151.936 215.974,152.648 217.582,152.942 218.717 C 153.237 219.852,153.943 221.460,154.511 222.290 C 155.080 223.121,155.839 224.950,156.198 226.356 C 156.557 227.762,157.278 229.742,157.800 230.756 C 158.428 231.976,158.957 234.121,159.362 237.090 C 159.712 239.657,160.314 242.246,160.766 243.134 C 163.029 247.569,163.040 272.448,160.782 277.524 C 160.323 278.556,159.620 281.200,159.221 283.400 C 158.821 285.600,158.112 288.047,157.644 288.839 C 157.176 289.630,156.527 291.175,156.201 292.272 C 155.875 293.369,155.070 295.062,154.412 296.033 C 152.746 298.492,152.731 301.155,154.371 303.631 C 155.015 304.604,155.856 306.660,156.240 308.200 C 156.624 309.740,157.275 311.461,157.688 312.023 C 158.167 312.678,158.720 314.812,159.224 317.950 C 159.657 320.647,160.373 323.563,160.816 324.432 C 162.894 328.505,162.863 346.848,160.773 350.240 C 160.352 350.923,159.659 353.219,159.232 355.343 C 158.774 357.619,158.123 359.626,157.648 360.230 C 157.204 360.795,156.567 362.197,156.233 363.347 C 155.898 364.496,155.152 365.879,154.573 366.419 C 153.994 366.958,153.104 368.210,152.594 369.200 C 152.084 370.190,151.291 371.313,150.833 371.696 C 150.375 372.079,150.000 372.639,150.000 372.941 C 150.000 373.243,149.463 374.166,148.806 374.993 C 147.392 376.772,147.352 376.683,150.659 379.186 C 152.627 380.676,153.814 381.260,155.531 381.583 C 156.779 381.818,158.700 382.445,159.800 382.977 C 162.532 384.298,162.532 384.298,168.495 385.027 C 171.746 385.424,174.341 385.962,175.254 386.427 C 177.813 387.733,187.221 388.070,217.200 387.929 L 244.600 387.800 247.200 386.534 C 248.630 385.837,250.865 385.053,252.166 384.792 C 255.452 384.131,263.200 378.666,263.200 377.008 C 263.200 376.765,263.803 375.928,264.540 375.146 C 267.489 372.019,267.593 352.071,264.685 347.110 C 264.109 346.126,263.335 343.989,262.966 342.360 C 262.576 340.639,261.905 338.934,261.363 338.288 C 260.551 337.319,259.609 334.936,259.602 333.835 C 259.601 333.634,259.081 332.644,258.446 331.635 C 257.812 330.626,256.997 328.883,256.635 327.762 C 256.273 326.641,255.552 325.355,255.033 324.904 C 254.514 324.452,253.870 323.389,253.601 322.542 C 253.332 321.694,252.582 320.323,251.934 319.496 C 251.286 318.669,250.498 317.376,250.184 316.623 C 249.869 315.871,249.426 315.140,249.198 314.999 C 248.971 314.858,248.315 313.811,247.741 312.672 C 247.166 311.532,246.090 309.924,245.348 309.099 C 244.607 308.273,244.000 307.368,244.000 307.088 C 244.000 306.808,243.460 305.987,242.800 305.264 C 242.140 304.542,241.600 303.683,241.600 303.355 C 241.600 302.567,240.491 300.402,239.568 299.390 C 239.162 298.944,238.446 297.324,237.976 295.790 C 237.507 294.255,236.809 292.640,236.426 292.200 C 235.469 291.101,234.901 289.406,234.609 286.777 C 234.473 285.555,233.916 283.593,233.371 282.417 C 232.019 279.499,231.615 275.074,231.607 263.087 C 231.598 249.664,231.931 250.314,224.800 249.794 C 220.980 249.515,219.027 249.015,217.690 247.976 C 217.189 247.587,215.479 247.045,213.890 246.771 C 210.818 246.241,209.257 245.632,208.437 244.645 C 208.160 244.311,206.967 243.757,205.787 243.413 C 204.606 243.070,203.522 242.597,203.376 242.362 C 203.231 242.126,202.183 241.340,201.048 240.614 C 199.913 239.888,198.394 238.742,197.672 238.067 C 196.950 237.393,196.036 236.738,195.640 236.613 C 195.245 236.487,194.722 235.947,194.478 235.412 C 194.234 234.876,193.487 234.155,192.817 233.809 C 192.148 233.463,191.600 232.915,191.600 232.591 C 191.600 232.267,190.994 231.327,190.253 230.501 C 189.512 229.676,188.518 228.234,188.043 227.298 C 187.569 226.361,186.819 225.371,186.375 225.098 C 185.920 224.816,185.299 223.672,184.946 222.464 C 184.603 221.289,183.815 219.489,183.196 218.464 C 182.509 217.329,181.890 215.506,181.611 213.800 C 181.332 212.094,180.772 210.445,180.178 209.580 C 179.133 208.059,178.019 200.762,178.526 198.764 C 179.698 194.145,185.222 193.235,187.192 197.335 C 187.738 198.471,188.503 199.850,188.892 200.400 C 189.321 201.006,189.851 203.134,190.239 205.800 C 190.707 209.025,191.175 210.734,191.991 212.200 C 192.603 213.300,193.225 214.879,193.372 215.709 C 193.519 216.538,194.145 217.798,194.763 218.509 C 195.382 219.219,196.245 220.614,196.681 221.609 C 197.686 223.901,204.624 230.957,206.930 232.033 C 207.848 232.462,209.181 233.239,209.890 233.760 C 210.600 234.281,211.860 234.829,212.690 234.977 C 213.521 235.126,214.920 235.755,215.800 236.376 C 217.082 237.281,218.254 237.632,221.692 238.138 C 224.052 238.486,226.572 239.076,227.292 239.449 C 229.759 240.727,231.436 240.858,249.253 241.163 L 267.107 241.469 268.853 242.492 C 269.876 243.091,271.907 243.735,273.755 244.045 C 276.079 244.435,277.278 244.868,278.311 245.688 C 279.081 246.300,280.452 247.011,281.356 247.267 C 282.260 247.523,283.540 248.217,284.200 248.808 C 284.860 249.400,285.677 249.980,286.015 250.097 C 286.797 250.367,292.078 254.801,292.569 255.600 C 292.773 255.930,293.593 256.830,294.391 257.600 C 295.190 258.370,296.554 259.897,297.422 260.994 C 299.699 263.872,303.869 267.869,306.300 269.502 C 307.455 270.278,308.400 271.063,308.400 271.245 C 308.400 271.428,309.705 271.965,311.300 272.440 C 312.895 272.915,314.810 273.670,315.556 274.119 C 317.472 275.271,327.059 275.404,328.291 274.295 C 329.863 272.880,328.751 270.749,323.953 265.985 C 321.618 263.666,319.415 261.202,319.056 260.509 C 318.698 259.816,318.071 259.013,317.664 258.724 C 317.256 258.436,316.696 257.510,316.419 256.666 C 316.142 255.822,315.377 254.519,314.720 253.770 C 310.817 249.325,311.883 241.924,316.460 241.682 C 318.697 241.563,322.000 244.011,322.000 245.787 C 322.000 246.047,322.444 246.678,322.987 247.188 C 323.530 247.698,324.264 248.989,324.619 250.057 C 324.974 251.126,325.585 252.225,325.977 252.500 C 326.369 252.775,327.130 253.650,327.669 254.444 C 328.666 255.914,334.691 261.932,337.547 264.311 C 338.413 265.032,339.994 265.916,341.061 266.276 C 342.127 266.636,343.600 267.384,344.333 267.938 C 346.412 269.509,352.414 269.487,354.500 267.900 C 355.296 267.295,356.134 266.800,356.364 266.800 C 356.715 266.800,360.163 263.768,361.902 261.931 C 364.513 259.172,366.367 256.651,366.601 255.541 C 366.757 254.803,367.301 253.750,367.811 253.200 C 368.320 252.650,368.852 251.480,368.993 250.600 C 369.572 246.969,370.144 244.924,370.949 243.600 C 372.260 241.444,372.241 228.239,370.924 225.733 C 370.061 224.092,369.508 221.612,369.003 217.116 C 368.852 215.773,368.379 214.291,367.854 213.516 C 367.364 212.792,366.654 210.950,366.278 209.422 C 365.901 207.894,365.249 206.274,364.828 205.822 C 364.408 205.370,363.706 204.052,363.268 202.894 C 362.830 201.736,361.916 200.154,361.236 199.380 C 360.556 198.606,360.000 197.733,360.000 197.441 C 360.000 195.044,349.619 184.903,346.313 184.070 C 345.338 183.825,343.881 183.101,343.077 182.461 C 342.272 181.822,340.839 181.103,339.891 180.865 C 338.944 180.626,337.745 179.980,337.227 179.429 C 336.709 178.877,335.437 178.144,334.400 177.800 C 333.363 177.456,332.103 176.736,331.600 176.200 C 331.097 175.664,329.825 174.940,328.773 174.591 C 327.722 174.242,326.635 173.683,326.358 173.349 C 326.080 173.015,325.121 172.375,324.227 171.927 C 323.332 171.479,322.150 170.691,321.600 170.177 C 321.050 169.663,319.769 168.875,318.753 168.426 C 317.737 167.977,316.679 167.336,316.401 167.002 C 316.124 166.667,315.020 165.917,313.948 165.333 C 312.877 164.750,312.000 164.123,312.000 163.940 C 312.000 163.757,311.042 163.066,309.872 162.406 C 308.702 161.745,307.320 160.754,306.802 160.202 C 306.284 159.651,305.664 159.200,305.423 159.200 C 305.182 159.200,304.121 158.486,303.065 157.613 C 300.081 155.147,292.782 155.112,286.000 157.530 C 281.595 159.101,263.463 159.188,260.200 157.653 C 259.049 157.112,256.581 156.494,254.387 156.198 C 250.834 155.719,249.430 155.275,246.733 153.780 C 246.147 153.454,244.855 153.037,243.863 152.851 C 242.870 152.666,241.241 151.972,240.241 151.310 C 239.241 150.648,237.713 149.992,236.846 149.854 C 235.832 149.692,234.864 149.173,234.135 148.400 C 233.511 147.739,232.144 146.914,231.097 146.566 C 230.049 146.218,229.009 145.591,228.785 145.172 C 228.561 144.754,227.304 143.878,225.991 143.227 L 223.605 142.043 220.644 143.393 C 219.016 144.135,217.577 144.914,217.447 145.124 C 217.135 145.628,214.373 144.248,213.203 143.003 L 212.293 142.034 212.725 132.917 C 213.314 120.500,212.893 112.783,211.480 110.081 C 210.915 109.000,210.168 106.605,209.821 104.758 C 209.471 102.901,208.827 100.907,208.380 100.298 C 207.936 99.691,207.208 98.017,206.764 96.576 C 206.319 95.136,205.682 93.853,205.348 93.725 C 205.015 93.597,204.311 92.517,203.783 91.324 C 203.256 90.131,202.189 88.413,201.412 87.506 C 200.636 86.598,200.000 85.673,200.000 85.450 C 200.000 85.227,199.463 84.494,198.807 83.822 C 195.821 80.763,194.883 79.702,194.446 78.885 C 194.187 78.403,193.454 77.738,192.816 77.409 C 192.179 77.079,191.547 76.462,191.412 76.038 C 191.277 75.614,190.635 75.081,189.984 74.854 C 189.333 74.627,188.395 74.024,187.900 73.512 C 187.405 73.001,186.280 72.094,185.400 71.496 C 184.520 70.898,183.350 70.049,182.800 69.609 C 181.615 68.661,179.716 68.282,178.600 68.770 M181.239 70.838 C 181.767 71.299,183.010 72.148,184.000 72.723 C 184.990 73.299,185.862 73.917,185.937 74.096 C 186.012 74.275,186.805 74.795,187.699 75.251 C 190.126 76.489,197.981 84.719,199.811 87.941 C 200.346 88.883,201.136 90.101,201.567 90.649 C 201.998 91.197,202.737 92.445,203.211 93.422 C 203.684 94.400,204.221 95.200,204.404 95.200 C 204.586 95.200,205.040 96.145,205.412 97.300 C 205.783 98.455,206.585 100.302,207.193 101.404 C 207.801 102.506,208.433 104.396,208.598 105.604 C 208.762 106.812,209.458 109.600,210.145 111.800 C 211.718 116.844,212.040 131.397,210.690 136.466 C 209.053 142.612,214.283 149.174,218.595 146.383 C 222.956 143.560,224.666 143.536,227.701 146.255 C 228.527 146.995,229.436 147.600,229.722 147.600 C 230.008 147.600,230.978 148.141,231.877 148.802 C 232.776 149.463,234.234 150.259,235.117 150.571 C 236.000 150.882,237.414 151.589,238.261 152.142 C 239.107 152.694,241.060 153.542,242.600 154.026 C 244.140 154.509,245.670 155.138,246.000 155.423 C 246.610 155.950,249.000 156.631,254.400 157.817 C 256.050 158.179,258.300 158.774,259.400 159.138 C 263.187 160.392,283.062 160.096,288.400 158.707 C 298.261 156.141,300.140 156.430,305.800 161.385 C 307.998 163.310,312.522 166.415,313.477 166.655 C 313.995 166.785,314.643 167.212,314.917 167.603 C 315.385 168.271,316.886 169.282,321.200 171.835 C 322.190 172.421,323.450 173.239,324.000 173.653 C 324.550 174.068,325.988 174.864,327.196 175.424 C 328.404 175.983,329.756 176.782,330.200 177.200 C 330.644 177.618,332.003 178.399,333.220 178.937 C 334.437 179.475,335.666 180.198,335.952 180.543 C 336.239 180.888,337.491 181.550,338.736 182.015 C 339.981 182.481,341.295 183.127,341.655 183.452 C 342.015 183.777,343.244 184.398,344.386 184.831 C 346.678 185.702,350.214 188.125,352.448 190.355 C 353.244 191.150,354.144 191.998,354.448 192.240 C 355.270 192.894,357.648 196.281,358.901 198.580 C 359.506 199.691,360.261 200.793,360.580 201.029 C 360.898 201.264,361.550 202.524,362.029 203.829 C 362.509 205.133,363.233 206.566,363.638 207.013 C 364.044 207.460,364.812 209.260,365.344 211.013 C 365.877 212.766,366.678 215.280,367.124 216.600 C 367.880 218.837,368.684 223.201,369.667 230.400 C 370.880 239.282,367.792 252.434,363.171 258.073 C 356.237 266.535,350.567 269.238,345.389 266.548 C 344.515 266.094,343.126 265.501,342.301 265.231 C 341.477 264.960,340.065 264.123,339.163 263.369 C 338.262 262.616,337.355 262.000,337.147 262.000 C 336.830 262.000,335.819 261.102,332.869 258.200 C 330.487 255.858,326.485 250.541,325.088 247.863 C 322.496 242.897,320.882 241.063,318.576 240.460 C 312.682 238.918,308.377 244.663,311.231 250.261 C 311.654 251.091,312.000 251.983,312.000 252.244 C 312.000 252.506,312.648 253.683,313.441 254.860 C 314.233 256.037,315.123 257.450,315.417 258.000 C 315.712 258.550,316.414 259.523,316.977 260.162 C 317.539 260.801,318.000 261.479,318.000 261.667 C 318.000 262.107,320.269 264.608,323.700 267.951 C 328.578 272.704,326.044 275.108,318.400 272.977 C 317.190 272.640,315.030 272.044,313.600 271.652 C 309.205 270.449,303.641 266.050,298.600 259.794 C 295.941 256.494,289.532 250.382,287.814 249.506 C 286.926 249.055,285.983 248.376,285.717 247.999 C 285.451 247.622,284.328 246.923,283.221 246.447 C 282.113 245.971,280.578 245.154,279.808 244.631 C 279.039 244.109,277.462 243.459,276.305 243.186 C 275.147 242.913,273.335 242.353,272.277 241.942 C 268.561 240.496,266.869 240.337,251.600 240.000 C 236.596 239.670,236.061 239.630,230.800 238.465 C 227.830 237.807,224.080 237.069,222.467 236.825 C 220.794 236.573,218.560 235.888,217.267 235.231 C 216.020 234.597,214.055 233.847,212.900 233.564 C 211.745 233.280,210.800 232.904,210.800 232.728 C 210.800 232.551,209.799 231.842,208.575 231.151 C 205.073 229.175,198.526 222.414,197.307 219.515 C 197.005 218.795,196.408 217.834,195.981 217.379 C 195.554 216.925,194.753 215.227,194.202 213.606 C 193.651 211.985,192.915 210.224,192.566 209.692 C 192.218 209.160,191.690 206.875,191.393 204.613 C 190.184 195.401,186.129 191.434,180.523 193.979 C 176.623 195.749,175.952 206.830,179.416 212.258 C 179.717 212.729,180.248 214.349,180.597 215.858 C 180.946 217.366,181.646 219.230,182.153 220.000 C 182.660 220.770,183.303 222.120,183.581 223.000 C 183.860 223.880,184.580 225.230,185.182 226.000 C 185.784 226.770,186.600 228.025,186.995 228.790 C 187.390 229.554,189.124 231.776,190.847 233.726 C 193.760 237.023,195.319 238.435,198.534 240.687 C 199.230 241.174,200.534 242.116,201.430 242.780 C 202.327 243.443,203.848 244.264,204.810 244.604 C 205.773 244.943,206.839 245.463,207.180 245.759 C 208.242 246.681,209.655 247.284,212.082 247.850 C 213.369 248.150,214.826 248.661,215.320 248.984 C 216.361 249.667,220.614 250.595,224.508 250.991 C 226.570 251.200,227.525 251.515,228.508 252.313 C 229.219 252.889,229.884 253.423,229.987 253.500 C 230.090 253.578,230.124 256.917,230.064 260.920 C 229.889 272.438,230.931 282.502,232.557 284.995 C 232.846 285.438,233.217 286.700,233.380 287.800 C 233.756 290.319,234.688 293.103,235.591 294.400 C 235.974 294.950,236.605 296.390,236.994 297.600 C 237.382 298.810,238.049 300.184,238.476 300.653 C 238.903 301.123,239.792 302.650,240.453 304.047 C 241.114 305.443,241.798 306.679,241.973 306.793 C 242.149 306.907,242.664 307.732,243.117 308.627 C 243.571 309.521,244.239 310.500,244.602 310.802 C 244.965 311.103,245.718 312.261,246.274 313.375 C 246.831 314.489,247.707 315.850,248.222 316.400 C 248.736 316.950,249.458 318.118,249.825 318.997 C 250.191 319.875,250.921 321.104,251.446 321.727 C 251.971 322.351,252.400 323.097,252.400 323.386 C 252.400 323.674,253.000 324.785,253.733 325.855 C 254.466 326.925,255.396 328.700,255.799 329.800 C 256.203 330.900,256.866 332.175,257.273 332.633 C 257.680 333.091,258.346 334.665,258.753 336.131 C 259.159 337.598,259.946 339.484,260.502 340.324 C 261.058 341.163,261.730 342.919,261.996 344.225 C 262.262 345.531,262.985 347.770,263.603 349.200 C 266.429 355.738,266.157 370.893,263.154 374.314 C 262.519 375.037,261.998 375.847,261.996 376.114 C 261.979 377.972,254.497 382.815,249.914 383.933 C 248.091 384.378,245.340 385.158,243.800 385.666 L 241.000 386.590 214.400 386.550 L 187.800 386.511 179.800 385.279 C 175.400 384.601,170.114 383.838,168.053 383.583 C 165.852 383.311,163.478 382.736,162.299 382.190 C 161.194 381.678,159.100 380.944,157.645 380.558 C 156.190 380.172,154.491 379.439,153.869 378.928 C 153.247 378.418,152.502 378.000,152.214 378.000 C 151.925 378.000,151.287 377.675,150.797 377.278 L 149.905 376.555 150.710 374.978 C 151.153 374.110,151.912 373.040,152.398 372.601 C 152.884 372.161,153.545 371.293,153.867 370.670 C 154.189 370.047,155.047 368.760,155.773 367.808 C 156.499 366.856,157.220 365.576,157.373 364.963 C 157.527 364.350,157.984 363.384,158.388 362.816 C 158.793 362.248,159.425 360.797,159.794 359.592 C 160.700 356.631,161.398 354.536,162.166 352.482 C 164.373 346.580,164.129 327.506,161.756 320.434 C 161.209 318.802,160.512 316.163,160.207 314.569 C 159.902 312.974,159.259 310.901,158.780 309.960 C 158.300 309.020,157.564 307.012,157.145 305.497 C 156.725 303.983,156.133 302.351,155.830 301.872 C 154.783 300.217,154.691 298.623,155.594 297.805 C 156.048 297.395,156.707 296.056,157.060 294.830 C 157.412 293.603,158.134 291.855,158.663 290.944 C 159.192 290.033,159.891 287.963,160.217 286.344 C 160.542 284.725,161.165 282.590,161.601 281.600 C 163.103 278.189,163.290 276.356,163.487 263.087 C 163.697 248.950,163.335 243.455,161.941 239.600 C 161.503 238.390,160.801 235.706,160.381 233.636 C 159.961 231.565,159.188 229.045,158.665 228.036 C 158.142 227.026,157.490 225.253,157.216 224.095 C 156.942 222.938,156.267 221.326,155.716 220.514 C 155.164 219.702,154.270 217.679,153.729 216.020 C 153.187 214.361,152.421 212.463,152.025 211.802 C 149.673 207.870,149.498 196.280,151.759 194.200 C 152.238 193.760,153.157 192.590,153.803 191.600 C 154.449 190.610,155.477 189.209,156.088 188.486 C 156.700 187.763,157.200 186.938,157.200 186.652 C 157.200 186.365,157.802 185.337,158.538 184.366 C 159.273 183.395,160.119 181.970,160.418 181.200 C 160.716 180.430,161.259 179.582,161.625 179.316 C 161.991 179.049,162.702 177.699,163.205 176.316 C 163.708 174.932,164.373 173.592,164.683 173.338 C 165.312 172.824,166.800 169.161,166.800 168.127 C 166.800 167.762,167.084 167.149,167.432 166.765 C 167.779 166.381,168.549 164.868,169.143 163.402 C 170.192 160.813,170.282 160.717,172.326 160.025 C 176.617 158.572,177.645 154.475,175.392 147.800 C 175.020 146.700,174.460 145.510,174.146 145.155 C 173.832 144.800,173.226 143.291,172.801 141.803 C 172.375 140.314,171.637 138.355,171.159 137.448 C 170.682 136.542,169.887 133.640,169.393 131.000 C 168.899 128.360,168.158 125.210,167.747 124.000 C 166.664 120.812,166.641 103.364,167.715 99.960 C 168.104 98.728,168.841 95.578,169.353 92.960 C 169.865 90.342,170.736 87.300,171.287 86.200 C 171.839 85.100,172.517 83.210,172.795 82.000 C 173.072 80.790,173.607 79.440,173.982 79.000 C 174.358 78.560,175.054 77.152,175.530 75.871 C 177.158 71.488,179.558 69.372,181.239 70.838 M124.000 91.388 C 122.570 91.652,120.500 92.323,119.400 92.879 C 118.300 93.435,116.457 94.198,115.305 94.575 C 114.152 94.953,113.104 95.431,112.976 95.640 C 112.847 95.848,111.630 96.576,110.271 97.259 C 108.912 97.941,107.656 98.747,107.480 99.050 C 107.304 99.352,106.602 99.889,105.919 100.242 C 104.198 101.132,101.080 104.341,100.450 105.871 C 100.162 106.570,99.585 107.451,99.168 107.829 C 98.751 108.206,97.866 110.227,97.203 112.319 C 96.539 114.411,95.821 116.333,95.608 116.590 C 94.809 117.554,94.439 127.721,94.670 142.400 C 94.957 160.687,94.569 166.923,92.858 171.497 C 92.220 173.204,91.485 175.497,91.225 176.593 C 90.966 177.689,90.330 179.140,89.813 179.818 C 89.296 180.496,88.608 181.685,88.284 182.460 C 87.960 183.235,87.220 184.394,86.639 185.035 C 86.058 185.676,84.575 187.415,83.344 188.900 C 82.113 190.385,80.959 191.600,80.778 191.600 C 80.597 191.600,79.853 192.153,79.125 192.829 C 78.396 193.504,77.311 194.316,76.714 194.632 C 75.482 195.283,75.585 196.214,76.937 196.644 C 79.555 197.475,87.639 196.514,89.350 195.168 C 89.899 194.736,91.125 194.109,92.074 193.775 C 94.999 192.746,98.903 190.101,101.000 187.730 C 102.100 186.486,103.596 184.838,104.325 184.069 C 105.054 183.299,106.020 181.934,106.472 181.035 C 106.924 180.136,107.515 179.130,107.785 178.800 C 108.056 178.470,108.769 176.948,109.370 175.418 C 109.971 173.888,110.786 172.178,111.182 171.618 C 111.578 171.058,112.035 169.790,112.197 168.800 C 112.360 167.810,112.850 166.100,113.287 165.000 C 114.988 160.720,115.211 159.874,115.631 156.099 C 115.870 153.955,116.486 150.400,117.001 148.200 C 117.516 146.000,118.150 142.310,118.410 140.000 C 118.798 136.560,119.119 135.365,120.188 133.400 C 120.905 132.080,121.604 130.529,121.740 129.953 C 121.877 129.378,122.621 127.987,123.394 126.863 C 124.167 125.739,124.800 124.633,124.800 124.406 C 124.800 123.574,131.399 116.663,133.442 115.356 C 134.600 114.615,135.643 113.854,135.761 113.663 C 135.878 113.473,137.015 113.012,138.287 112.638 C 139.559 112.265,141.565 111.511,142.744 110.963 C 144.195 110.288,146.048 109.859,148.478 109.634 C 152.895 109.227,153.092 109.043,153.620 104.829 C 154.171 100.433,153.276 97.200,151.506 97.200 C 151.311 97.200,150.327 96.570,149.318 95.800 C 148.310 95.030,146.746 94.201,145.842 93.958 C 144.939 93.715,143.461 93.083,142.559 92.554 C 139.720 90.891,130.001 90.280,124.000 91.388 M186.305 101.423 C 183.074 103.940,182.783 107.537,185.202 115.051 C 186.682 119.648,186.844 126.001,185.519 127.472 C 179.271 134.409,186.720 143.843,194.113 138.355 C 199.212 134.570,201.350 123.511,198.862 113.800 C 198.411 112.040,197.760 109.250,197.415 107.600 C 196.037 101.000,190.675 98.018,186.305 101.423 M190.969 101.588 C 194.052 102.760,196.215 106.706,196.789 112.200 C 197.042 114.620,197.448 117.320,197.693 118.200 C 198.547 121.276,197.532 131.138,196.081 133.848 C 193.261 139.119,184.766 139.287,184.819 134.071 C 184.837 132.314,185.060 131.718,186.949 128.376 C 188.505 125.622,188.153 115.281,186.422 112.894 C 184.829 110.698,184.254 105.271,185.500 104.197 C 189.336 100.890,189.247 100.933,190.969 101.588 M223.300 107.239 C 222.593 107.975,222.667 109.158,223.796 115.238 C 224.344 118.187,224.794 121.713,224.796 123.074 C 224.803 127.608,226.258 129.444,233.554 134.125 C 234.519 134.744,235.574 135.517,235.899 135.842 C 236.224 136.167,237.640 136.954,239.045 137.591 C 240.450 138.229,241.600 138.927,241.600 139.143 C 241.600 139.359,242.545 139.842,243.700 140.216 C 244.855 140.590,246.646 141.313,247.681 141.822 C 248.716 142.331,250.696 143.059,252.081 143.439 C 253.466 143.820,255.735 144.659,257.121 145.304 C 262.524 147.819,284.716 147.899,290.306 145.424 C 291.568 144.865,293.950 144.132,295.600 143.795 C 297.250 143.458,299.050 142.855,299.600 142.455 C 300.150 142.055,301.590 141.403,302.800 141.005 C 304.010 140.608,305.517 139.852,306.148 139.327 C 306.779 138.801,307.859 138.081,308.548 137.726 C 313.151 135.355,321.600 126.316,321.600 123.762 C 321.600 122.312,320.209 122.156,318.334 123.396 C 317.447 123.983,315.974 124.726,315.061 125.048 C 314.147 125.370,312.764 126.073,311.987 126.611 C 311.210 127.148,309.223 127.934,307.573 128.356 C 305.922 128.778,303.838 129.506,302.942 129.973 C 298.549 132.262,281.448 132.170,276.065 129.828 C 274.819 129.286,272.678 128.567,271.306 128.231 C 269.935 127.895,268.135 127.172,267.306 126.625 C 266.478 126.079,265.033 125.361,264.096 125.032 C 263.158 124.702,261.596 123.885,260.624 123.216 C 259.651 122.547,258.696 122.000,258.500 122.000 C 258.304 122.000,257.437 121.411,256.572 120.692 C 253.334 117.997,247.153 113.607,245.148 112.579 C 244.406 112.198,243.297 111.468,242.682 110.954 C 242.067 110.441,240.807 109.820,239.882 109.573 C 238.957 109.327,236.940 108.676,235.400 108.126 C 232.013 106.918,224.161 106.342,223.300 107.239 M147.000 122.394 C 141.287 123.234,133.079 131.273,131.786 137.293 C 131.631 138.012,130.992 140.220,130.365 142.200 C 129.591 144.645,129.027 147.733,128.607 151.823 C 127.961 158.109,127.797 158.918,126.501 162.200 C 126.066 163.300,125.481 165.730,125.201 167.600 C 124.903 169.587,124.311 171.665,123.778 172.600 C 123.276 173.480,122.661 174.977,122.410 175.926 C 121.997 177.494,119.667 182.226,116.466 188.000 C 114.093 192.282,105.717 200.390,101.235 202.744 C 100.666 203.043,99.030 203.969,97.600 204.801 C 96.170 205.634,94.280 206.441,93.401 206.595 C 92.521 206.748,90.721 207.328,89.401 207.884 C 88.080 208.440,85.396 209.153,83.435 209.469 C 76.522 210.582,77.059 211.531,85.786 213.624 C 89.787 214.583,90.371 214.583,95.137 213.618 C 97.262 213.188,100.620 212.638,102.600 212.396 C 105.035 212.098,106.719 211.651,107.805 211.016 C 108.688 210.500,110.488 209.770,111.805 209.394 C 113.122 209.018,114.795 208.349,115.523 207.908 C 116.250 207.467,117.719 206.633,118.787 206.053 C 120.881 204.917,125.274 202.042,125.600 201.594 C 125.710 201.443,126.600 200.818,127.578 200.205 C 129.759 198.839,139.191 189.412,140.701 187.089 C 142.114 184.918,144.235 182.022,145.162 181.000 C 145.561 180.560,146.387 179.210,146.998 178.000 C 147.608 176.790,148.533 175.291,149.054 174.669 C 149.574 174.047,150.000 173.228,150.000 172.848 C 150.000 172.468,150.563 171.269,151.251 170.184 C 151.939 169.099,152.750 167.510,153.052 166.653 C 153.354 165.795,154.118 164.173,154.748 163.047 C 155.379 161.921,156.112 160.100,156.377 159.000 C 156.643 157.900,157.187 156.460,157.586 155.800 C 160.105 151.638,160.091 142.956,157.558 137.935 C 157.152 137.129,156.623 135.149,156.384 133.535 C 155.345 126.533,155.122 125.409,154.551 124.304 C 153.505 122.282,151.393 121.748,147.000 122.394 M233.448 174.280 C 228.066 176.127,229.677 184.613,236.161 188.573 C 236.905 189.028,238.005 189.750,238.604 190.177 C 239.204 190.604,240.888 191.272,242.347 191.661 C 243.806 192.050,245.984 192.646,247.187 192.984 C 250.196 193.831,251.986 193.758,255.333 192.652 C 256.910 192.131,258.968 191.493,259.907 191.234 C 260.845 190.976,262.195 190.269,262.907 189.664 C 263.618 189.060,264.705 188.247,265.321 187.859 C 265.938 187.471,266.543 186.892,266.666 186.572 C 266.789 186.252,267.470 185.408,268.179 184.695 C 270.654 182.210,270.177 176.160,267.400 174.825 C 264.358 173.361,260.006 173.910,258.000 176.008 C 253.375 180.847,247.414 180.847,242.200 176.009 C 239.787 173.770,236.707 173.162,233.448 174.280 M240.553 176.516 C 246.934 183.251,253.527 183.157,259.970 176.241 C 261.920 174.147,267.027 175.168,267.932 177.833 C 269.152 181.427,267.159 185.277,262.923 187.508 C 261.976 188.007,261.200 188.572,261.200 188.764 C 261.200 189.321,258.456 190.268,254.657 191.023 C 249.068 192.133,241.835 190.903,238.886 188.341 C 238.163 187.714,237.316 187.200,237.004 187.200 C 236.691 187.200,235.408 186.197,234.153 184.971 L 231.870 182.742 231.889 179.767 C 231.916 175.642,232.228 175.364,236.953 175.254 C 239.126 175.204,239.401 175.300,240.553 176.516 M339.400 207.453 C 338.080 208.016,336.435 208.717,335.745 209.011 C 329.925 211.484,328.549 223.601,333.863 225.589 C 338.251 227.231,340.644 226.165,343.897 221.117 C 344.281 220.521,345.259 219.734,346.069 219.369 C 354.708 215.473,348.131 203.724,339.400 207.453 M345.800 209.425 C 349.036 211.641,349.606 213.424,347.849 215.833 C 347.162 216.775,345.970 217.850,345.200 218.221 C 343.302 219.138,341.759 220.638,341.163 222.147 C 340.108 224.818,337.610 225.598,334.069 224.364 C 331.415 223.439,330.872 216.874,333.211 214.000 C 333.659 213.450,334.394 212.420,334.845 211.711 C 336.422 209.235,343.397 207.779,345.800 209.425 M140.000 313.203 C 138.790 314.071,136.824 315.248,135.630 315.817 C 134.437 316.386,133.017 317.200,132.475 317.627 C 131.933 318.053,130.576 318.673,129.458 319.005 C 128.341 319.337,126.774 320.040,125.976 320.568 C 125.094 321.152,123.144 321.787,120.998 322.189 C 119.057 322.553,116.748 323.218,115.866 323.668 C 114.825 324.199,112.977 324.596,110.594 324.801 C 104.251 325.344,104.213 325.393,103.596 333.800 C 103.111 340.422,102.654 342.895,101.601 344.598 C 101.174 345.289,100.565 346.969,100.247 348.331 C 99.929 349.693,99.301 351.391,98.850 352.104 C 98.400 352.817,97.637 354.120,97.156 355.000 C 96.252 356.655,94.687 358.653,91.618 362.073 C 89.463 364.474,83.667 368.423,81.236 369.146 C 80.266 369.434,78.990 370.027,78.400 370.463 C 75.002 372.975,57.805 373.874,42.667 372.331 C 38.542 371.910,38.294 371.928,37.528 372.694 L 36.722 373.500 38.261 374.635 C 39.108 375.259,40.120 376.090,40.512 376.481 C 40.903 376.872,41.803 377.489,42.512 377.852 C 43.220 378.215,44.303 378.932,44.918 379.446 C 45.533 379.959,46.790 380.582,47.711 380.830 C 48.633 381.078,50.232 381.709,51.265 382.233 C 52.298 382.756,55.181 383.710,57.672 384.352 C 60.162 384.994,63.010 385.825,64.000 386.199 C 69.135 388.140,96.713 387.904,102.821 385.867 C 104.482 385.313,107.362 384.655,109.221 384.405 C 111.098 384.152,113.578 383.500,114.800 382.938 C 116.010 382.382,117.900 381.687,119.000 381.395 C 120.100 381.102,122.069 380.218,123.376 379.431 C 124.684 378.644,125.975 378.000,126.246 378.000 C 126.517 378.000,127.247 377.575,127.869 377.055 C 128.491 376.535,129.784 375.711,130.742 375.225 C 131.700 374.739,133.118 373.769,133.893 373.071 C 139.493 368.021,142.377 364.785,143.821 361.931 C 144.191 361.199,144.945 359.999,145.495 359.265 C 146.045 358.530,146.823 356.846,147.223 355.522 C 147.624 354.199,148.216 352.820,148.539 352.458 C 150.974 349.727,150.937 326.193,148.489 320.590 C 147.818 319.055,147.146 316.964,146.996 315.941 C 146.307 311.269,143.970 310.354,140.000 313.203 M63.604 325.389 C 63.382 325.974,63.197 327.925,63.193 329.726 C 63.182 334.881,62.529 339.908,61.652 341.591 C 61.217 342.424,60.473 344.410,59.999 346.005 C 58.924 349.612,57.327 352.182,54.055 355.567 C 50.932 358.797,50.281 360.932,52.250 361.480 C 54.628 362.142,66.855 361.859,68.710 361.099 C 69.650 360.714,71.798 360.029,73.483 359.578 C 77.275 358.562,80.852 356.297,83.000 353.553 C 83.880 352.429,85.095 351.007,85.700 350.394 C 86.305 349.781,87.206 348.406,87.702 347.339 C 88.198 346.273,89.005 344.754,89.495 343.964 C 89.993 343.161,90.742 340.724,91.192 338.439 C 91.635 336.191,92.178 334.014,92.399 333.602 C 93.555 331.441,92.206 326.398,90.318 325.824 C 89.813 325.670,84.720 325.375,79.000 325.167 C 73.280 324.960,67.567 324.686,66.304 324.558 C 64.096 324.335,63.993 324.367,63.604 325.389 "
            fill="#b41f71" fill-rule="evenodd" id="path0" stroke="none"></path>
        <path
            d="M177.898 71.784 C 177.071 72.750,176.006 74.590,175.530 75.871 C 175.054 77.152,174.358 78.560,173.982 79.000 C 173.607 79.440,173.072 80.790,172.795 82.000 C 172.517 83.210,171.839 85.100,171.287 86.200 C 170.736 87.300,169.865 90.342,169.353 92.960 C 168.841 95.578,168.104 98.728,167.715 99.960 C 166.641 103.364,166.664 120.812,167.747 124.000 C 168.158 125.210,168.899 128.360,169.393 131.000 C 169.887 133.640,170.682 136.542,171.159 137.448 C 171.637 138.355,172.375 140.314,172.801 141.803 C 173.226 143.291,173.832 144.800,174.146 145.155 C 174.460 145.510,175.020 146.700,175.392 147.800 C 177.645 154.475,176.617 158.572,172.326 160.025 C 170.282 160.717,170.192 160.813,169.143 163.402 C 168.549 164.868,167.779 166.381,167.432 166.765 C 167.084 167.149,166.800 167.762,166.800 168.127 C 166.800 169.161,165.312 172.824,164.683 173.338 C 164.373 173.592,163.708 174.932,163.205 176.316 C 162.702 177.699,161.991 179.049,161.625 179.316 C 161.259 179.582,160.716 180.430,160.418 181.200 C 160.119 181.970,159.273 183.395,158.538 184.366 C 157.802 185.337,157.200 186.365,157.200 186.652 C 157.200 186.938,156.700 187.763,156.088 188.486 C 155.477 189.209,154.449 190.610,153.803 191.600 C 153.157 192.590,152.238 193.760,151.759 194.200 C 149.498 196.280,149.673 207.870,152.025 211.802 C 152.421 212.463,153.187 214.361,153.729 216.020 C 154.270 217.679,155.164 219.702,155.716 220.514 C 156.267 221.326,156.942 222.938,157.216 224.095 C 157.490 225.253,158.142 227.026,158.665 228.036 C 159.188 229.045,159.961 231.565,160.381 233.636 C 160.801 235.706,161.503 238.390,161.941 239.600 C 163.335 243.455,163.697 248.950,163.487 263.087 C 163.290 276.356,163.103 278.189,161.601 281.600 C 161.165 282.590,160.542 284.725,160.217 286.344 C 159.891 287.963,159.192 290.033,158.663 290.944 C 158.134 291.855,157.412 293.603,157.060 294.830 C 156.707 296.056,156.048 297.395,155.594 297.805 C 154.691 298.623,154.783 300.217,155.830 301.872 C 156.133 302.351,156.725 303.983,157.145 305.497 C 157.564 307.012,158.300 309.020,158.780 309.960 C 159.259 310.901,159.902 312.974,160.207 314.569 C 160.512 316.163,161.209 318.802,161.756 320.434 C 164.129 327.506,164.373 346.580,162.166 352.482 C 161.398 354.536,160.700 356.631,159.794 359.592 C 159.425 360.797,158.793 362.248,158.388 362.816 C 157.984 363.384,157.527 364.350,157.373 364.963 C 157.220 365.576,156.499 366.856,155.773 367.808 C 155.047 368.760,154.189 370.047,153.867 370.670 C 153.545 371.293,152.884 372.161,152.398 372.601 C 151.912 373.040,151.153 374.110,150.710 374.978 L 149.905 376.555 150.797 377.278 C 151.287 377.675,151.925 378.000,152.214 378.000 C 152.502 378.000,153.247 378.418,153.869 378.928 C 154.491 379.439,156.190 380.172,157.645 380.558 C 159.100 380.944,161.194 381.678,162.299 382.190 C 163.478 382.736,165.852 383.311,168.053 383.583 C 170.114 383.838,175.400 384.601,179.800 385.279 L 187.800 386.511 214.400 386.550 L 241.000 386.590 243.800 385.666 C 245.340 385.158,248.091 384.378,249.914 383.933 C 254.497 382.815,261.979 377.972,261.996 376.114 C 261.998 375.847,262.519 375.037,263.154 374.314 C 266.157 370.893,266.429 355.738,263.603 349.200 C 262.985 347.770,262.262 345.531,261.996 344.225 C 261.730 342.919,261.058 341.163,260.502 340.324 C 259.946 339.484,259.159 337.598,258.753 336.131 C 258.346 334.665,257.680 333.091,257.273 332.633 C 256.866 332.175,256.203 330.900,255.799 329.800 C 255.396 328.700,254.466 326.925,253.733 325.855 C 253.000 324.785,252.400 323.674,252.400 323.386 C 252.400 323.097,251.971 322.351,251.446 321.727 C 250.921 321.104,250.191 319.875,249.825 318.997 C 249.458 318.118,248.736 316.950,248.222 316.400 C 247.707 315.850,246.831 314.489,246.274 313.375 C 245.718 312.261,244.965 311.103,244.602 310.802 C 244.239 310.500,243.571 309.521,243.117 308.627 C 242.664 307.732,242.149 306.907,241.973 306.793 C 241.798 306.679,241.114 305.443,240.453 304.047 C 239.792 302.650,238.903 301.123,238.476 300.653 C 238.049 300.184,237.382 298.810,236.994 297.600 C 236.605 296.390,235.974 294.950,235.591 294.400 C 234.688 293.103,233.756 290.319,233.380 287.800 C 233.217 286.700,232.846 285.438,232.557 284.995 C 230.931 282.502,229.889 272.438,230.064 260.920 C 230.124 256.917,230.090 253.578,229.987 253.500 C 229.884 253.423,229.219 252.889,228.508 252.313 C 227.525 251.515,226.570 251.200,224.508 250.991 C 220.614 250.595,216.361 249.667,215.320 248.984 C 214.826 248.661,213.369 248.150,212.082 247.850 C 209.655 247.284,208.242 246.681,207.180 245.759 C 206.839 245.463,205.773 244.943,204.810 244.604 C 203.848 244.264,202.327 243.443,201.430 242.780 C 200.534 242.116,199.230 241.174,198.534 240.687 C 195.319 238.435,193.760 237.023,190.847 233.726 C 189.124 231.776,187.390 229.554,186.995 228.790 C 186.600 228.025,185.784 226.770,185.182 226.000 C 184.580 225.230,183.860 223.880,183.581 223.000 C 183.303 222.120,182.660 220.770,182.153 220.000 C 181.646 219.230,180.946 217.366,180.597 215.858 C 180.248 214.349,179.717 212.729,179.416 212.258 C 177.411 209.116,176.512 199.316,177.967 196.464 C 180.058 192.366,186.046 192.102,188.476 196.000 C 190.400 199.088,190.836 200.375,191.393 204.613 C 191.690 206.875,192.218 209.160,192.566 209.692 C 192.915 210.224,193.651 211.985,194.202 213.606 C 194.753 215.227,195.554 216.925,195.981 217.379 C 196.408 217.834,197.005 218.795,197.307 219.515 C 198.526 222.414,205.073 229.175,208.575 231.151 C 209.799 231.842,210.800 232.551,210.800 232.728 C 210.800 232.904,211.745 233.280,212.900 233.564 C 214.055 233.847,216.020 234.597,217.267 235.231 C 218.560 235.888,220.794 236.573,222.467 236.825 C 224.080 237.069,227.830 237.807,230.800 238.465 C 236.061 239.630,236.596 239.670,251.600 240.000 C 266.869 240.337,268.561 240.496,272.277 241.942 C 273.335 242.353,275.147 242.913,276.305 243.186 C 277.462 243.459,279.039 244.109,279.808 244.631 C 280.578 245.154,282.113 245.971,283.221 246.447 C 284.328 246.923,285.451 247.622,285.717 247.999 C 285.983 248.376,286.926 249.055,287.814 249.506 C 289.532 250.382,295.941 256.494,298.600 259.794 C 303.641 266.050,309.205 270.449,313.600 271.652 C 315.030 272.044,317.190 272.640,318.400 272.977 C 326.044 275.108,328.578 272.704,323.700 267.951 C 320.269 264.608,318.000 262.107,318.000 261.667 C 318.000 261.479,317.539 260.801,316.977 260.162 C 316.414 259.523,315.712 258.550,315.417 258.000 C 315.123 257.450,314.233 256.037,313.441 254.860 C 312.648 253.683,312.000 252.506,312.000 252.244 C 312.000 251.983,311.654 251.091,311.231 250.261 C 308.377 244.663,312.682 238.918,318.576 240.460 C 320.882 241.063,322.496 242.897,325.088 247.863 C 326.485 250.541,330.487 255.858,332.869 258.200 C 335.819 261.102,336.830 262.000,337.147 262.000 C 337.355 262.000,338.262 262.616,339.163 263.369 C 340.065 264.123,341.477 264.960,342.301 265.231 C 343.126 265.501,344.515 266.094,345.389 266.548 C 350.567 269.238,356.237 266.535,363.171 258.073 C 367.792 252.434,370.880 239.282,369.667 230.400 C 368.684 223.201,367.880 218.837,367.124 216.600 C 366.678 215.280,365.877 212.766,365.344 211.013 C 364.812 209.260,364.044 207.460,363.638 207.013 C 363.233 206.566,362.509 205.133,362.029 203.829 C 361.550 202.524,360.898 201.264,360.580 201.029 C 360.261 200.793,359.506 199.691,358.901 198.580 C 357.648 196.281,355.270 192.894,354.448 192.240 C 354.144 191.998,353.244 191.150,352.448 190.355 C 350.214 188.125,346.678 185.702,344.386 184.831 C 343.244 184.398,342.015 183.777,341.655 183.452 C 341.295 183.127,339.981 182.481,338.736 182.015 C 337.491 181.550,336.239 180.888,335.952 180.543 C 335.666 180.198,334.437 179.475,333.220 178.937 C 332.003 178.399,330.644 177.618,330.200 177.200 C 329.756 176.782,328.404 175.983,327.196 175.424 C 325.988 174.864,324.550 174.068,324.000 173.653 C 323.450 173.239,322.190 172.421,321.200 171.835 C 316.886 169.282,315.385 168.271,314.917 167.603 C 314.643 167.212,313.995 166.785,313.477 166.655 C 312.522 166.415,307.998 163.310,305.800 161.385 C 300.140 156.430,298.261 156.141,288.400 158.707 C 283.062 160.096,263.187 160.392,259.400 159.138 C 258.300 158.774,256.050 158.179,254.400 157.817 C 249.000 156.631,246.610 155.950,246.000 155.423 C 245.670 155.138,244.140 154.509,242.600 154.026 C 241.060 153.542,239.107 152.694,238.261 152.142 C 237.414 151.589,236.000 150.882,235.117 150.571 C 234.234 150.259,232.776 149.463,231.877 148.802 C 230.978 148.141,230.008 147.600,229.722 147.600 C 229.436 147.600,228.527 146.995,227.701 146.255 C 224.666 143.536,222.956 143.560,218.595 146.383 C 214.283 149.174,209.053 142.612,210.690 136.466 C 212.040 131.397,211.718 116.844,210.145 111.800 C 209.458 109.600,208.762 106.812,208.598 105.604 C 208.433 104.396,207.801 102.506,207.193 101.404 C 206.585 100.302,205.783 98.455,205.412 97.300 C 205.040 96.145,204.586 95.200,204.404 95.200 C 204.221 95.200,203.684 94.400,203.211 93.422 C 202.737 92.445,201.998 91.197,201.567 90.649 C 201.136 90.101,200.346 88.883,199.811 87.941 C 197.981 84.719,190.126 76.489,187.699 75.251 C 186.805 74.795,186.012 74.275,185.937 74.096 C 185.862 73.917,184.990 73.299,184.000 72.723 C 183.010 72.148,181.767 71.299,181.239 70.838 C 179.918 69.686,179.618 69.771,177.898 71.784 M194.578 102.300 C 196.602 104.406,196.842 104.854,197.415 107.600 C 197.760 109.250,198.411 112.040,198.862 113.800 C 202.727 128.884,195.571 143.773,186.702 139.101 C 182.547 136.912,181.986 131.395,185.519 127.472 C 186.844 126.001,186.682 119.648,185.202 115.051 C 182.783 107.537,183.074 103.940,186.305 101.423 C 189.350 99.050,191.692 99.298,194.578 102.300 M240.169 174.471 C 240.626 174.705,241.540 175.397,242.200 176.009 C 247.414 180.847,253.375 180.847,258.000 176.008 C 260.006 173.910,264.358 173.361,267.400 174.825 C 270.177 176.160,270.654 182.210,268.179 184.695 C 267.470 185.408,266.789 186.252,266.666 186.572 C 266.543 186.892,265.938 187.471,265.321 187.859 C 264.705 188.247,263.618 189.060,262.907 189.664 C 262.195 190.269,260.845 190.976,259.907 191.234 C 258.968 191.493,256.910 192.131,255.333 192.652 C 251.986 193.758,250.196 193.831,247.187 192.984 C 245.984 192.646,243.806 192.050,242.347 191.661 C 240.888 191.272,239.204 190.604,238.604 190.177 C 238.005 189.750,236.905 189.028,236.161 188.573 C 231.315 185.614,229.152 180.561,230.920 176.330 C 231.905 173.973,237.139 172.921,240.169 174.471 M347.134 208.338 C 351.612 211.364,351.057 217.120,346.069 219.369 C 345.259 219.734,344.281 220.521,343.897 221.117 C 340.644 226.165,338.251 227.231,333.863 225.589 C 331.135 224.569,330.593 223.468,330.617 219.000 C 330.641 214.684,332.941 210.202,335.745 209.011 C 336.435 208.717,338.080 208.016,339.400 207.453 C 342.431 206.158,344.210 206.362,347.134 208.338 "
            fill="#ebecec" fill-rule="evenodd" id="path1" stroke="none"></path>
        <path
            d="M292.400 0.800 C 292.400 1.435,292.133 1.600,291.100 1.602 C 288.461 1.607,286.791 2.346,286.535 3.623 C 286.325 4.676,286.141 4.800,284.793 4.800 C 283.199 4.800,282.800 5.247,282.800 7.033 C 282.800 7.873,282.615 8.000,281.390 8.000 C 280.289 8.000,279.904 8.200,279.632 8.916 C 279.163 10.148,278.470 10.654,276.800 10.984 C 274.293 11.478,274.059 11.621,273.796 12.818 C 273.615 13.643,273.297 14.000,272.742 14.000 C 271.299 14.000,270.400 14.764,270.400 15.990 C 270.400 17.044,270.261 17.163,268.900 17.276 C 267.486 17.393,267.393 17.485,267.277 18.877 C 267.162 20.265,267.065 20.362,265.677 20.477 C 264.285 20.593,264.193 20.686,264.076 22.100 C 263.955 23.558,263.908 23.600,262.376 23.600 C 261.509 23.600,260.800 23.768,260.800 23.973 C 260.800 24.178,260.449 24.457,260.020 24.594 C 259.592 24.730,259.142 25.151,259.022 25.530 C 258.902 25.909,258.038 26.575,257.102 27.010 C 255.928 27.555,255.359 28.087,255.269 28.724 C 255.136 29.666,254.997 29.760,253.151 30.161 C 252.386 30.328,252.038 30.712,251.864 31.580 C 251.680 32.502,251.335 32.846,250.333 33.105 C 249.333 33.365,248.965 33.730,248.709 34.720 C 248.458 35.687,248.155 36.000,247.469 36.000 C 246.250 36.000,245.600 36.724,245.600 38.080 C 245.600 39.040,245.440 39.200,244.480 39.200 C 243.059 39.200,242.400 39.859,242.400 41.280 C 242.400 42.240,242.240 42.400,241.280 42.400 C 239.859 42.400,239.200 43.059,239.200 44.480 C 239.200 45.317,239.006 45.600,238.433 45.600 C 237.015 45.600,236.423 46.069,236.176 47.389 C 235.907 48.821,234.752 49.188,230.444 49.209 C 228.509 49.218,225.200 50.462,225.200 51.180 C 225.200 51.456,223.009 51.600,218.833 51.600 C 211.360 51.600,211.200 51.639,211.200 53.443 L 211.200 54.800 208.000 54.800 C 206.133 54.800,204.800 54.967,204.800 55.200 C 204.800 55.420,204.522 55.600,204.181 55.600 C 203.841 55.600,203.258 56.132,202.884 56.782 C 202.313 57.777,201.921 57.983,200.403 58.082 C 198.690 58.194,198.594 58.265,198.475 59.500 C 198.290 61.417,195.200 60.602,195.200 58.636 C 195.200 58.162,194.798 58.000,193.624 58.000 C 192.092 58.000,192.045 57.958,191.924 56.500 L 191.800 55.000 189.702 54.879 C 187.802 54.770,187.485 54.609,186.335 53.179 L 185.066 51.600 179.033 51.640 C 171.741 51.688,171.138 51.823,170.653 53.516 C 170.320 54.676,170.135 54.800,168.742 54.800 C 167.214 54.800,167.200 54.814,167.200 56.376 C 167.200 57.908,167.158 57.955,165.700 58.076 C 164.281 58.193,164.193 58.281,164.076 59.700 C 163.971 60.966,163.807 61.200,163.025 61.200 C 161.700 61.200,161.298 61.881,160.984 64.659 C 160.722 66.974,160.637 67.131,159.453 67.469 C 158.205 67.826,158.200 67.839,158.084 70.874 C 157.974 73.757,157.913 73.935,156.958 74.175 C 155.816 74.461,154.800 76.445,154.800 78.387 C 154.800 79.535,154.715 79.600,153.200 79.600 C 151.809 79.600,151.599 79.482,151.594 78.700 C 151.583 77.098,151.085 76.850,147.308 76.565 C 143.915 76.309,143.541 76.194,142.366 75.044 L 141.094 73.800 131.294 73.680 C 120.885 73.552,119.379 73.772,118.424 75.555 C 118.112 76.139,117.327 76.326,114.319 76.535 C 109.523 76.868,108.929 77.055,108.467 78.379 C 108.124 79.365,107.842 79.503,105.709 79.725 C 102.525 80.058,102.129 80.254,101.855 81.626 C 101.648 82.661,101.451 82.800,100.197 82.800 C 99.203 82.800,98.700 83.011,98.528 83.500 C 98.009 84.970,96.680 86.000,95.304 86.000 C 93.317 86.000,92.400 86.628,92.400 87.990 C 92.400 89.044,92.261 89.163,90.900 89.276 C 89.481 89.393,89.393 89.481,89.276 90.900 C 89.163 92.261,89.044 92.400,87.990 92.400 C 86.628 92.400,86.000 93.317,86.000 95.304 C 86.000 96.680,84.970 98.009,83.500 98.528 C 82.951 98.722,82.800 99.238,82.800 100.918 C 82.800 103.039,81.767 104.800,80.524 104.800 C 79.892 104.800,79.600 106.836,79.600 111.238 C 79.600 115.036,79.554 115.243,78.300 117.023 L 77.000 118.870 76.999 139.135 C 76.998 150.281,76.840 161.865,76.646 164.879 L 76.294 170.357 75.047 170.479 C 73.863 170.594,73.794 170.696,73.678 172.500 C 73.595 173.800,73.380 174.400,72.998 174.400 C 72.418 174.400,70.400 176.782,70.400 177.468 C 70.400 178.201,68.607 179.462,66.854 179.962 C 65.511 180.345,65.006 180.730,64.666 181.630 C 64.299 182.602,63.998 182.800,62.886 182.800 C 61.430 182.800,58.800 184.504,58.800 185.447 C 58.800 185.871,58.058 186.000,55.614 186.000 C 52.233 186.000,51.600 186.367,51.600 188.327 C 51.600 189.004,51.253 189.129,48.973 189.274 C 46.055 189.460,45.800 189.671,45.418 192.220 C 45.167 193.891,44.455 194.846,43.100 195.327 C 42.466 195.551,42.402 196.284,42.418 203.087 C 42.437 211.176,42.690 212.480,44.400 213.325 C 45.070 213.655,45.441 214.212,45.525 215.009 C 45.684 216.526,46.571 217.200,48.407 217.200 C 49.885 217.200,51.193 218.185,51.728 219.700 C 51.900 220.188,52.403 220.400,53.387 220.400 L 54.800 220.400 54.789 222.700 C 54.779 224.856,54.692 225.063,53.400 226.000 C 51.582 227.319,51.520 227.770,51.672 238.507 L 51.800 247.587 53.300 248.822 L 54.800 250.058 54.800 260.242 C 54.800 269.591,54.743 270.443,54.100 270.641 C 52.460 271.148,52.190 271.542,51.828 273.948 C 51.498 276.147,51.343 276.445,50.428 276.644 C 48.539 277.054,48.400 277.169,48.400 278.330 C 48.400 279.460,48.345 279.489,45.784 279.729 C 42.601 280.026,42.400 280.138,42.400 281.624 L 42.400 282.800 38.700 282.805 C 33.788 282.813,33.278 282.976,32.965 284.644 C 32.738 285.857,32.573 286.000,31.402 286.000 C 30.037 286.000,29.618 286.630,29.605 288.700 C 29.602 289.328,29.361 289.600,28.809 289.600 C 26.830 289.600,25.822 296.582,26.673 304.400 L 27.000 307.400 28.277 307.524 C 29.434 307.636,29.566 307.787,29.677 309.124 C 29.793 310.511,29.889 310.607,31.277 310.723 C 32.665 310.838,32.762 310.935,32.877 312.323 C 32.993 313.715,33.086 313.807,34.500 313.924 C 35.737 314.026,36.001 314.202,36.006 314.924 C 36.016 316.388,36.612 316.878,38.651 317.097 C 40.600 317.307,41.481 317.883,42.360 319.525 C 42.713 320.184,43.195 320.400,44.314 320.399 L 45.800 320.399 45.540 326.699 C 45.397 330.165,45.262 334.473,45.240 336.273 C 45.204 339.224,45.118 339.572,44.363 339.812 C 43.394 340.119,42.400 342.233,42.400 343.987 C 42.400 345.062,42.266 345.200,41.228 345.200 C 39.891 345.200,37.341 346.679,37.004 347.650 C 36.818 348.184,35.964 348.331,32.207 348.475 L 27.636 348.650 26.266 350.102 C 25.070 351.371,24.624 351.570,22.748 351.677 L 20.600 351.800 20.477 353.277 C 20.362 354.665,20.265 354.762,18.877 354.877 L 17.400 355.000 17.278 357.140 C 17.160 359.195,16.167 360.811,14.726 361.291 C 12.960 361.880,14.324 372.165,16.232 372.644 C 17.072 372.855,17.206 373.132,17.247 374.743 C 17.332 378.081,17.673 378.934,19.080 379.337 C 20.178 379.652,20.375 379.908,20.479 381.152 C 20.592 382.507,20.695 382.608,22.077 382.723 C 23.465 382.838,23.562 382.935,23.677 384.323 C 23.790 385.676,23.918 385.817,25.200 386.000 C 26.437 386.177,26.615 386.351,26.725 387.499 C 26.825 388.538,27.066 388.844,27.925 389.032 C 29.826 389.447,29.940 389.535,30.071 390.676 C 30.198 391.779,30.254 391.802,33.077 391.917 L 35.954 392.034 36.077 393.517 L 36.200 395.000 39.300 395.117 L 42.400 395.234 42.400 396.574 C 42.400 398.284,42.734 398.400,47.633 398.400 C 51.333 398.400,51.600 398.454,51.600 399.200 C 51.600 399.993,51.867 400.000,83.600 400.000 C 115.333 400.000,115.600 399.993,115.600 399.200 C 115.600 398.465,115.869 398.400,118.900 398.394 C 122.701 398.387,123.000 398.261,123.382 396.500 L 123.664 395.200 126.632 395.200 C 128.344 395.200,129.600 395.031,129.600 394.800 C 129.600 394.580,129.878 394.400,130.219 394.400 C 130.559 394.400,131.144 393.861,131.519 393.203 C 132.108 392.166,132.430 392.005,133.913 392.003 C 135.000 392.001,135.703 391.798,135.837 391.447 C 136.018 390.975,136.323 390.975,137.888 391.447 C 138.900 391.751,140.329 392.000,141.064 392.000 C 142.214 392.000,142.400 392.136,142.400 392.977 C 142.400 394.534,143.784 395.200,147.019 395.200 C 149.976 395.200,151.046 395.768,151.728 397.700 C 151.945 398.314,152.565 398.400,156.787 398.400 C 161.333 398.400,161.600 398.444,161.600 399.200 C 161.600 399.996,161.867 400.000,209.600 400.000 C 257.333 400.000,257.600 399.996,257.600 399.200 C 257.600 398.483,257.867 398.400,260.167 398.400 C 263.565 398.400,264.000 398.196,264.000 396.604 L 264.000 395.293 266.627 395.126 C 269.378 394.951,269.982 394.555,269.994 392.924 C 269.999 392.204,270.264 392.026,271.487 391.924 C 272.842 391.811,273.006 391.666,273.327 390.300 C 273.602 389.128,273.872 388.800,274.560 388.800 C 275.863 388.800,276.400 388.038,276.400 386.190 C 276.400 384.512,277.303 383.235,278.883 382.679 C 279.432 382.485,279.589 381.833,279.683 379.336 C 279.794 376.398,279.853 376.221,280.800 376.001 C 282.510 375.602,282.753 373.977,282.775 362.800 C 282.798 351.318,282.568 349.745,280.768 349.066 L 279.600 348.625 279.600 343.912 C 279.600 341.037,279.444 339.200,279.200 339.200 C 278.980 339.200,278.800 338.922,278.800 338.581 C 278.800 338.241,278.267 337.657,277.615 337.282 C 276.476 336.629,276.425 336.476,276.315 333.425 L 276.200 330.249 274.900 329.913 C 273.643 329.588,273.600 329.508,273.595 327.489 C 273.586 324.158,273.322 323.600,271.753 323.600 L 270.400 323.600 270.400 321.174 C 270.400 318.118,269.935 317.200,268.386 317.200 C 267.223 317.200,267.200 317.160,267.195 315.100 C 267.186 311.789,266.916 311.200,265.409 311.200 C 264.128 311.200,264.109 311.172,263.881 308.959 C 263.637 306.598,262.774 305.200,261.561 305.200 C 261.006 305.200,260.819 304.820,260.723 303.500 C 260.608 301.904,260.520 301.792,259.300 301.675 C 258.188 301.567,258.000 301.394,257.998 300.475 C 257.993 298.161,257.184 296.325,255.968 295.866 C 255.017 295.506,254.800 295.190,254.800 294.161 C 254.800 293.466,254.530 292.674,254.200 292.400 C 253.870 292.126,253.600 291.650,253.600 291.342 C 253.600 291.035,253.175 290.589,252.655 290.352 C 251.824 289.974,251.680 289.563,251.458 286.926 C 251.156 283.361,251.077 283.200,249.631 283.200 L 248.509 283.200 248.311 277.300 C 248.098 270.937,247.535 268.687,246.037 268.212 C 245.256 267.964,245.201 267.663,245.213 263.673 C 245.227 258.736,245.798 257.850,248.981 257.830 C 249.872 257.824,255.044 257.860,260.475 257.909 L 270.349 258.000 270.475 259.300 L 270.600 260.600 273.389 260.720 C 276.359 260.848,276.784 261.120,276.794 262.900 C 276.799 263.878,276.947 264.000,278.129 264.000 C 279.333 264.000,279.494 264.142,279.829 265.500 C 280.152 266.807,280.367 267.016,281.500 267.125 C 282.639 267.235,282.800 267.394,282.800 268.411 C 282.800 269.645,283.701 270.400,285.174 270.400 C 285.852 270.400,286.000 270.652,286.000 271.810 C 286.000 272.894,286.208 273.307,286.900 273.596 C 288.296 274.180,289.200 275.024,289.200 275.744 C 289.200 276.105,289.479 276.400,289.819 276.400 C 290.522 276.400,292.368 278.341,292.387 279.100 C 292.395 279.402,292.953 279.600,293.800 279.600 C 295.014 279.600,295.200 279.728,295.200 280.567 C 295.200 282.367,295.596 282.800,297.243 282.800 C 298.616 282.800,298.800 282.913,298.800 283.751 C 298.800 285.169,299.631 285.616,302.757 285.878 C 304.872 286.055,305.634 286.278,305.789 286.764 C 305.902 287.122,306.761 287.828,307.697 288.334 L 309.400 289.254 327.618 289.127 C 347.324 288.990,348.000 288.912,348.000 286.791 C 348.000 286.078,348.286 285.998,350.900 285.977 C 355.793 285.938,356.938 285.606,357.383 284.098 C 357.739 282.890,357.891 282.797,359.583 282.760 C 362.484 282.696,363.337 282.316,363.741 280.906 C 364.052 279.824,364.312 279.625,365.552 279.521 C 366.911 279.407,367.008 279.308,367.124 277.900 C 367.245 276.442,367.292 276.400,368.824 276.400 C 370.089 276.400,370.400 276.254,370.400 275.662 C 370.400 274.787,371.480 273.741,372.595 273.537 C 373.033 273.456,373.457 273.033,373.538 272.595 C 373.737 271.524,374.380 270.788,375.484 270.368 C 376.200 270.096,376.400 269.711,376.400 268.610 C 376.400 267.385,376.527 267.200,377.367 267.200 C 379.282 267.200,379.600 266.840,379.607 264.657 C 379.614 262.544,380.384 261.318,382.100 260.684 C 382.679 260.470,382.800 259.920,382.803 257.513 C 382.805 254.711,382.850 254.575,383.978 253.932 C 385.955 252.808,386.058 251.669,385.923 232.540 L 385.800 215.138 384.300 213.763 L 382.800 212.389 382.800 208.782 C 382.800 205.712,382.696 205.136,382.100 204.916 C 380.310 204.255,379.615 203.071,379.567 200.600 C 379.498 197.065,379.182 196.262,377.688 195.817 C 376.572 195.486,376.400 195.257,376.400 194.104 C 376.400 192.246,375.431 190.127,374.437 189.812 C 373.882 189.636,373.600 189.209,373.600 188.547 C 373.600 186.894,372.893 186.000,371.586 186.000 C 370.495 186.000,370.400 185.887,370.400 184.587 C 370.400 183.603,370.188 183.100,369.700 182.928 C 368.706 182.577,367.200 181.152,367.200 180.562 C 367.200 179.938,363.704 176.405,363.068 176.387 C 362.315 176.365,360.800 174.929,360.800 174.236 C 360.800 173.776,360.414 173.600,359.408 173.600 C 358.214 173.600,357.981 173.443,357.774 172.500 C 357.642 171.895,357.464 171.175,357.379 170.900 C 357.275 170.562,356.314 170.400,354.413 170.400 C 351.837 170.400,351.600 170.330,351.600 169.574 C 351.600 167.626,350.951 167.200,347.986 167.200 L 345.200 167.200 345.200 165.843 C 345.200 164.305,344.731 164.000,342.367 164.000 C 340.789 164.000,339.606 163.235,339.085 161.877 C 338.935 161.488,338.177 161.110,337.247 160.961 C 336.010 160.763,335.610 160.496,335.421 159.740 C 335.130 158.584,333.781 158.000,331.398 158.000 C 329.665 158.000,329.647 157.986,329.524 156.500 L 329.400 155.000 327.227 154.877 C 324.996 154.750,324.364 154.337,323.596 152.500 C 323.307 151.808,322.894 151.600,321.810 151.600 C 320.432 151.600,320.400 151.564,320.400 150.000 C 320.400 148.448,320.440 148.400,321.757 148.400 C 323.191 148.400,323.600 147.904,323.600 146.167 C 323.600 145.328,323.786 145.200,325.000 145.200 C 326.367 145.200,326.400 145.162,326.400 143.600 L 326.400 142.000 328.000 142.000 C 329.562 142.000,329.600 141.967,329.600 140.600 C 329.600 139.452,329.749 139.200,330.426 139.200 C 331.991 139.200,332.800 138.455,332.800 137.011 C 332.800 135.769,332.913 135.640,334.100 135.525 C 335.396 135.400,335.401 135.392,335.768 132.500 L 336.136 129.600 337.425 129.600 C 338.907 129.600,339.200 129.110,339.200 126.629 C 339.200 124.906,339.799 124.006,341.300 123.473 C 341.888 123.265,342.000 122.710,342.000 120.003 C 342.000 116.950,342.052 116.761,342.981 116.407 C 345.044 115.623,345.200 114.623,345.200 102.220 C 345.200 89.802,345.089 89.200,342.800 89.200 C 342.157 89.200,342.000 88.933,342.000 87.843 C 342.000 86.314,341.528 86.000,339.233 86.000 C 337.987 86.000,337.487 85.727,336.295 84.400 L 334.859 82.800 329.862 82.800 C 324.768 82.800,323.600 82.967,323.600 83.697 C 323.600 85.853,321.565 86.128,306.300 86.030 L 301.600 86.000 301.600 84.000 C 301.600 82.900,301.779 82.000,301.997 82.000 C 303.258 82.000,304.800 78.665,304.800 75.940 C 304.800 73.322,304.842 73.200,305.751 73.200 C 307.310 73.200,307.710 72.248,307.912 68.053 L 308.100 64.137 309.350 63.769 L 310.600 63.400 310.713 58.904 C 310.825 54.447,310.835 54.407,311.856 54.150 C 313.492 53.740,314.000 51.913,314.000 46.441 C 314.000 41.783,314.024 41.652,314.900 41.528 C 316.695 41.273,317.199 39.258,317.199 32.328 C 317.200 26.136,317.211 26.054,318.096 25.928 C 319.765 25.690,320.158 23.991,320.305 16.400 C 320.475 7.535,320.228 5.994,318.515 5.237 C 317.470 4.775,317.219 4.414,317.120 3.237 C 317.008 1.891,316.905 1.792,315.500 1.676 C 314.325 1.579,314.000 1.384,314.000 0.776 C 314.000 0.027,313.621 0.000,303.200 0.000 C 292.667 0.000,292.400 0.020,292.400 0.800 M302.670 15.100 C 303.622 17.367,303.111 23.813,301.605 28.543 C 300.965 30.555,300.317 33.190,300.166 34.400 C 299.514 39.617,298.499 40.022,285.400 40.294 C 273.429 40.543,272.400 40.351,272.400 37.874 C 272.400 36.018,273.158 35.207,279.768 29.986 C 281.290 28.784,283.000 27.335,283.568 26.767 C 284.135 26.198,285.050 25.497,285.600 25.209 C 286.150 24.920,287.230 24.162,288.000 23.522 C 291.865 20.314,293.292 19.254,295.974 17.600 C 297.578 16.610,299.456 15.310,300.146 14.712 C 301.775 13.298,301.923 13.320,302.670 15.100 M266.820 50.421 C 269.779 50.652,274.630 51.093,277.600 51.402 C 281.943 51.853,283.970 51.873,287.952 51.502 L 292.904 51.041 293.888 52.185 C 294.971 53.443,294.969 53.680,293.832 58.745 C 293.468 60.364,292.806 62.404,292.361 63.277 C 291.915 64.150,291.206 66.211,290.786 67.856 C 290.365 69.502,289.674 71.334,289.251 71.928 C 288.828 72.522,288.102 74.165,287.638 75.578 C 286.045 80.431,283.935 81.848,281.450 79.734 C 280.718 79.110,279.597 78.287,278.959 77.905 C 277.069 76.771,272.509 73.290,266.800 68.622 C 265.590 67.632,264.060 66.523,263.400 66.156 C 262.740 65.790,261.570 64.996,260.800 64.392 C 259.448 63.331,257.740 62.238,253.300 59.592 C 252.145 58.904,251.200 58.190,251.200 58.006 C 251.200 57.200,253.976 53.586,255.913 51.871 C 258.346 49.718,258.154 49.743,266.820 50.421 M237.280 66.449 C 238.446 66.696,240.030 67.212,240.800 67.595 C 241.570 67.978,243.117 68.507,244.237 68.771 C 245.358 69.034,247.302 69.868,248.557 70.625 C 249.813 71.381,250.986 72.000,251.165 72.000 C 251.344 72.000,252.190 72.556,253.045 73.236 C 253.900 73.916,255.140 74.725,255.800 75.034 C 256.460 75.342,258.170 76.596,259.600 77.819 C 262.517 80.314,265.718 82.832,268.163 84.553 C 269.063 85.187,269.890 85.826,270.000 85.974 C 270.110 86.121,270.920 86.666,271.800 87.184 C 272.680 87.702,273.940 88.611,274.600 89.205 C 275.668 90.166,278.232 91.697,281.800 93.506 C 282.460 93.840,283.577 94.541,284.282 95.064 C 284.988 95.586,286.608 96.406,287.882 96.886 C 289.157 97.366,290.869 98.192,291.686 98.723 C 292.503 99.253,294.463 99.934,296.042 100.234 C 297.620 100.535,299.292 101.026,299.756 101.324 C 301.798 102.638,303.593 102.916,311.650 103.165 C 322.722 103.506,322.755 103.532,318.045 108.305 C 314.670 111.727,310.362 114.760,307.045 116.051 C 305.920 116.489,304.280 117.181,303.400 117.589 C 298.440 119.891,278.248 119.779,275.633 117.435 C 275.285 117.123,273.793 116.480,272.317 116.005 C 270.841 115.530,269.218 114.814,268.709 114.414 C 268.201 114.015,266.888 113.198,265.792 112.599 C 264.697 112.000,263.620 111.290,263.400 111.021 C 263.180 110.751,262.246 110.056,261.324 109.476 C 260.403 108.896,259.233 108.040,258.724 107.574 C 257.637 106.578,255.905 105.391,252.600 103.378 C 251.280 102.574,250.059 101.670,249.887 101.370 C 249.714 101.069,248.642 100.546,247.504 100.208 C 246.365 99.870,244.796 99.155,244.017 98.618 C 243.238 98.082,241.160 97.252,239.400 96.774 C 237.640 96.296,235.491 95.545,234.625 95.106 C 232.468 94.012,227.755 93.231,223.200 93.212 C 218.399 93.193,217.178 92.580,216.400 89.799 C 216.108 88.758,215.470 87.432,214.982 86.851 C 214.493 86.270,213.600 84.896,212.997 83.798 C 212.395 82.699,211.508 81.350,211.028 80.800 C 210.547 80.250,209.714 79.126,209.177 78.303 C 208.640 77.479,208.109 76.804,207.997 76.803 C 206.550 76.783,208.303 73.169,210.138 72.390 C 211.272 71.909,212.584 71.162,213.053 70.732 C 213.522 70.301,214.913 69.686,216.143 69.364 C 217.373 69.043,219.239 68.403,220.290 67.942 C 224.514 66.089,232.336 65.401,237.280 66.449 M182.800 69.609 C 183.350 70.049,184.520 70.898,185.400 71.496 C 186.280 72.094,187.405 73.001,187.900 73.512 C 188.395 74.024,189.333 74.627,189.984 74.854 C 190.635 75.081,191.277 75.614,191.412 76.038 C 191.547 76.462,192.179 77.079,192.816 77.409 C 193.454 77.738,194.187 78.403,194.446 78.885 C 194.883 79.702,195.821 80.763,198.807 83.822 C 199.463 84.494,200.000 85.227,200.000 85.450 C 200.000 85.673,200.636 86.598,201.412 87.506 C 202.189 88.413,203.256 90.131,203.783 91.324 C 204.311 92.517,205.015 93.597,205.348 93.725 C 205.682 93.853,206.319 95.136,206.764 96.576 C 207.208 98.017,207.936 99.691,208.380 100.298 C 208.827 100.907,209.471 102.901,209.821 104.758 C 210.168 106.605,210.915 109.000,211.480 110.081 C 212.893 112.783,213.314 120.500,212.725 132.917 L 212.293 142.034 213.203 143.003 C 214.373 144.248,217.135 145.628,217.447 145.124 C 217.577 144.914,219.016 144.135,220.644 143.393 L 223.605 142.043 225.991 143.227 C 227.304 143.878,228.561 144.754,228.785 145.172 C 229.009 145.591,230.049 146.218,231.097 146.566 C 232.144 146.914,233.511 147.739,234.135 148.400 C 234.864 149.173,235.832 149.692,236.846 149.854 C 237.713 149.992,239.241 150.648,240.241 151.310 C 241.241 151.972,242.870 152.666,243.863 152.851 C 244.855 153.037,246.147 153.454,246.733 153.780 C 249.430 155.275,250.834 155.719,254.387 156.198 C 256.581 156.494,259.049 157.112,260.200 157.653 C 263.463 159.188,281.595 159.101,286.000 157.530 C 292.782 155.112,300.081 155.147,303.065 157.613 C 304.121 158.486,305.182 159.200,305.423 159.200 C 305.664 159.200,306.284 159.651,306.802 160.202 C 307.320 160.754,308.702 161.745,309.872 162.406 C 311.042 163.066,312.000 163.757,312.000 163.940 C 312.000 164.123,312.877 164.750,313.948 165.333 C 315.020 165.917,316.124 166.667,316.401 167.002 C 316.679 167.336,317.737 167.977,318.753 168.426 C 319.769 168.875,321.050 169.663,321.600 170.177 C 322.150 170.691,323.332 171.479,324.227 171.927 C 325.121 172.375,326.080 173.015,326.358 173.349 C 326.635 173.683,327.722 174.242,328.773 174.591 C 329.825 174.940,331.097 175.664,331.600 176.200 C 332.103 176.736,333.363 177.456,334.400 177.800 C 335.437 178.144,336.709 178.877,337.227 179.429 C 337.745 179.980,338.944 180.626,339.891 180.865 C 340.839 181.103,342.272 181.822,343.077 182.461 C 343.881 183.101,345.338 183.825,346.313 184.070 C 349.619 184.903,360.000 195.044,360.000 197.441 C 360.000 197.733,360.556 198.606,361.236 199.380 C 361.916 200.154,362.830 201.736,363.268 202.894 C 363.706 204.052,364.408 205.370,364.828 205.822 C 365.249 206.274,365.901 207.894,366.278 209.422 C 366.654 210.950,367.364 212.792,367.854 213.516 C 368.379 214.291,368.852 215.773,369.003 217.116 C 369.508 221.612,370.061 224.092,370.924 225.733 C 372.241 228.239,372.260 241.444,370.949 243.600 C 370.144 244.924,369.572 246.969,368.993 250.600 C 368.852 251.480,368.320 252.650,367.811 253.200 C 367.301 253.750,366.757 254.803,366.601 255.541 C 366.367 256.651,364.513 259.172,361.902 261.931 C 360.163 263.768,356.715 266.800,356.364 266.800 C 356.134 266.800,355.296 267.295,354.500 267.900 C 352.414 269.487,346.412 269.509,344.333 267.938 C 343.600 267.384,342.127 266.636,341.061 266.276 C 339.994 265.916,338.413 265.032,337.547 264.311 C 334.691 261.932,328.666 255.914,327.669 254.444 C 327.130 253.650,326.369 252.775,325.977 252.500 C 325.585 252.225,324.974 251.126,324.619 250.057 C 324.264 248.989,323.530 247.698,322.987 247.188 C 322.444 246.678,322.000 246.047,322.000 245.787 C 322.000 244.011,318.697 241.563,316.460 241.682 C 311.883 241.924,310.817 249.325,314.720 253.770 C 315.377 254.519,316.142 255.822,316.419 256.666 C 316.696 257.510,317.256 258.436,317.664 258.724 C 318.071 259.013,318.698 259.816,319.056 260.509 C 319.415 261.202,321.618 263.666,323.953 265.985 C 328.751 270.749,329.863 272.880,328.291 274.295 C 327.059 275.404,317.472 275.271,315.556 274.119 C 314.810 273.670,312.895 272.915,311.300 272.440 C 309.705 271.965,308.400 271.428,308.400 271.245 C 308.400 271.063,307.455 270.278,306.300 269.502 C 303.869 267.869,299.699 263.872,297.422 260.994 C 296.554 259.897,295.190 258.370,294.391 257.600 C 293.593 256.830,292.773 255.930,292.569 255.600 C 292.078 254.801,286.797 250.367,286.015 250.097 C 285.677 249.980,284.860 249.400,284.200 248.808 C 283.540 248.217,282.260 247.523,281.356 247.267 C 280.452 247.011,279.081 246.300,278.311 245.688 C 277.278 244.868,276.079 244.435,273.755 244.045 C 271.907 243.735,269.876 243.091,268.853 242.492 L 267.107 241.469 249.253 241.163 C 231.436 240.858,229.759 240.727,227.292 239.449 C 226.572 239.076,224.052 238.486,221.692 238.138 C 218.254 237.632,217.082 237.281,215.800 236.376 C 214.920 235.755,213.521 235.126,212.690 234.977 C 211.860 234.829,210.600 234.281,209.890 233.760 C 209.181 233.239,207.848 232.462,206.930 232.033 C 204.624 230.957,197.686 223.901,196.681 221.609 C 196.245 220.614,195.382 219.219,194.763 218.509 C 194.145 217.798,193.519 216.538,193.372 215.709 C 193.225 214.879,192.603 213.300,191.991 212.200 C 191.175 210.734,190.707 209.025,190.239 205.800 C 189.851 203.134,189.321 201.006,188.892 200.400 C 188.503 199.850,187.738 198.471,187.192 197.335 C 185.222 193.235,179.698 194.145,178.526 198.764 C 178.019 200.762,179.133 208.059,180.178 209.580 C 180.772 210.445,181.332 212.094,181.611 213.800 C 181.890 215.506,182.509 217.329,183.196 218.464 C 183.815 219.489,184.603 221.289,184.946 222.464 C 185.299 223.672,185.920 224.816,186.375 225.098 C 186.819 225.371,187.569 226.361,188.043 227.298 C 188.518 228.234,189.512 229.676,190.253 230.501 C 190.994 231.327,191.600 232.267,191.600 232.591 C 191.600 232.915,192.148 233.463,192.817 233.809 C 193.487 234.155,194.234 234.876,194.478 235.412 C 194.722 235.947,195.245 236.487,195.640 236.613 C 196.036 236.738,196.950 237.393,197.672 238.067 C 198.394 238.742,199.913 239.888,201.048 240.614 C 202.183 241.340,203.231 242.126,203.376 242.362 C 203.522 242.597,204.606 243.070,205.787 243.413 C 206.967 243.757,208.160 244.311,208.437 244.645 C 209.257 245.632,210.818 246.241,213.890 246.771 C 215.479 247.045,217.189 247.587,217.690 247.976 C 219.027 249.015,220.980 249.515,224.800 249.794 C 231.931 250.314,231.598 249.664,231.607 263.087 C 231.615 275.074,232.019 279.499,233.371 282.417 C 233.916 283.593,234.473 285.555,234.609 286.777 C 234.901 289.406,235.469 291.101,236.426 292.200 C 236.809 292.640,237.507 294.255,237.976 295.790 C 238.446 297.324,239.162 298.944,239.568 299.390 C 240.491 300.402,241.600 302.567,241.600 303.355 C 241.600 303.683,242.140 304.542,242.800 305.264 C 243.460 305.987,244.000 306.808,244.000 307.088 C 244.000 307.368,244.607 308.273,245.348 309.099 C 246.090 309.924,247.166 311.532,247.741 312.672 C 248.315 313.811,248.971 314.858,249.198 314.999 C 249.426 315.140,249.869 315.871,250.184 316.623 C 250.498 317.376,251.286 318.669,251.934 319.496 C 252.582 320.323,253.332 321.694,253.601 322.542 C 253.870 323.389,254.514 324.452,255.033 324.904 C 255.552 325.355,256.273 326.641,256.635 327.762 C 256.997 328.883,257.812 330.626,258.446 331.635 C 259.081 332.644,259.601 333.634,259.602 333.835 C 259.609 334.936,260.551 337.319,261.363 338.288 C 261.905 338.934,262.576 340.639,262.966 342.360 C 263.335 343.989,264.109 346.126,264.685 347.110 C 267.593 352.071,267.489 372.019,264.540 375.146 C 263.803 375.928,263.200 376.765,263.200 377.008 C 263.200 378.666,255.452 384.131,252.166 384.792 C 250.865 385.053,248.630 385.837,247.200 386.534 L 244.600 387.800 217.200 387.929 C 187.221 388.070,177.813 387.733,175.254 386.427 C 174.341 385.962,171.746 385.424,168.495 385.027 C 162.532 384.298,162.532 384.298,159.800 382.977 C 158.700 382.445,156.779 381.818,155.531 381.583 C 153.814 381.260,152.627 380.676,150.659 379.186 C 147.352 376.683,147.392 376.772,148.806 374.993 C 149.463 374.166,150.000 373.243,150.000 372.941 C 150.000 372.639,150.375 372.079,150.833 371.696 C 151.291 371.313,152.084 370.190,152.594 369.200 C 153.104 368.210,153.994 366.958,154.573 366.419 C 155.152 365.879,155.898 364.496,156.233 363.347 C 156.567 362.197,157.204 360.795,157.648 360.230 C 158.123 359.626,158.774 357.619,159.232 355.343 C 159.659 353.219,160.352 350.923,160.773 350.240 C 162.863 346.848,162.894 328.505,160.816 324.432 C 160.373 323.563,159.657 320.647,159.224 317.950 C 158.720 314.812,158.167 312.678,157.688 312.023 C 157.275 311.461,156.624 309.740,156.240 308.200 C 155.856 306.660,155.015 304.604,154.371 303.631 C 152.731 301.155,152.746 298.492,154.412 296.033 C 155.070 295.062,155.875 293.369,156.201 292.272 C 156.527 291.175,157.176 289.630,157.644 288.839 C 158.112 288.047,158.821 285.600,159.221 283.400 C 159.620 281.200,160.323 278.556,160.782 277.524 C 163.040 272.448,163.029 247.569,160.766 243.134 C 160.314 242.246,159.712 239.657,159.362 237.090 C 158.957 234.121,158.428 231.976,157.800 230.756 C 157.278 229.742,156.557 227.762,156.198 226.356 C 155.839 224.950,155.080 223.121,154.511 222.290 C 153.943 221.460,153.237 219.852,152.942 218.717 C 152.648 217.582,151.936 215.974,151.361 215.144 C 150.570 214.002,150.226 212.842,149.952 210.385 C 149.752 208.598,149.217 206.115,148.763 204.868 C 146.822 199.530,147.604 195.910,151.657 191.474 C 152.285 190.785,152.800 190.082,152.800 189.912 C 152.800 189.742,153.416 188.921,154.169 188.087 C 154.922 187.254,155.841 185.813,156.212 184.886 C 156.583 183.959,157.057 183.200,157.264 183.200 C 157.472 183.200,158.200 181.985,158.882 180.500 C 159.564 179.015,160.425 177.440,160.795 177.000 C 161.165 176.560,161.877 175.221,162.377 174.025 C 162.877 172.829,163.617 171.389,164.021 170.825 C 164.426 170.261,165.229 168.318,165.806 166.506 C 166.383 164.695,167.026 163.108,167.234 162.979 C 167.442 162.850,167.876 162.114,168.198 161.342 C 168.669 160.215,169.255 159.731,171.176 158.882 C 175.099 157.149,176.362 151.048,173.503 147.649 C 172.530 146.493,171.973 145.171,171.446 142.771 C 171.322 142.205,170.765 141.071,170.209 140.251 C 169.540 139.266,168.992 137.584,168.592 135.292 C 168.260 133.385,167.502 130.469,166.909 128.812 C 164.899 123.197,165.116 98.775,167.217 94.163 C 167.639 93.237,168.250 90.835,168.575 88.824 C 168.960 86.441,169.453 84.804,169.991 84.121 C 170.445 83.544,171.201 81.796,171.672 80.236 C 172.143 78.676,172.960 76.829,173.487 76.131 C 174.015 75.434,174.633 74.174,174.860 73.331 C 175.953 69.276,180.007 67.376,182.800 69.609 M137.959 91.209 C 139.785 91.446,141.545 91.961,142.559 92.554 C 143.461 93.083,144.939 93.715,145.842 93.958 C 146.746 94.201,148.310 95.030,149.318 95.800 C 150.327 96.570,151.311 97.200,151.506 97.200 C 153.276 97.200,154.171 100.433,153.620 104.829 C 153.092 109.043,152.895 109.227,148.478 109.634 C 146.048 109.859,144.195 110.288,142.744 110.963 C 141.565 111.511,139.559 112.265,138.287 112.638 C 137.015 113.012,135.878 113.473,135.761 113.663 C 135.643 113.854,134.600 114.615,133.442 115.356 C 131.399 116.663,124.800 123.574,124.800 124.406 C 124.800 124.633,124.167 125.739,123.394 126.863 C 122.621 127.987,121.877 129.378,121.740 129.953 C 121.604 130.529,120.905 132.080,120.188 133.400 C 119.119 135.365,118.798 136.560,118.410 140.000 C 118.150 142.310,117.516 146.000,117.001 148.200 C 116.486 150.400,115.870 153.955,115.631 156.099 C 115.211 159.874,114.988 160.720,113.287 165.000 C 112.850 166.100,112.360 167.810,112.197 168.800 C 112.035 169.790,111.578 171.058,111.182 171.618 C 110.786 172.178,109.971 173.888,109.370 175.418 C 108.769 176.948,108.056 178.470,107.785 178.800 C 107.515 179.130,106.924 180.136,106.472 181.035 C 106.020 181.934,105.054 183.299,104.325 184.069 C 103.596 184.838,102.100 186.486,101.000 187.730 C 98.903 190.101,94.999 192.746,92.074 193.775 C 91.125 194.109,89.899 194.736,89.350 195.168 C 87.639 196.514,79.555 197.475,76.937 196.644 C 75.585 196.214,75.482 195.283,76.714 194.632 C 77.311 194.316,78.396 193.504,79.125 192.829 C 79.853 192.153,80.597 191.600,80.778 191.600 C 80.959 191.600,82.113 190.385,83.344 188.900 C 84.575 187.415,86.058 185.676,86.639 185.035 C 87.220 184.394,87.960 183.235,88.284 182.460 C 88.608 181.685,89.296 180.496,89.813 179.818 C 90.330 179.140,90.966 177.689,91.225 176.593 C 91.485 175.497,92.220 173.204,92.858 171.497 C 94.569 166.923,94.957 160.687,94.670 142.400 C 94.439 127.721,94.809 117.554,95.608 116.590 C 95.821 116.333,96.539 114.411,97.203 112.319 C 97.866 110.227,98.751 108.206,99.168 107.829 C 99.585 107.451,100.162 106.570,100.450 105.871 C 101.080 104.341,104.198 101.132,105.919 100.242 C 106.602 99.889,107.304 99.352,107.480 99.050 C 107.656 98.747,108.912 97.941,110.271 97.259 C 111.630 96.576,112.847 95.848,112.976 95.640 C 113.104 95.431,114.152 94.953,115.305 94.575 C 116.457 94.198,118.300 93.435,119.400 92.879 C 123.065 91.026,131.031 90.310,137.959 91.209 M187.600 102.408 C 186.830 103.060,185.885 103.865,185.500 104.197 C 184.254 105.271,184.829 110.698,186.422 112.894 C 188.153 115.281,188.505 125.622,186.949 128.376 C 185.060 131.718,184.837 132.314,184.819 134.071 C 184.766 139.287,193.261 139.119,196.081 133.848 C 197.532 131.138,198.547 121.276,197.693 118.200 C 197.448 117.320,197.042 114.620,196.789 112.200 C 196.299 107.505,195.676 105.957,193.205 103.288 C 191.034 100.944,189.597 100.718,187.600 102.408 M235.400 108.126 C 236.940 108.676,238.957 109.327,239.882 109.573 C 240.807 109.820,242.067 110.441,242.682 110.954 C 243.297 111.468,244.406 112.198,245.148 112.579 C 247.153 113.607,253.334 117.997,256.572 120.692 C 257.437 121.411,258.304 122.000,258.500 122.000 C 258.696 122.000,259.651 122.547,260.624 123.216 C 261.596 123.885,263.158 124.702,264.096 125.032 C 265.033 125.361,266.478 126.079,267.306 126.625 C 268.135 127.172,269.935 127.895,271.306 128.231 C 272.678 128.567,274.819 129.286,276.065 129.828 C 281.448 132.170,298.549 132.262,302.942 129.973 C 303.838 129.506,305.922 128.778,307.573 128.356 C 309.223 127.934,311.210 127.148,311.987 126.611 C 312.764 126.073,314.147 125.370,315.061 125.048 C 315.974 124.726,317.447 123.983,318.334 123.396 C 320.209 122.156,321.600 122.312,321.600 123.762 C 321.600 126.316,313.151 135.355,308.548 137.726 C 307.859 138.081,306.779 138.801,306.148 139.327 C 305.517 139.852,304.010 140.608,302.800 141.005 C 301.590 141.403,300.150 142.055,299.600 142.455 C 299.050 142.855,297.250 143.458,295.600 143.795 C 293.950 144.132,291.568 144.865,290.306 145.424 C 284.716 147.899,262.524 147.819,257.121 145.304 C 255.735 144.659,253.466 143.820,252.081 143.439 C 250.696 143.059,248.716 142.331,247.681 141.822 C 246.646 141.313,244.855 140.590,243.700 140.216 C 242.545 139.842,241.600 139.359,241.600 139.143 C 241.600 138.927,240.450 138.229,239.045 137.591 C 237.640 136.954,236.224 136.167,235.899 135.842 C 235.574 135.517,234.519 134.744,233.554 134.125 C 226.258 129.444,224.803 127.608,224.796 123.074 C 224.794 121.713,224.344 118.187,223.796 115.238 C 222.667 109.158,222.593 107.975,223.300 107.239 C 224.161 106.342,232.013 106.918,235.400 108.126 M152.586 122.568 C 153.335 122.881,154.219 123.662,154.551 124.304 C 155.122 125.409,155.345 126.533,156.384 133.535 C 156.623 135.149,157.152 137.129,157.558 137.935 C 160.091 142.956,160.105 151.638,157.586 155.800 C 157.187 156.460,156.643 157.900,156.377 159.000 C 156.112 160.100,155.379 161.921,154.748 163.047 C 154.118 164.173,153.354 165.795,153.052 166.653 C 152.750 167.510,151.939 169.099,151.251 170.184 C 150.563 171.269,150.000 172.468,150.000 172.848 C 150.000 173.228,149.574 174.047,149.054 174.669 C 148.533 175.291,147.608 176.790,146.998 178.000 C 146.387 179.210,145.561 180.560,145.162 181.000 C 144.235 182.022,142.114 184.918,140.701 187.089 C 139.191 189.412,129.759 198.839,127.578 200.205 C 126.600 200.818,125.710 201.443,125.600 201.594 C 125.274 202.042,120.881 204.917,118.787 206.053 C 117.719 206.633,116.250 207.467,115.523 207.908 C 114.795 208.349,113.122 209.018,111.805 209.394 C 110.488 209.770,108.688 210.500,107.805 211.016 C 106.719 211.651,105.035 212.098,102.600 212.396 C 100.620 212.638,97.262 213.188,95.137 213.618 C 90.371 214.583,89.787 214.583,85.786 213.624 C 77.059 211.531,76.522 210.582,83.435 209.469 C 85.396 209.153,88.080 208.440,89.401 207.884 C 90.721 207.328,92.521 206.748,93.401 206.595 C 94.280 206.441,96.170 205.634,97.600 204.801 C 99.030 203.969,100.666 203.043,101.235 202.744 C 105.717 200.390,114.093 192.282,116.466 188.000 C 119.667 182.226,121.997 177.494,122.410 175.926 C 122.661 174.977,123.276 173.480,123.778 172.600 C 124.311 171.665,124.903 169.587,125.201 167.600 C 125.481 165.730,126.066 163.300,126.501 162.200 C 127.797 158.918,127.961 158.109,128.607 151.823 C 129.027 147.733,129.591 144.645,130.365 142.200 C 130.992 140.220,131.631 138.012,131.786 137.293 C 132.154 135.577,134.248 132.050,136.870 128.728 C 140.820 123.722,148.316 120.784,152.586 122.568 M233.729 175.478 C 232.283 175.760,231.909 176.632,231.889 179.767 L 231.870 182.742 234.153 184.971 C 235.408 186.197,236.691 187.200,237.004 187.200 C 237.316 187.200,238.163 187.714,238.886 188.341 C 241.835 190.903,249.068 192.133,254.657 191.023 C 258.456 190.268,261.200 189.321,261.200 188.764 C 261.200 188.572,261.976 188.007,262.923 187.508 C 267.159 185.277,269.152 181.427,267.932 177.833 C 267.027 175.168,261.920 174.147,259.970 176.241 C 253.527 183.157,246.934 183.251,240.553 176.516 C 239.292 175.186,237.013 174.839,233.729 175.478 M338.733 209.443 C 336.242 210.238,335.512 210.664,334.845 211.711 C 334.394 212.420,333.659 213.450,333.211 214.000 C 330.872 216.874,331.415 223.439,334.069 224.364 C 337.610 225.598,340.108 224.818,341.163 222.147 C 341.759 220.638,343.302 219.138,345.200 218.221 C 348.685 216.539,349.807 212.517,347.337 210.558 C 344.535 208.334,342.878 208.120,338.733 209.443 M136.725 210.109 C 137.811 211.419,139.745 215.672,140.403 218.200 C 141.304 221.662,141.587 222.439,142.224 223.200 C 142.500 223.530,143.090 224.917,143.535 226.281 C 143.980 227.646,144.794 229.536,145.343 230.481 C 145.892 231.427,146.539 233.304,146.780 234.654 C 147.021 236.003,147.686 238.253,148.257 239.654 C 150.707 245.659,150.842 275.613,148.441 280.320 C 148.012 281.160,147.367 282.983,147.008 284.370 C 146.421 286.633,144.246 291.026,141.866 294.757 C 138.027 300.773,128.104 307.831,121.252 309.420 C 119.827 309.750,118.107 310.357,117.430 310.767 C 115.840 311.732,115.058 311.875,107.400 312.598 C 103.880 312.931,99.020 313.469,96.600 313.794 C 91.017 314.543,87.132 314.553,83.483 313.826 C 81.897 313.510,78.530 312.962,76.000 312.610 C 73.470 312.257,70.785 311.772,70.032 311.531 L 68.665 311.093 69.632 310.597 C 70.165 310.324,71.860 309.892,73.400 309.639 C 74.940 309.385,78.090 308.664,80.400 308.037 C 82.710 307.411,85.626 306.685,86.880 306.425 C 88.134 306.165,89.844 305.487,90.680 304.919 C 91.516 304.350,93.010 303.613,94.000 303.280 C 94.990 302.947,96.330 302.235,96.977 301.698 C 97.625 301.161,98.539 300.575,99.009 300.397 C 102.296 299.147,110.813 290.868,112.802 286.990 C 113.143 286.325,113.885 285.155,114.451 284.390 C 115.017 283.626,115.788 281.830,116.163 280.400 C 116.538 278.970,117.240 276.900,117.723 275.800 C 119.040 272.797,119.048 259.969,117.734 257.125 C 117.257 256.094,116.653 254.204,116.391 252.925 C 116.130 251.646,115.318 249.298,114.587 247.707 C 112.919 244.075,112.246 238.354,112.458 229.628 C 112.633 222.483,112.370 222.916,118.300 220.028 C 122.864 217.805,123.856 217.314,126.024 216.200 C 127.309 215.540,128.775 214.630,129.280 214.178 C 129.786 213.726,130.989 212.826,131.953 212.178 C 136.421 209.175,136.074 209.325,136.725 210.109 M75.600 225.444 C 76.150 225.614,81.496 225.763,87.479 225.776 C 95.454 225.794,98.489 225.930,98.845 226.286 C 99.164 226.604,99.444 229.230,99.656 233.886 C 100.012 241.694,100.492 245.016,101.576 247.178 C 101.968 247.960,102.587 249.939,102.950 251.575 C 103.314 253.211,104.063 255.320,104.615 256.263 C 105.948 258.536,106.553 263.318,106.227 269.000 C 105.617 279.661,96.895 289.755,84.645 293.981 C 82.860 294.596,80.590 295.425,79.600 295.822 C 77.235 296.770,60.243 296.956,58.113 296.057 L 56.826 295.514 57.791 293.701 C 58.343 292.665,59.460 291.422,60.399 290.801 C 62.408 289.470,65.804 285.722,66.627 283.924 C 66.961 283.196,67.609 282.003,68.069 281.274 C 68.528 280.545,69.338 278.295,69.870 276.274 C 70.401 274.253,71.136 271.520,71.504 270.200 C 72.855 265.354,72.315 254.948,70.353 248.000 C 68.584 241.738,69.846 227.954,72.392 225.718 C 73.383 224.847,73.600 224.829,75.600 225.444 M145.967 312.841 C 146.382 313.524,146.845 314.919,146.996 315.941 C 147.146 316.964,147.818 319.055,148.489 320.590 C 150.937 326.193,150.974 349.727,148.539 352.458 C 148.216 352.820,147.624 354.199,147.223 355.522 C 146.823 356.846,146.045 358.530,145.495 359.265 C 144.945 359.999,144.191 361.199,143.821 361.931 C 142.377 364.785,139.493 368.021,133.893 373.071 C 133.118 373.769,131.700 374.739,130.742 375.225 C 129.784 375.711,128.491 376.535,127.869 377.055 C 127.247 377.575,126.517 378.000,126.246 378.000 C 125.975 378.000,124.684 378.644,123.376 379.431 C 122.069 380.218,120.100 381.102,119.000 381.395 C 117.900 381.687,116.010 382.382,114.800 382.938 C 113.578 383.500,111.098 384.152,109.221 384.405 C 107.362 384.655,104.482 385.313,102.821 385.867 C 96.713 387.904,69.135 388.140,64.000 386.199 C 63.010 385.825,60.162 384.994,57.672 384.352 C 55.181 383.710,52.298 382.756,51.265 382.233 C 50.232 381.709,48.633 381.078,47.711 380.830 C 46.790 380.582,45.533 379.959,44.918 379.446 C 44.303 378.932,43.220 378.215,42.512 377.852 C 41.803 377.489,40.903 376.872,40.512 376.481 C 40.120 376.090,39.108 375.259,38.261 374.635 L 36.722 373.500 37.528 372.694 C 38.294 371.928,38.542 371.910,42.667 372.331 C 57.805 373.874,75.002 372.975,78.400 370.463 C 78.990 370.027,80.266 369.434,81.236 369.146 C 83.667 368.423,89.463 364.474,91.618 362.073 C 94.687 358.653,96.252 356.655,97.156 355.000 C 97.637 354.120,98.400 352.817,98.850 352.104 C 99.301 351.391,99.929 349.693,100.247 348.331 C 100.565 346.969,101.174 345.289,101.601 344.598 C 102.654 342.895,103.111 340.422,103.596 333.800 C 104.213 325.393,104.251 325.344,110.594 324.801 C 112.977 324.596,114.825 324.199,115.866 323.668 C 116.748 323.218,119.057 322.553,120.998 322.189 C 123.144 321.787,125.094 321.152,125.976 320.568 C 126.774 320.040,128.341 319.337,129.458 319.005 C 130.576 318.673,131.933 318.053,132.475 317.627 C 133.017 317.200,134.437 316.386,135.630 315.817 C 136.824 315.248,138.790 314.071,140.000 313.203 C 142.896 311.125,144.851 311.006,145.967 312.841 M79.000 325.167 C 84.720 325.375,89.813 325.670,90.318 325.824 C 92.206 326.398,93.555 331.441,92.399 333.602 C 92.178 334.014,91.635 336.191,91.192 338.439 C 90.742 340.724,89.993 343.161,89.495 343.964 C 89.005 344.754,88.198 346.273,87.702 347.339 C 87.206 348.406,86.305 349.781,85.700 350.394 C 85.095 351.007,83.880 352.429,83.000 353.553 C 80.852 356.297,77.275 358.562,73.483 359.578 C 71.798 360.029,69.650 360.714,68.710 361.099 C 66.855 361.859,54.628 362.142,52.250 361.480 C 50.281 360.932,50.932 358.797,54.055 355.567 C 57.327 352.182,58.924 349.612,59.999 346.005 C 60.473 344.410,61.217 342.424,61.652 341.591 C 62.529 339.908,63.182 334.881,63.193 329.726 C 63.204 324.736,63.482 324.273,66.304 324.558 C 67.567 324.686,73.280 324.960,79.000 325.167 "
            fill="#050405" fill-rule="evenodd" id="path2" stroke="none"></path>
        <path
            d="M134.753 210.302 C 131.111 212.729,130.101 213.445,129.280 214.178 C 128.775 214.630,127.309 215.540,126.024 216.200 C 123.856 217.314,122.864 217.805,118.300 220.028 C 112.370 222.916,112.633 222.483,112.458 229.628 C 112.246 238.354,112.919 244.075,114.587 247.707 C 115.318 249.298,116.130 251.646,116.391 252.925 C 116.653 254.204,117.257 256.094,117.734 257.125 C 119.048 259.969,119.040 272.797,117.723 275.800 C 117.240 276.900,116.538 278.970,116.163 280.400 C 115.788 281.830,115.017 283.626,114.451 284.390 C 113.885 285.155,113.143 286.325,112.802 286.990 C 110.813 290.868,102.296 299.147,99.009 300.397 C 98.539 300.575,97.625 301.161,96.977 301.698 C 96.330 302.235,94.990 302.947,94.000 303.280 C 93.010 303.613,91.516 304.350,90.680 304.919 C 89.844 305.487,88.134 306.165,86.880 306.425 C 85.626 306.685,82.710 307.411,80.400 308.037 C 78.090 308.664,74.940 309.385,73.400 309.639 C 71.860 309.892,70.165 310.324,69.632 310.597 L 68.665 311.093 70.032 311.531 C 70.785 311.772,73.470 312.257,76.000 312.610 C 78.530 312.962,81.897 313.510,83.483 313.826 C 87.132 314.553,91.017 314.543,96.600 313.794 C 99.020 313.469,103.880 312.931,107.400 312.598 C 115.058 311.875,115.840 311.732,117.430 310.767 C 118.107 310.357,119.827 309.750,121.252 309.420 C 128.104 307.831,138.027 300.773,141.866 294.757 C 144.246 291.026,146.421 286.633,147.008 284.370 C 147.367 282.983,148.012 281.160,148.441 280.320 C 150.842 275.613,150.707 245.659,148.257 239.654 C 147.686 238.253,147.021 236.003,146.780 234.654 C 146.539 233.304,145.892 231.427,145.343 230.481 C 144.794 229.536,143.980 227.646,143.535 226.281 C 143.090 224.917,142.500 223.530,142.224 223.200 C 141.587 222.439,141.304 221.662,140.403 218.200 C 139.507 214.756,136.894 209.595,136.051 209.602 C 135.913 209.603,135.329 209.918,134.753 210.302 M72.392 225.718 C 69.846 227.954,68.584 241.738,70.353 248.000 C 72.315 254.948,72.855 265.354,71.504 270.200 C 71.136 271.520,70.401 274.253,69.870 276.274 C 69.338 278.295,68.528 280.545,68.069 281.274 C 67.609 282.003,66.961 283.196,66.627 283.924 C 65.804 285.722,62.408 289.470,60.399 290.801 C 59.460 291.422,58.343 292.665,57.791 293.701 L 56.826 295.514 58.113 296.057 C 60.243 296.956,77.235 296.770,79.600 295.822 C 80.590 295.425,82.860 294.596,84.645 293.981 C 96.895 289.755,105.617 279.661,106.227 269.000 C 106.553 263.318,105.948 258.536,104.615 256.263 C 104.063 255.320,103.314 253.211,102.950 251.575 C 102.587 249.939,101.968 247.960,101.576 247.178 C 100.492 245.016,100.012 241.694,99.656 233.886 C 99.444 229.230,99.164 226.604,98.845 226.286 C 98.489 225.930,95.454 225.794,87.479 225.776 C 81.496 225.763,76.150 225.614,75.600 225.444 C 73.600 224.829,73.383 224.847,72.392 225.718 "
            fill="#04a8f1" fill-rule="evenodd" id="path3" stroke="none"></path>
        <path
            d="M300.146 14.712 C 299.456 15.310,297.578 16.610,295.974 17.600 C 293.292 19.254,291.865 20.314,288.000 23.522 C 287.230 24.162,286.150 24.920,285.600 25.209 C 285.050 25.497,284.135 26.198,283.568 26.767 C 283.000 27.335,281.290 28.784,279.768 29.986 C 273.158 35.207,272.400 36.018,272.400 37.874 C 272.400 40.351,273.429 40.543,285.400 40.294 C 298.499 40.022,299.514 39.617,300.166 34.400 C 300.317 33.190,300.965 30.555,301.605 28.543 C 303.111 23.813,303.622 17.367,302.670 15.100 C 301.923 13.320,301.775 13.298,300.146 14.712 M255.913 51.871 C 253.976 53.586,251.200 57.200,251.200 58.006 C 251.200 58.190,252.145 58.904,253.300 59.592 C 257.740 62.238,259.448 63.331,260.800 64.392 C 261.570 64.996,262.740 65.790,263.400 66.156 C 264.060 66.523,265.590 67.632,266.800 68.622 C 272.509 73.290,277.069 76.771,278.959 77.905 C 279.597 78.287,280.718 79.110,281.450 79.734 C 283.935 81.848,286.045 80.431,287.638 75.578 C 288.102 74.165,288.828 72.522,289.251 71.928 C 289.674 71.334,290.365 69.502,290.786 67.856 C 291.206 66.211,291.915 64.150,292.361 63.277 C 292.806 62.404,293.468 60.364,293.832 58.745 C 294.969 53.680,294.971 53.443,293.888 52.185 L 292.904 51.041 287.952 51.502 C 283.970 51.873,281.943 51.853,277.600 51.402 C 270.755 50.691,261.950 50.000,259.733 50.000 C 258.269 50.000,257.727 50.265,255.913 51.871 "
            fill="#dcc004" fill-rule="evenodd" id="path4" stroke="none"></path>
    </g>
</svg>