<svg id="クレーン" xmlns="http://www.w3.org/2000/svg" xmlns:xlink="http://www.w3.org/1999/xlink" viewBox="0 0 500 500"><defs><style>.cls-1{fill:url(#名称未設定グラデーション_21);}.cls-2{fill:none;}.cls-3{fill:#fff;}.cls-4{fill:#231815;}</style><linearGradient id="名称未設定グラデーション_21" y1="250" x2="500" y2="250" gradientUnits="userSpaceOnUse"><stop offset="0" stop-color="#2796a7"/><stop offset="0.52" stop-color="#28ceb4"/><stop offset="0.95" stop-color="#58d5c3"/></linearGradient></defs><rect class="cls-1" width="500" height="500" rx="50"/><polygon class="cls-2" points="199.36 216.34 184.37 231.33 214.35 231.33 199.36 216.34"/><polygon class="cls-2" points="199.36 162.78 184.37 177.77 214.35 177.77 199.36 162.78"/><polygon class="cls-2" points="184.37 187.54 199.36 202.53 214.35 187.54 184.37 187.54"/><polygon class="cls-2" points="184.37 133.98 199.36 148.97 214.35 133.98 184.37 133.98"/><polygon class="cls-2" points="183.39 200.37 183.39 218.5 192.45 209.43 183.39 200.37"/><polygon class="cls-2" points="199.36 109.23 184.37 124.22 214.35 124.22 199.36 109.23"/><polygon class="cls-2" points="183.39 146.81 183.39 164.94 192.45 155.88 183.39 146.81"/><polygon class="cls-2" points="183.39 93.26 183.39 111.39 192.45 102.33 183.39 93.26"/><rect class="cls-2" x="215.55" y="65.31" width="9.46" height="0.08"/><polygon class="cls-2" points="184.37 241.09 199.36 256.08 214.35 241.09 184.37 241.09"/><polygon class="cls-2" points="199.36 269.89 184.37 284.88 214.35 284.88 199.36 269.89"/><polygon class="cls-2" points="213.39 81.39 185.32 81.39 199.36 95.42 213.39 81.39"/><polygon class="cls-2" points="199.36 309.63 214.35 294.64 184.37 294.64 199.36 309.63"/><polygon class="cls-2" points="215.32 111.39 215.32 93.26 206.26 102.33 215.32 111.39"/><polygon class="cls-2" points="215.32 164.94 215.32 146.81 206.26 155.88 215.32 164.94"/><polygon class="cls-2" points="183.39 253.92 183.39 272.05 192.45 262.98 183.39 253.92"/><polygon class="cls-2" points="215.32 218.5 215.32 200.37 206.26 209.43 215.32 218.5"/><polygon class="cls-2" points="215.32 272.05 215.32 253.92 206.26 262.98 215.32 272.05"/><polygon class="cls-2" points="215.32 325.6 215.32 307.47 206.26 316.54 215.32 325.6"/><polygon class="cls-2" points="199.36 162.78 184.37 177.77 214.35 177.77 199.36 162.78"/><polygon class="cls-2" points="184.37 133.98 199.36 148.97 214.35 133.98 184.37 133.98"/><polygon class="cls-2" points="184.37 187.54 199.36 202.53 214.35 187.54 184.37 187.54"/><polygon class="cls-2" points="183.39 93.26 183.39 111.39 192.45 102.33 183.39 93.26"/><polygon class="cls-2" points="199.36 109.23 184.37 124.22 214.35 124.22 199.36 109.23"/><polygon class="cls-2" points="199.36 309.63 214.35 294.64 184.37 294.64 199.36 309.63"/><polygon class="cls-2" points="199.36 269.89 184.37 284.88 214.35 284.88 199.36 269.89"/><polygon class="cls-2" points="213.39 81.39 185.32 81.39 199.36 95.42 213.39 81.39"/><polygon class="cls-2" points="199.36 216.34 184.37 231.33 214.35 231.33 199.36 216.34"/><polygon class="cls-2" points="184.37 241.09 199.36 256.08 214.35 241.09 184.37 241.09"/><polygon class="cls-2" points="183.39 146.81 183.39 164.94 192.45 155.88 183.39 146.81"/><polygon class="cls-2" points="215.32 111.39 215.32 93.26 206.26 102.33 215.32 111.39"/><polygon class="cls-2" points="215.32 218.5 215.32 200.37 206.26 209.43 215.32 218.5"/><polygon class="cls-2" points="215.32 164.94 215.32 146.81 206.26 155.88 215.32 164.94"/><polygon class="cls-2" points="215.32 272.05 215.32 253.92 206.26 262.98 215.32 272.05"/><polygon class="cls-2" points="183.39 200.37 183.39 218.5 192.45 209.43 183.39 200.37"/><polygon class="cls-2" points="183.39 253.92 183.39 272.05 192.45 262.98 183.39 253.92"/><polygon class="cls-2" points="215.32 325.6 215.32 307.47 206.26 316.54 215.32 325.6"/><polygon class="cls-2" points="214.35 284.88 199.36 269.89 184.37 284.88 214.35 284.88"/><polygon class="cls-2" points="199.36 309.63 214.35 294.64 184.37 294.64 199.36 309.63"/><polygon class="cls-2" points="199.36 256.08 214.35 241.09 184.37 241.09 199.36 256.08"/><polygon class="cls-2" points="215.32 325.6 215.32 307.47 206.26 316.54 215.32 325.6"/><polygon class="cls-2" points="215.32 272.05 215.32 253.92 206.26 262.98 215.32 272.05"/><polygon class="cls-2" points="199.36 202.53 214.35 187.54 184.37 187.54 199.36 202.53"/><polygon class="cls-2" points="199.36 109.23 184.37 124.22 214.35 124.22 199.36 109.23"/><polygon class="cls-2" points="199.36 148.97 214.35 133.98 184.37 133.98 199.36 148.97"/><polygon class="cls-2" points="215.32 218.5 215.32 200.37 206.26 209.43 215.32 218.5"/><polygon class="cls-2" points="214.35 231.33 199.36 216.34 184.37 231.33 214.35 231.33"/><polygon class="cls-2" points="214.35 177.77 199.36 162.78 184.37 177.77 214.35 177.77"/><polygon class="cls-2" points="183.39 146.81 183.39 164.94 192.45 155.88 183.39 146.81"/><polygon class="cls-2" points="183.39 200.37 183.39 218.5 192.45 209.43 183.39 200.37"/><polygon class="cls-2" points="215.32 164.94 215.32 146.81 206.26 155.88 215.32 164.94"/><polygon class="cls-2" points="183.39 253.92 183.39 272.05 192.45 262.98 183.39 253.92"/><polygon class="cls-2" points="215.32 111.39 215.32 93.26 206.26 102.33 215.32 111.39"/><polygon class="cls-2" points="183.39 93.26 183.39 111.39 192.45 102.33 183.39 93.26"/><polygon class="cls-2" points="213.39 81.39 185.32 81.39 199.36 95.42 213.39 81.39"/><polygon class="cls-3" points="389.15 110.05 224.08 65.75 221.39 75.78 349.1 110.05 235.41 110.05 235.41 135.83 345.59 135.83 345.59 187.13 345.23 187.13 345.23 187.14 337.43 187.14 337.43 211.07 345.23 211.07 345.23 224.6 359.37 224.6 359.37 238.13 339.51 238.13 339.51 227.72 331.18 227.72 331.18 246.46 367.69 246.46 367.69 216.28 353.56 216.28 353.56 211.07 361.36 211.07 361.36 187.14 353.75 187.14 353.75 135.83 376.72 135.83 390.47 135.83 390.47 128.87 390.47 118.22 390.47 110.4 389.15 110.05"/><polygon class="cls-2" points="215.32 325.6 215.32 307.47 206.26 316.54 215.32 325.6"/><polygon class="cls-2" points="199.36 256.08 214.35 241.09 184.37 241.09 199.36 256.08"/><polygon class="cls-2" points="214.35 284.88 199.36 269.89 184.37 284.88 214.35 284.88"/><polygon class="cls-2" points="215.32 111.39 215.32 93.26 206.26 102.33 215.32 111.39"/><polygon class="cls-2" points="215.32 164.94 215.32 146.81 206.26 155.88 215.32 164.94"/><polygon class="cls-2" points="215.32 218.5 215.32 200.37 206.26 209.43 215.32 218.5"/><polygon class="cls-2" points="215.32 272.05 215.32 253.92 206.26 262.98 215.32 272.05"/><polygon class="cls-2" points="199.36 202.53 214.35 187.54 184.37 187.54 199.36 202.53"/><polygon class="cls-2" points="199.36 148.97 214.35 133.98 184.37 133.98 199.36 148.97"/><polygon class="cls-2" points="184.37 294.64 199.36 309.63 214.35 294.64 184.37 294.64"/><polygon class="cls-2" points="214.35 177.77 199.36 162.78 184.37 177.77 214.35 177.77"/><polygon class="cls-2" points="199.36 109.23 184.37 124.22 214.35 124.22 199.36 109.23"/><polygon class="cls-2" points="214.35 231.33 199.36 216.34 184.37 231.33 214.35 231.33"/><polygon class="cls-2" points="183.39 200.37 183.39 218.5 192.45 209.43 183.39 200.37"/><polygon class="cls-2" points="213.39 81.39 185.32 81.39 199.36 95.42 213.39 81.39"/><polygon class="cls-2" points="183.39 253.92 183.39 272.05 192.45 262.98 183.39 253.92"/><polygon class="cls-2" points="183.39 146.81 183.39 164.94 192.45 155.88 183.39 146.81"/><polygon class="cls-2" points="183.39 93.26 183.39 111.39 192.45 102.33 183.39 93.26"/><rect class="cls-2" x="173.28" y="81.39" width="0.35" height="251.39"/><polygon class="cls-2" points="190.02 332.78 208.69 332.78 199.36 323.44 190.02 332.78"/><polygon class="cls-2" points="192.45 316.54 183.39 307.47 192.45 316.54 192.45 316.54"/><polygon class="cls-2" points="183.39 307.47 183.39 325.6 192.45 316.54 183.39 307.47"/><path class="cls-3" d="M199.36,323.44l9.33,9.34H225V65.6h-51.3V332.78H190Zm-15-28.8h30l-15,15Zm30-160.66-15,15-15-15Zm-30-9.76,15-15,15,15Zm30,53.55h-30l15-15Zm0,9.77-15,15-15-15Zm0,43.79h-30l15-15Zm0,9.76-15,15-15-15Zm0,43.79h-30l15-15Zm1,40.72-9.07-9.06,9.07-9.07Zm0-53.55L206.26,263l9.07-9.06Zm0-53.55-9.07-9.07,9.07-9.06Zm0-53.56-9.07-9.06,9.07-9.07Zm0-53.55-9.07-9.06,9.07-9.07Zm-1.94-30-14,14-14-14Zm-30,11.87,9.06,9.07-9.06,9.06Zm0,53.55,9.06,9.07-9.06,9.06Zm0,53.56,9.06,9.06-9.06,9.07Zm0,53.55,9.06,9.06-9.06,9.07Zm0,71.68V307.47l9.06,9.07h0l-9.06,9.06Z"/><rect class="cls-4" x="181.51" y="321.07" width="12.82" transform="translate(-171.99 226.93) rotate(-45)"/><polygon class="cls-3" points="225.02 332.78 208.69 332.78 190.02 332.78 173.72 332.78 173.62 332.78 173.28 332.78 152.95 332.78 152.95 348.67 244.89 348.67 244.89 332.78 225.02 332.78"/><polygon class="cls-3" points="180.07 74.12 174.12 65.61 110.09 110.39 109.78 110.61 109.73 110.64 109.53 110.79 109.53 110.92 109.53 111 109.53 135.83 110.09 135.83 162.88 135.83 162.88 110.05 128.7 110.05 180.07 74.12"/><path class="cls-3" d="M151.82,371.72a4.92,4.92,0,0,1-1.1-2.94,4.59,4.59,0,0,1,4.51-4.14,4.69,4.69,0,0,1,3.59,2.12l22,32,22-32a4.69,4.69,0,0,1,3.59-2.12,4.52,4.52,0,0,1,4.51,4.14,4.87,4.87,0,0,1-1.11,2.94l-24.84,34.13v32c0,2-1.75,3.49-4.14,3.49s-4.14-1.47-4.14-3.49v-32Z"/><path class="cls-3" d="M244.56,365.74c10.49,0,18.77,2.12,25.39,6.54,9.75,6.43,15,17.2,15,30.63,0,23.73-15,37.35-41,37.35H231.68c-6.44,0-9.75-3.31-9.75-9.94V375.68c0-6.62,3.31-9.94,9.75-9.94ZM230.3,430.23a2.33,2.33,0,0,0,2.58,2.58h10.48c20.43,0,32.48-11,32.48-29.81,0-19.22-11.32-29.8-31.93-29.8h-11a2.25,2.25,0,0,0-2.58,2.57Z"/><path class="cls-3" d="M308.13,437.87c0,2-1.75,3.49-4.14,3.49s-4.23-1.47-4.23-3.49v-63.2c0-5.89,2.94-8.93,8.92-8.93h36.89a3.71,3.71,0,0,1,0,7.36H310.25a1.88,1.88,0,0,0-2.12,2V398.4H340.6a3.26,3.26,0,0,1,3.13,3.5c0,2.11-1.29,3.59-3.13,3.59H308.13Z"/></svg>